<svg width="480" height="480" viewBox="0 0 480 480" fill="none" xmlns="http://www.w3.org/2000/svg">
<g clip-path="url(#clip0_623_76331)">
<path d="M244.36 471.96C239.002 471.884 234.423 468.08 233.378 462.825L221.479 408.417L206.346 415.661L200.673 449.32C199.857 454.408 195.757 458.333 190.637 458.927C184.839 459.543 179.519 455.663 178.337 449.955L174.337 430.983L147.447 443.854C142.36 446.26 136.282 444.81 132.829 440.366C131.662 438.819 130.882 437.016 130.553 435.105C130.225 433.195 130.359 431.234 130.943 429.386L148.737 371.33C150.314 366.063 155.536 362.766 160.971 363.608C165.599 364.356 169.279 367.892 170.212 372.484L180.087 419.331L199.121 410.22L202.926 387.644C203.823 382.331 208.358 378.398 213.746 378.26C219.133 378.123 223.864 381.82 225.031 387.08L227.157 396.8L250.625 385.566C250.714 385.523 250.805 385.483 250.897 385.447C251.303 385.289 251.651 385.01 251.894 384.648C252.138 384.286 252.265 383.859 252.259 383.423C252.252 382.987 252.113 382.563 251.86 382.208C251.606 381.854 251.251 381.585 250.84 381.438L157.106 353.189C156.443 352.989 155.843 352.622 155.365 352.122C154.886 351.622 154.545 351.006 154.374 350.336C154.203 349.665 154.209 348.961 154.391 348.293C154.573 347.625 154.924 347.016 155.411 346.524C161.312 340.561 175.558 334.846 193.373 331.039L184.589 324.153C180.619 321.042 176.533 317.542 174.017 312.025C169.684 302.528 172.031 290.451 179.077 282.119C158.46 266.975 141.414 261.339 127.094 264.902C126.724 264.994 126.356 265.094 125.99 265.202C150.411 284.554 164.239 298.784 160.774 314.957C158.112 327.387 147.359 333.048 135.446 336.776C137.174 339.636 138.682 342.623 139.959 345.71C142.844 352.873 143.33 359.088 141.444 364.713C138.407 373.771 129.415 380.613 113.955 385.631C112.725 386.03 111.369 386.428 109.932 386.833C115.917 399.748 119.609 409.11 121.135 415.216C122.72 421.559 120.396 427.484 115.216 430.312C113.292 431.346 111.136 431.871 108.951 431.838C106.767 431.804 104.628 431.214 102.736 430.121C95.2304 425.911 78.652 414.982 75.3153 408.079C73.2538 403.813 73.0641 399.767 74.7518 396.054C78.1654 388.545 88.6024 384.585 98.5998 381.661C97.0006 378.343 95.2786 374.836 93.4346 371.139C88.8501 361.949 87.964 354.568 90.7253 348.576C95.2296 338.801 107.877 335.643 121.267 332.299L122.675 331.947C121.893 330.834 121.089 329.704 120.273 328.557C109.999 314.118 97.2129 296.148 103.714 276.356C105.238 271.676 107.961 267.476 111.612 264.176C110.918 263.641 110.214 263.1 109.502 262.554C92.8122 249.754 84.7039 237.161 85.4015 225.123C85.7277 219.497 88.014 214.287 92.1149 209.7C87.2355 207.377 82.5092 204.744 77.9647 201.819C63.4181 192.473 50.4432 180.061 41.4291 166.87C39.9861 164.758 38.6696 162.668 37.4803 160.598C32.9978 158.185 28.6723 155.492 24.5296 152.534C11.9449 143.474 3.83215 133.375 0.416602 122.519C0.148168 121.665 0.172587 120.747 0.485982 119.909C0.79937 119.071 1.38376 118.362 2.14632 117.894C12.4727 111.559 29.899 106.79 48.7618 105.137C72.1333 103.089 97.4137 105.751 120.516 112.498C114.014 98.0671 110.113 82.766 109.448 68.4166C109.414 67.6761 109.585 66.9407 109.943 66.2917C110.301 65.6428 110.832 65.1057 111.477 64.7401C112.122 64.3743 112.856 64.1943 113.597 64.2198C114.337 64.2453 115.057 64.4755 115.675 64.8848L168.096 99.5993L173.339 90.2026C164.128 84.8891 156.932 78.2316 151.752 70.2296C151.356 69.6165 151.135 68.9071 151.112 68.1777C151.09 67.4483 151.266 66.7265 151.623 66.0901C151.981 65.4536 152.505 64.9265 153.139 64.5655C153.773 64.2045 154.494 64.0233 155.224 64.0413L187.496 64.8347L203.538 36.0878C203.942 35.3641 204.56 34.7831 205.308 34.4247C206.055 34.0662 206.895 33.9478 207.712 34.0857C208.529 34.2236 209.284 34.6111 209.872 35.1949C210.46 35.7787 210.853 36.5303 210.997 37.3464L215.967 65.5348L218.111 65.5875L233.59 19.7967C233.877 18.9468 234.441 18.2176 235.191 17.7256C235.942 17.2336 236.835 17.0072 237.729 17.0824C238.623 17.1576 239.467 17.5302 240.124 18.1408C240.782 18.7514 241.216 19.5647 241.357 20.4509L248.666 66.339L250.464 66.3833L268.66 10.7858C268.942 9.9235 269.508 9.18228 270.266 8.68297C271.023 8.18366 271.928 7.95572 272.831 8.0363C273.735 8.11671 274.585 8.50094 275.242 9.12632C275.9 9.75169 276.326 10.5813 276.451 11.48L284.221 67.2133L287.594 67.2964L296.509 50.1868C296.761 49.7033 297.109 49.2761 297.531 48.9315C297.953 48.5868 298.442 48.3317 298.966 48.1819C299.49 48.032 300.039 47.9905 300.58 48.0599C301.121 48.1293 301.642 48.3081 302.111 48.5854L336.7 69.0127C337.466 69.4644 338.06 70.1574 338.389 70.983C338.718 71.8087 338.764 72.7202 338.519 73.5746C338.274 74.429 337.752 75.1779 337.036 75.7039C336.319 76.2298 335.448 76.503 334.56 76.4806L292.402 75.4436L286.261 87.2321C285.867 87.9867 285.244 88.597 284.482 88.9746C283.719 89.3522 282.856 89.4778 282.018 89.3331C281.179 89.1884 280.408 88.781 279.816 88.1696C279.224 87.5583 278.842 86.7746 278.724 85.9318L277.21 75.0702L256.237 74.5547L251.723 88.3477C251.443 89.2036 250.883 89.9403 250.133 90.4396C249.384 90.9388 248.488 91.1714 247.59 91.1C246.692 91.0288 245.845 90.6579 245.183 90.0468C244.522 89.4357 244.085 88.6199 243.943 87.7306L241.788 74.199L223.824 73.7575L219.285 87.1877C218.999 88.0324 218.44 88.7579 217.697 89.2498C216.953 89.7418 216.067 89.9722 215.178 89.9047C214.289 89.8374 213.447 89.4759 212.787 88.8774C212.126 88.2789 211.683 87.4773 211.528 86.5993L209.201 73.3976L192.146 72.9782L184.388 86.8784C243.209 113.175 357.526 82.5745 358.888 82.203C359.814 81.9504 360.801 82.038 361.668 82.4501L410.808 105.804C411.659 106.208 412.341 106.898 412.734 107.754C413.127 108.61 413.206 109.576 412.959 110.485C412.711 111.394 412.151 112.186 411.378 112.724C410.605 113.262 409.667 113.51 408.729 113.426C408.067 113.367 341.996 107.686 301.511 120.361C288.949 124.293 282.473 130.123 279.996 135.681C308.567 125.9 368.552 126.055 372.396 126.395C373.209 126.466 373.981 126.784 374.609 127.306C375.237 127.828 375.69 128.529 375.91 129.315C376.129 130.101 376.103 130.936 375.835 131.707C375.568 132.479 375.071 133.15 374.412 133.632C348.769 152.389 319.697 163.559 297.688 163.248C296.762 163.236 295.836 163.201 294.911 163.146C284.136 162.491 275.444 156.707 272.158 148.5C262.927 155.045 260.454 163.625 262.368 169.587C264.739 176.975 274.64 183.664 295.321 180.283C339.913 172.995 412.998 127.857 430.129 116.168C430.68 115.792 431.315 115.56 431.978 115.491C432.64 115.422 433.31 115.519 433.926 115.774L449.45 122.19C451.479 123.029 452.457 125.341 451.647 127.381C436.143 166.396 430.185 202.893 430.126 203.257C430.012 203.965 429.711 204.629 429.254 205.181C428.797 205.733 428.201 206.152 427.527 206.396C426.853 206.64 426.126 206.699 425.422 206.567C424.718 206.435 424.061 206.117 423.522 205.645C418.546 201.302 410.21 197.521 399.921 197.674C400.997 203.259 401.601 208.924 401.727 214.611C402.337 234.478 398.615 255.439 396.319 264.693C395.99 266.02 395.008 267.088 393.712 267.528L381.416 271.696C384.728 280.805 385.181 292.859 382.536 303.95C391.226 308.53 401.733 312.122 413.976 314.686C414.832 314.865 415.607 315.319 416.181 315.979C416.756 316.639 417.099 317.468 417.158 318.341C417.218 319.214 416.991 320.082 416.511 320.814C416.031 321.546 415.326 322.101 414.502 322.395C391.76 330.502 381.453 346.492 377.051 356.545C382.473 354.801 388.309 354.835 393.711 356.641C405.46 360.487 414.199 369.474 418.982 382.627C421.143 388.584 422.379 394.836 422.646 401.166C422.656 401.971 422.424 402.761 421.979 403.432C421.535 404.104 420.898 404.626 420.153 404.931C419.408 405.236 418.588 405.309 417.8 405.142C417.012 404.975 416.293 404.575 415.735 403.994C402.058 389.736 391.11 387.256 383.778 388.135C387.658 389.573 391.155 391.884 394 394.889C398.598 399.876 400.675 406.389 400.174 414.245C399.16 430.129 385.213 438.671 380.775 438.609C378.586 438.578 376.825 436.799 376.818 434.61C376.765 419.481 371.093 414.042 369.356 412.735C369.234 412.644 369.11 412.555 368.983 412.47C367.833 421.945 362.374 428.939 353.263 432.424C341.177 437.046 325.175 434.324 320.55 428.852C320.159 428.389 319.878 427.843 319.728 427.256C319.577 426.668 319.562 426.054 319.683 425.46C319.804 424.866 320.059 424.307 320.427 423.825C320.795 423.344 321.267 422.952 321.809 422.679C339.958 413.525 351.819 397.28 353.538 379.223C354.652 367.52 350.981 357.19 343.718 351.59C332.662 343.066 321.703 344.973 314.537 348.004C324.309 351.155 334.47 357.261 339.846 366.153C344.498 373.846 345.046 382.775 341.432 391.975C341.14 392.719 340.633 393.359 339.975 393.813C339.317 394.267 338.538 394.514 337.739 394.523C336.94 394.531 336.156 394.301 335.489 393.862C334.821 393.422 334.3 392.794 333.992 392.056C333.548 391.01 322.717 366.262 296.016 371.312C286.155 373.177 281.081 378.918 278.54 383.518C296.331 380.065 311.298 382.519 320.303 390.543C326.099 395.708 328.78 402.86 327.657 410.165C327.55 410.853 327.267 411.502 326.834 412.048C326.402 412.593 325.834 413.017 325.189 413.277C324.543 413.538 323.84 413.625 323.15 413.532C322.46 413.439 321.806 413.168 321.252 412.745C310.368 404.438 293.892 406.799 280.253 418.618C269.97 427.529 263.976 440.518 261.876 445.689C258.604 453.749 255.266 464.197 255.233 464.302C255.219 464.345 255.204 464.389 255.189 464.433C253.566 469.003 249.211 472.029 244.36 471.96ZM228.918 404.856L241.222 461.11C241.351 461.785 241.676 462.407 242.155 462.9C242.634 463.392 243.248 463.734 243.919 463.881C244.682 464.019 245.469 463.884 246.143 463.501C246.818 463.118 247.336 462.511 247.609 461.785C247.951 460.714 251.163 450.735 254.437 442.671C256.755 436.963 263.396 422.602 274.994 412.552C288.961 400.449 305.73 396.773 319.031 402.279C318.156 400.065 316.759 398.095 314.961 396.535C306.921 389.37 291.329 388.048 273.252 392.998C272.602 393.176 271.918 393.187 271.262 393.031C270.607 392.875 270.001 392.557 269.501 392.106C269.001 391.654 268.622 391.084 268.401 390.448C268.179 389.812 268.121 389.131 268.232 388.466C268.373 387.62 271.951 367.694 294.524 363.425C311.877 360.143 323.739 367.301 330.636 373.883C332.49 375.658 334.202 377.576 335.758 379.618C335.661 376.324 334.702 373.113 332.975 370.306C327.304 360.926 313.773 354.862 303.338 353.719C302.557 353.634 301.818 353.321 301.213 352.82C300.608 352.319 300.164 351.651 299.935 350.9C299.706 350.148 299.702 349.346 299.925 348.592C300.147 347.839 300.586 347.168 301.187 346.661C305.549 343.239 310.511 340.661 315.819 339.061C327.49 335.552 338.833 337.687 348.622 345.234C358.081 352.528 362.907 365.518 361.531 379.983C359.776 398.417 348.993 415.143 332.226 425.955C337 427.027 344.02 427.365 350.394 424.927C357.796 422.096 361.422 416.326 361.171 407.778C361.145 406.885 361.417 406.009 361.945 405.289C362.473 404.568 363.226 404.044 364.085 403.8C367.195 402.915 370.876 403.834 374.183 406.321C381.202 411.6 383.651 421.072 384.465 428.149C386.69 426.423 388.525 424.246 389.851 421.762C391.177 419.278 391.964 416.543 392.161 413.734C392.517 408.151 391.149 403.641 388.096 400.328C382.542 394.303 373.286 393.677 370.582 393.628C369.79 393.614 369.021 393.366 368.37 392.916C367.719 392.466 367.215 391.833 366.923 391.097C366.631 390.361 366.563 389.556 366.727 388.781C366.892 388.007 367.282 387.299 367.848 386.745C368.14 386.46 375.119 379.777 386.944 379.945L387.009 379.946C395.558 380.085 404.281 383.673 413.036 390.634C412.577 388.779 412.017 386.951 411.358 385.157C407.379 374.371 400.601 367.343 391.213 364.27C380.803 360.862 373.094 367.474 372.77 367.757C372.145 368.307 371.364 368.65 370.536 368.737C369.707 368.824 368.872 368.652 368.146 368.244C367.419 367.836 366.838 367.213 366.481 366.46C366.125 365.707 366.011 364.862 366.156 364.042C366.389 362.753 371.676 335.329 400.798 319.697C393.66 317.695 386.727 315.023 380.093 311.715C377.471 318.295 373.588 324.114 368.383 328.183C361.307 333.716 351.906 334.244 341.198 329.71C337.79 328.244 334.523 326.47 331.437 324.41C328.361 326.538 324.748 327.757 321.011 327.929C319.917 328.002 318.819 328.031 317.722 328.015C299.834 327.762 281.984 316 275.06 304.403C274.753 303.889 274.565 303.313 274.509 302.717C274.454 302.121 274.533 301.52 274.74 300.958C274.946 300.397 275.276 299.889 275.705 299.471C276.134 299.053 276.651 298.737 277.218 298.545L304.781 289.2C304.197 286.333 303.985 283.402 304.15 280.481C304.614 272.972 307.973 267.654 313.366 265.891C319.265 263.963 325.618 266.96 331.254 274.329C332.41 275.86 333.438 277.484 334.328 279.184L347.362 274.765C346.824 272.43 346.53 270.045 346.486 267.649C346.409 260.494 349.146 254.313 353.631 251.517C357.191 249.298 361.553 249.287 365.916 251.483C370.846 253.966 374.892 258.195 378.167 264.322L389.033 260.638C392.727 244.576 395.972 217.28 391.921 198.564C391.232 198.706 390.546 198.864 389.864 199.038C369.485 204.238 352.09 223.838 340.884 254.23C340.601 254.996 340.091 255.658 339.422 256.127C338.754 256.597 337.958 256.85 337.141 256.855C336.324 256.86 335.525 256.616 334.851 256.154C334.176 255.693 333.659 255.037 333.367 254.274C331.993 250.681 326.524 239.636 317.688 229.233C313.73 237.891 311.146 247.114 310.03 256.569C309.924 257.506 309.493 258.376 308.81 259.026C308.128 259.676 307.238 260.065 306.297 260.126C305.394 260.181 304.489 260.202 303.584 260.187C294.808 260.063 281.557 257.064 268.166 250.479C267.757 263.242 269.564 276.649 273.387 286.807C273.734 287.731 273.729 288.752 273.371 289.673C273.014 290.593 272.329 291.35 271.448 291.797C269.624 292.724 267.395 292.132 266.273 290.422C256.375 275.342 240.292 259.878 223.251 249.055C218.377 245.935 213.282 243.175 208.006 240.796C203.41 244.197 198.509 247.166 193.367 249.666C176.736 257.801 158.506 256.254 153.559 246.287C152.849 244.93 152.469 243.425 152.449 241.893C152.429 240.361 152.77 238.847 153.444 237.471C156.104 231.894 163.683 228.429 169.366 227.157C177.753 225.279 190.279 225.029 206.817 231.543C214.697 224.976 221.167 216.884 225.84 207.752C217.503 187.858 217.514 164.675 218.374 151.899C219.47 135.618 223.398 116.153 228.518 112.15C230.392 110.566 233.15 110.618 234.963 112.271C238.187 115.177 241.055 126.387 242.532 135.103C244.945 149.254 245.202 163.689 243.296 177.917C241.905 188.257 239 198.337 234.676 207.833C235.048 208.604 235.436 209.367 235.839 210.122C241.972 221.604 251.274 230.615 261.338 237.299C263.395 224.399 267.948 213.174 275.258 207.156C280.951 202.469 290.79 198.765 305.331 207.734C309.031 210.039 312.508 212.683 315.72 215.629C324.735 200.135 336.825 187.572 348.317 179.83C360.204 171.823 371.552 168.756 380.27 171.196C388.392 173.468 394.242 179.682 397.774 189.746C407.028 189.251 416.034 191.324 423.361 195.672C427.949 172.654 434.432 150.055 442.745 128.105L432.85 124.015C412.571 137.542 341.226 180.913 296.617 188.205C285.562 190.012 276.167 189.36 268.694 186.268C261.701 183.374 256.739 178.321 254.723 172.04C251.021 160.507 257.578 147.654 270.792 139.849C271.434 130.24 279.048 118.982 299.112 112.7C316.803 107.162 340.762 104.257 370.325 104.066C377.13 104.022 383.466 104.135 388.972 104.313L359.547 90.3297C351.793 92.3368 314.193 101.646 273.042 104.635C245.87 106.609 222.434 105.488 203.385 101.304C195.512 99.6394 187.836 97.1482 180.486 93.8715L172.996 107.292C172.727 107.775 172.361 108.197 171.921 108.532C171.481 108.867 170.976 109.107 170.439 109.237C169.901 109.368 169.343 109.386 168.798 109.291C168.254 109.195 167.735 108.988 167.274 108.683L118.202 76.1869C119.955 89.4081 124.434 103.17 131.102 115.934C133.693 116.862 136.262 117.851 138.806 118.9C160.949 128.043 190.084 145.561 203.133 177.099C203.424 177.804 203.509 178.577 203.376 179.329C203.244 180.08 202.9 180.779 202.385 181.342C201.87 181.905 201.204 182.309 200.468 182.508C199.731 182.706 198.952 182.691 198.224 182.463C171.023 173.953 148.078 156.802 131.87 132.866C129.595 129.503 127.473 126.039 125.512 122.485C101.486 114.343 74.3466 110.953 49.4629 113.133C33.7211 114.513 18.712 118.277 9.19439 123.144C12.9072 131.913 20.6222 140.288 31.6294 147.736C29.7085 141.836 29.0844 136.39 29.8487 131.677C29.9637 130.969 30.2663 130.304 30.7251 129.753C31.184 129.201 31.7823 128.783 32.4577 128.541C44.555 124.21 68.4753 125.891 90.6277 132.628C128.302 144.087 143.657 163.753 149.457 174.455C149.744 174.985 149.908 175.572 149.937 176.174C149.967 176.775 149.86 177.375 149.625 177.93C149.391 178.485 149.034 178.98 148.583 179.378C148.131 179.776 147.595 180.067 147.015 180.23C128.014 185.578 95.0975 182.444 65.1074 172.43C60.4842 170.887 56.0117 169.205 51.7275 167.404C60.3068 178.265 70.642 187.615 82.3054 195.068C87.5429 198.442 93.0391 201.397 98.7426 203.905C99.6937 203.242 100.668 202.613 101.664 202.019C122.037 189.849 164.503 186.933 192.538 195.78C193.26 196.007 193.902 196.434 194.391 197.011C194.881 197.588 195.197 198.291 195.304 199.04C195.411 199.789 195.304 200.553 194.995 201.244C194.687 201.934 194.189 202.524 193.56 202.944C175.675 214.892 156.532 220.789 136.596 220.507C134.998 220.484 133.401 220.422 131.806 220.321C120.908 219.571 110.19 217.143 100.033 213.123C96.5829 216.27 93.7172 220.41 93.417 225.588C92.8897 234.679 100.142 245.259 114.388 256.185C115.833 257.293 117.251 258.384 118.642 259.459C120.726 258.453 122.909 257.667 125.155 257.113C142.254 252.859 161.93 259.258 185.208 276.673C194.616 270.521 207.298 270.859 220.944 277.633C243.064 288.614 273.474 316.682 285.886 334.442C286.366 335.129 286.619 335.949 286.609 336.787C286.599 337.625 286.327 338.44 285.831 339.115C285.335 339.791 284.64 340.294 283.843 340.555C283.047 340.816 282.188 340.821 281.389 340.569C272.18 337.745 262.694 335.92 253.095 335.126C254.959 342.949 251.657 351.093 244.871 355.411C238.084 359.728 229.306 359.27 223.006 354.269L201.724 337.586C186.281 340.305 174.535 344.241 167.427 347.916L253.231 373.775C253.27 373.787 253.309 373.799 253.348 373.812C255.315 374.471 257.034 375.715 258.273 377.379C259.513 379.043 260.214 381.046 260.282 383.119C260.35 385.193 259.782 387.237 258.655 388.979C257.528 390.72 255.895 392.075 253.975 392.862L228.918 404.856ZM181.791 427.415L186.195 448.31C186.363 449.119 186.827 449.838 187.496 450.324C188.164 450.811 188.99 451.031 189.813 450.942C190.555 450.83 191.242 450.482 191.772 449.95C192.301 449.417 192.646 448.729 192.755 447.986L197.489 419.9L181.791 427.415ZM159.373 371.513C158.712 371.501 158.065 371.706 157.531 372.096C156.997 372.486 156.606 373.04 156.416 373.673L138.62 431.738C138.411 432.359 138.354 433.022 138.452 433.67C138.551 434.318 138.803 434.933 139.187 435.464C139.73 436.18 140.504 436.685 141.378 436.895C142.252 437.105 143.171 437.006 143.98 436.615L172.634 422.899L162.356 374.139C162.241 373.499 161.935 372.907 161.477 372.444C161.02 371.981 160.432 371.669 159.792 371.547C159.653 371.527 159.513 371.515 159.373 371.513ZM102.088 389.012C93.8516 391.377 84.1922 394.688 82.0614 399.375C81.6379 400.307 81.2274 401.861 82.545 404.587C84.0474 407.696 95.1417 416.657 106.665 423.122C107.374 423.538 108.176 423.77 108.998 423.795C109.82 423.82 110.635 423.639 111.368 423.267C114.228 421.705 113.605 418.199 113.345 417.162C111.909 411.414 108.135 401.98 102.088 389.012ZM214.08 386.284L214.047 386.283C213.279 386.278 212.535 386.546 211.948 387.04C211.36 387.535 210.969 388.222 210.843 388.979L207.977 405.98L219.717 400.361L217.189 388.806C217.033 388.096 216.64 387.46 216.075 387.002C215.511 386.544 214.807 386.291 214.08 386.284ZM127.412 339.027C126.013 339.385 124.614 339.738 123.213 340.086C111.744 342.95 100.911 345.656 98.0178 351.934C96.3637 355.524 97.2391 360.78 100.62 367.557C102.595 371.513 104.541 375.484 106.456 379.469C108.299 378.959 110.017 378.47 111.476 377.996C124.168 373.877 131.689 368.549 133.831 362.162C136.08 355.456 132.576 347.295 127.412 339.027ZM212.664 335.961L227.979 347.966C229.11 348.867 230.409 349.533 231.801 349.925C233.193 350.317 234.649 350.427 236.083 350.249C237.518 350.071 238.903 349.608 240.157 348.887C241.41 348.167 242.507 347.203 243.383 346.053C244.612 344.428 245.36 342.492 245.544 340.464C245.728 338.435 245.339 336.396 244.422 334.577C233.816 334.209 223.198 334.671 212.664 335.961ZM118.101 269.223C114.943 271.695 112.591 275.05 111.342 278.86C106.107 294.799 117.109 310.262 126.816 323.904C127.783 325.264 128.734 326.6 129.651 327.912C130.072 328.515 130.498 329.13 130.929 329.757C141.673 326.632 150.977 322.361 152.923 313.276C155.409 301.675 144.213 289.756 118.101 269.223ZM185.461 287.009C180.186 293.023 178.252 301.964 181.322 308.694C183.093 312.578 186.093 315.132 189.543 317.836L203.893 329.085C204.87 328.93 205.849 328.781 206.829 328.639C216.393 327.26 226.039 326.522 235.701 326.431L185.461 287.009ZM248.7 326.757C256.533 327.2 264.321 328.226 272.001 329.826C257.938 313.672 234.6 293.374 217.373 284.822C205.446 278.901 197.307 279.68 192.107 282.02L246.38 324.606C247.213 325.257 247.989 325.976 248.7 326.757ZM336.831 318.325C339.218 319.858 341.725 321.194 344.328 322.319C352.302 325.695 358.73 325.54 363.436 321.861C367.734 318.501 370.941 313.478 373.073 307.751C368.208 304.733 363.736 301.123 359.762 297.001C355.634 292.749 352.287 287.802 349.875 282.389L337.47 286.594C340.74 296.386 341.563 308.103 337.758 316.501C337.476 317.122 337.167 317.731 336.831 318.325ZM285.027 304.373C292.167 312.323 306.37 320.87 320.472 319.92C321.803 319.846 323.116 319.577 324.37 319.124C322.254 317.35 320.617 315.796 319.58 314.763C313.23 308.443 309.399 302.32 307.136 296.878L285.027 304.373ZM314.798 294.28C317.328 299.819 320.871 304.837 325.244 309.074C326.84 310.659 328.514 312.163 330.259 313.582C330.323 313.451 330.384 313.32 330.444 313.188C333.331 306.816 332.56 297.196 329.882 289.167L314.798 294.28ZM357.5 279.804C359.528 284.111 362.256 288.051 365.574 291.465C368.519 294.526 371.783 297.263 375.31 299.63C376.962 290.869 376.463 281.555 373.863 274.42C373.846 274.372 373.828 274.323 373.81 274.275L357.5 279.804ZM316.967 273.356C316.592 273.349 316.218 273.405 315.861 273.521C313.426 274.317 312.354 277.894 312.163 280.976C312.054 282.854 312.157 284.739 312.47 286.594L326.607 281.801C326.084 280.901 325.506 280.034 324.876 279.204C323.459 277.351 320.074 273.4 316.967 273.356ZM214.877 235.119C219.23 237.275 223.463 239.665 227.557 242.28C240.01 250.263 251.335 259.881 261.229 270.878C260.061 262.706 259.759 254.434 260.327 246.199C248.784 239.233 237.775 229.45 230.143 216.386C225.98 223.331 220.839 229.64 214.877 235.119ZM359.569 257.865C358.971 257.841 358.381 258.003 357.879 258.329C355.821 259.612 354.469 263.322 354.515 267.561C354.542 269.11 354.707 270.653 355.009 272.173L370.44 266.941C368.116 262.959 365.424 260.223 362.304 258.652C361.463 258.186 360.528 257.917 359.569 257.865ZM268.808 241.779C281.174 248.455 293.8 251.827 302.518 252.148C304.12 242.004 307.251 232.161 311.803 222.956C308.548 219.788 304.965 216.976 301.115 214.565C292.565 209.292 285.777 208.895 280.362 213.353C274.051 218.548 270.27 229.371 268.807 241.779L268.808 241.779ZM180.728 234.05C177.5 233.987 174.275 234.302 171.12 234.99C166.271 236.076 161.787 238.628 160.691 240.926C160.543 241.204 160.471 241.516 160.482 241.831C160.492 242.146 160.585 242.452 160.751 242.72C162.997 247.244 176.2 249.128 189.838 242.456C192.982 240.923 196.031 239.205 198.97 237.31C193.085 235.323 186.937 234.225 180.728 234.05ZM321.574 221.493C327.449 228.014 332.549 235.193 336.774 242.887C342.714 229.162 349.943 217.856 358.326 209.2C367.201 200.035 377.144 194 387.878 191.261C388.453 191.115 389.029 190.978 389.608 190.852C387.147 184.775 383.444 180.419 378.106 178.926C371.785 177.157 362.562 179.913 352.803 186.487C341.706 193.963 330.008 206.293 321.574 221.493L321.574 221.493ZM108.245 207.553C116.032 210.16 124.12 211.759 132.313 212.311C149.235 213.382 165.607 209.624 181.099 201.13C156.965 196.237 125.339 198.854 108.245 207.553ZM231.483 123.082C229.563 128.841 227.165 139.421 226.312 153.576C225.702 163.702 225.687 180.894 230.497 196.948C231.702 193.531 232.717 190.05 233.538 186.521C237.644 168.97 236.785 152.226 235.341 141.269C234.592 135.105 233.301 129.019 231.483 123.082ZM43.3571 154.673C51.1786 158.682 59.3014 162.073 67.6514 164.817C93.5803 173.475 121.51 176.821 139.597 173.677C126.484 154.336 102.22 144.544 88.291 140.307C67.1135 133.866 47.5455 132.997 37.5616 135.394C37.4569 140.718 39.4804 147.428 43.3571 154.673ZM137.701 127.142C137.971 127.552 138.244 127.959 138.519 128.365C151.845 148.046 170.024 162.825 191.484 171.527C183.28 157.085 167.611 139.94 137.701 127.142ZM279.262 144.535C281.008 150.47 287.224 154.637 295.397 155.133C312.785 156.188 336.781 148.21 359.01 134.358C338.208 134.704 297.633 136.659 279.262 144.535ZM163.429 72.2718C167.442 76.6084 172.097 80.3035 177.232 83.2278L183.076 72.755L163.429 72.2718ZM296.533 67.5158L319.329 68.0764L301.673 57.6495L296.533 67.5158ZM258.844 66.5889L276.087 67.0131L270.895 29.7696L258.844 66.5889ZM226.516 65.794L240.504 66.138L235.987 37.777L226.516 65.794ZM196.566 65.0576L207.779 65.3335L205.05 49.854L196.566 65.0576Z" fill="#F5F5F5"/>
</g>
<defs>
<clipPath id="clip0_623_76331">
<rect width="452" height="464.571" fill="white" transform="translate(0 7.71436)"/>
</clipPath>
</defs>
</svg>
