<svg width="133" height="48" viewBox="0 0 133 48" fill="none" xmlns="http://www.w3.org/2000/svg">
<path d="M21.5491 47.3115C21.5491 47.3115 36.7082 33.8726 28.8398 1.10155C28.8398 1.10155 30.518 0.440619 33.5168 0C33.5443 0 46.8326 36.2134 21.5491 47.3115ZM22.7597 41.7762C24.2453 36.5989 25.0431 29.1359 25.1532 19.8279C25.2082 16.7435 25.1532 13.5766 25.0156 10.6575C21.8793 11.2358 17.5049 17.2668 15.469 25.9139C14.3685 30.623 14.1759 35.222 14.8912 38.8571C15.4965 41.8864 16.7345 43.9242 18.1927 44.2547C19.4857 44.5576 21.1364 43.6488 22.7597 41.7762ZM11.9475 24.8399C13.158 19.7177 15.2214 15.1187 17.725 11.8141C19.9534 8.895 22.402 7.24268 24.768 6.96729C24.658 5.31497 24.4929 3.80034 24.3278 2.50602C16.4044 4.90189 12.0575 7.76591 12.0575 7.76591C12.0575 7.76591 11.7549 14.0998 11.7824 17.7625C11.8099 20.3236 11.8649 22.6643 11.9475 24.8399ZM10.3793 44.0344C8.15081 41.5008 6.22498 37.8657 4.95943 33.7624C3.69388 29.6867 3.22617 25.5834 3.66636 22.2237C3.99651 19.6902 4.79435 17.7074 6.03239 16.4406C6.11493 14.5955 6.25249 12.8881 6.39005 11.4561L6.41756 11.0155C6.41756 11.0155 3.11613 13.1084 0.227372 15.7521C0.227372 15.7521 -0.047748 18.2306 0.00727588 21.1773C0.0622998 25.0051 0.585027 28.6953 1.54794 31.8347C2.70345 35.5249 4.40919 38.7469 6.66517 41.3907C10.0491 45.3562 13.5707 46.7882 14.4786 47.1187C13.1305 46.5955 11.7274 45.549 10.3793 44.0344Z" fill="#2D3CFF"/>
<path d="M21.5491 47.3115C21.5491 47.3115 36.7082 33.8726 28.8398 1.10155C28.8398 1.10155 30.518 0.440619 33.5168 0C33.5443 0 46.8326 36.2134 21.5491 47.3115ZM22.7597 41.7762C24.2453 36.5989 25.0431 29.1359 25.1532 19.8279C25.2082 16.7435 25.1532 13.5766 25.0156 10.6575C21.8793 11.2358 17.5049 17.2668 15.469 25.9139C14.3685 30.623 14.1759 35.222 14.8912 38.8571C15.4965 41.8864 16.7345 43.9242 18.1927 44.2547C19.4857 44.5576 21.1364 43.6488 22.7597 41.7762ZM11.9475 24.8399C13.158 19.7177 15.2214 15.1187 17.725 11.8141C19.9534 8.895 22.402 7.24268 24.768 6.96729C24.658 5.31497 24.4929 3.80034 24.3278 2.50602C16.4044 4.90189 12.0575 7.76591 12.0575 7.76591C12.0575 7.76591 11.7549 14.0998 11.7824 17.7625C11.8099 20.3236 11.8649 22.6643 11.9475 24.8399ZM10.3793 44.0344C8.15081 41.5008 6.22498 37.8657 4.95943 33.7624C3.69388 29.6867 3.22617 25.5834 3.66636 22.2237C3.99651 19.6902 4.79435 17.7074 6.03239 16.4406C6.11493 14.5955 6.25249 12.8881 6.39005 11.4561L6.41756 11.0155C6.41756 11.0155 3.11613 13.1084 0.227372 15.7521C0.227372 15.7521 -0.047748 18.2306 0.00727588 21.1773C0.0622998 25.0051 0.585027 28.6953 1.54794 31.8347C2.70345 35.5249 4.40919 38.7469 6.66517 41.3907C10.0491 45.3562 13.5707 46.7882 14.4786 47.1187C13.1305 46.5955 11.7274 45.549 10.3793 44.0344Z" fill="url(#paint0_linear_902_75271)"/>
<path d="M19.8983 45.9344C15.3588 45.3836 14.671 40.5368 14.4234 37.48C14.1208 33.7348 14.7261 28.0343 15.9641 24.0412C16.6519 21.5902 17.5323 19.3871 18.5227 17.5145C19.5131 15.5042 20.8337 13.3286 22.622 11.1806C25.1256 8.17886 28.5921 8.34409 30.6004 10.5747C30.5454 10.2167 30.5179 9.85872 30.4629 9.50072C29.4725 8.23394 28.2344 7.40778 26.8313 7.07731C23.8325 6.38885 20.6136 8.06871 17.7524 11.814C15.1662 15.1737 13.1028 19.8828 11.8923 25.0876C10.6818 30.2924 10.4617 35.4422 11.2871 39.573C12.2225 44.1995 14.3684 47.1461 17.3672 47.8346C17.7249 47.9172 18.11 47.9723 18.4677 47.9723C19.5131 47.9723 20.5036 47.7244 21.5765 47.2838C21.604 47.2563 22.3469 46.5953 23.4198 45.2184C22.2918 45.7967 21.1088 46.0996 19.8983 45.9344Z" fill="url(#paint1_radial_902_75271)"/>
<path d="M9.55367 16.3856C8.61827 17.0741 7.57281 18.5336 7.24267 21.0947C6.91253 23.6008 7.13262 26.6025 7.82042 29.7419C7.29769 27.1808 7.13262 24.7574 7.40774 22.692C7.68286 20.4889 8.45319 18.9192 9.3886 18.6163C9.49865 18.5887 9.63621 18.5612 9.80128 18.5612C10.379 18.5612 11.0668 18.8641 11.8372 19.4424V16.1102C10.9568 15.8899 10.1589 15.945 9.55367 16.3856Z" fill="#FF00D2"/>
<path d="M7.24314 21.1224C7.57328 18.5613 8.61874 17.0742 9.55414 16.4133C10.1869 15.9451 10.9848 15.9176 11.8376 16.1654C11.8376 15.8625 11.8376 15.532 11.8651 15.2291C10.6546 14.7885 9.4441 14.7059 8.28859 15.0639C5.81252 15.835 4.1618 18.3685 3.6941 22.2515C3.28142 25.6112 3.72161 29.6869 4.98716 33.7902C6.25271 37.8659 8.17855 41.5286 10.407 44.0346C11.7826 45.6043 13.2132 46.6508 14.6439 47.2015C14.8364 47.2842 15.029 47.3392 15.2491 47.3943C15.2766 47.3943 15.3317 47.4218 15.3592 47.4218C16.5147 47.8074 17.5326 48.0002 18.468 48.0002C18.1104 47.9726 17.7527 47.9451 17.395 47.8625C14.3962 47.174 12.2503 44.2274 11.3149 39.6009L11.1498 38.6095C10.1869 36.9847 9.30654 35.0019 8.59123 32.6611C8.28859 31.6973 8.04099 30.7059 7.8484 29.7695C7.10558 26.6301 6.913 23.6284 7.24314 21.1224Z" fill="url(#paint2_radial_902_75271)"/>
<path d="M30.6007 10.5748C28.5648 8.34417 25.1258 8.17894 22.6222 11.1807C20.8339 13.3287 19.5134 15.5042 18.5229 17.5146C20.6964 13.3011 23.365 10.7125 25.3734 10.6023C25.5935 10.6023 25.7861 10.6023 26.0062 10.6574C27.4643 10.9879 28.7024 13.0257 29.3076 16.055C30.0229 19.6901 29.8303 24.2891 28.7299 28.9982C27.987 32.2202 26.9141 35.0842 25.676 37.425C24.7681 39.1875 23.7777 40.6471 22.7873 41.7761L22.7323 41.8312C22.7323 41.8588 22.7048 41.8588 22.7048 41.8863L22.6772 41.9138L22.5672 42.024L22.5397 42.0515L22.5122 42.0791L22.4847 42.1066L22.4571 42.1341L22.4021 42.1892L22.3746 42.2168L22.3196 42.2718C22.2921 42.3269 22.2371 42.3545 22.2095 42.382C22.072 42.5197 21.9069 42.6574 21.7693 42.7951C20.4763 43.9517 19.2383 44.4749 18.2203 44.2546C16.7622 43.9242 15.5241 41.8863 14.9189 38.857C14.2036 35.2219 14.3961 30.623 15.4966 25.9139C15.6342 25.2805 15.7993 24.6471 15.9643 24.0412C14.7263 28.0343 14.121 33.7348 14.4237 37.4801C14.6713 40.5369 15.3316 45.3562 19.8985 45.9345C21.1366 46.0997 22.3196 45.7968 23.4201 45.2185C23.9703 44.5025 24.6031 43.5937 25.2909 42.4921V42.4646C25.3184 42.4371 25.3184 42.4095 25.3459 42.382C28.5923 36.9293 32.554 26.6849 30.6007 10.5748Z" fill="url(#paint3_linear_902_75271)"/>
<path d="M110.215 27.7058C111.368 27.7255 112.5 27.3911 113.458 26.7478L112.529 28.9882C111.665 29.2999 110.751 29.4502 109.832 29.4317C108.144 29.4317 106.77 28.9673 105.712 28.0407C105.16 27.5456 104.724 26.9338 104.437 26.2497C104.15 25.5655 104.019 24.8261 104.053 24.0849C104.029 23.3364 104.176 22.5924 104.482 21.9091C104.788 21.2258 105.245 20.6212 105.82 20.141C106.973 19.1655 108.448 18.6542 109.957 18.7066C110.909 18.696 111.855 18.8663 112.744 19.2085V21.1762C111.955 20.6895 111.037 20.4549 110.111 20.5036C109.649 20.4874 109.189 20.5695 108.761 20.7443C108.334 20.9191 107.948 21.1828 107.629 21.5178C106.985 22.2053 106.64 23.1205 106.67 24.0624C106.644 24.5467 106.715 25.0312 106.878 25.4879C107.041 25.9446 107.292 26.3645 107.619 26.7231C107.958 27.0606 108.365 27.3227 108.812 27.492C109.26 27.6614 109.738 27.7343 110.215 27.7058ZM67.7517 15.6332C67.1381 15.6414 66.5244 15.6129 65.9138 15.5478V8.28486C66.6479 8.21894 67.2645 8.23692 67.7622 8.23692C68.596 8.19637 69.4272 8.35881 70.1845 8.71033C70.4135 8.85724 70.5989 9.06298 70.7213 9.30608C70.8437 9.54918 70.8987 9.82072 70.8805 10.0924C70.8597 10.3397 70.7797 10.5783 70.6474 10.7882C70.5151 10.9981 70.3342 11.1731 70.1202 11.2983C70.0768 11.3246 70.0326 11.3508 69.9877 11.3755C69.9458 11.3957 69.9017 11.4129 69.8575 11.4279C70.1859 11.4989 70.497 11.6344 70.7727 11.8264C70.97 11.9757 71.1341 12.1645 71.2545 12.3808C71.3748 12.5971 71.4488 12.8361 71.4717 13.0826C71.4739 13.1373 71.4754 13.195 71.4754 13.2549C71.4754 14.2721 71.001 14.8144 70.1673 15.2115C69.4033 15.5294 68.5781 15.6739 67.7517 15.6332ZM67.4815 11.0601H67.9912C68.8241 11.0676 69.3711 10.768 69.3711 10.1628C69.3711 9.48411 68.7455 9.26389 67.9133 9.26389H67.4815V11.0601ZM67.4815 14.574C67.6088 14.5815 68.0099 14.5852 68.2172 14.5852C69.419 14.5852 69.9151 14.1156 69.9151 13.3418C69.9151 12.5193 69.2057 12.1088 68.1588 12.1088C67.9515 12.1088 67.6088 12.1126 67.4815 12.1193V14.574ZM121.19 24.9133C121.19 26.4983 120.377 27.4392 119.036 27.4392C117.695 27.4392 116.881 26.4699 116.881 24.8422V18.998H114.558V24.8991C114.558 27.8407 116.325 29.3403 119.007 29.3403C121.689 29.3403 123.513 27.8541 123.513 24.8272V18.998H121.19V24.9133ZM61.9491 15.789C62.9521 15.8087 63.9255 15.4486 64.6745 14.7807V11.9732H63.1045V14.2983C62.7678 14.4467 62.4033 14.5231 62.0344 14.5231C61.6965 14.5361 61.3596 14.4787 61.045 14.3545C60.7304 14.2303 60.4451 14.0421 60.207 13.8017C59.9685 13.5553 59.7814 13.2638 59.6568 12.9442C59.5322 12.6246 59.4724 12.2833 59.4811 11.9403C59.4723 11.596 59.5325 11.2534 59.6582 10.9328C59.7839 10.6122 59.9725 10.32 60.213 10.0736C60.4532 9.82767 60.7423 9.63486 61.0616 9.50765C61.3808 9.38043 61.7232 9.32163 62.0666 9.33505C62.7685 9.31911 63.4608 9.50079 64.0647 9.85939V8.577C63.3571 8.27251 62.5907 8.12972 61.8211 8.15902C60.758 8.10488 59.7167 8.4744 58.9251 9.18673C58.5668 9.5366 58.2843 9.95661 58.0953 10.4206C57.9063 10.8845 57.8148 11.3825 57.8265 11.8834C57.8265 13.1081 58.1857 13.9875 58.8944 14.6294C59.7328 15.3833 60.8221 15.7968 61.9491 15.789ZM74.0721 15.5193H75.6818V12.6774L78.4566 8.35153H76.6307L74.8766 11.1695L73.1225 8.35153H71.2966L74.0714 12.6774V15.5186L74.0721 15.5193ZM132.629 22.3013C132.646 22.7211 132.568 23.1392 132.4 23.5242C132.232 23.9091 131.979 24.2509 131.66 24.5238C131.013 25.0658 130.188 25.3478 129.345 25.3148C128.758 25.3311 128.178 25.1838 127.67 24.8894V29.201H125.327V18.9792C126.238 18.8916 127.153 18.8519 128.068 18.8594C130.125 18.8594 131.508 19.4781 132.218 20.7156C132.491 21.199 132.633 21.7458 132.629 22.3013ZM130.243 22.2264C130.257 21.9709 130.21 21.7156 130.107 21.4815C130.004 21.2475 129.846 21.0412 129.648 20.8796C129.241 20.5794 128.742 20.4291 128.237 20.4541C128.042 20.4541 127.853 20.4676 127.67 20.4691V24.192C127.797 24.2115 127.924 24.2204 128.051 24.2197C129.519 24.2197 130.243 23.5538 130.243 22.2264ZM89.3943 27.3852C88.2816 27.6239 87.1441 27.7271 86.0066 27.6924C85.6109 27.6978 85.2152 27.6818 84.8212 27.6444V18.9972H82.4797V29.1987H88.6639L89.3943 27.3852ZM78.2965 19.5111C78.8266 19.8153 79.246 20.2806 79.494 20.8396C79.742 21.3986 79.8056 22.0221 79.6757 22.6197C79.5891 23.0163 79.4195 23.3901 79.178 23.7163C78.7767 24.2039 78.2064 24.5219 77.5811 24.607L81.1858 29.1987H78.3115L74.828 24.5395V29.1987H72.4834V18.9965C73.3168 18.8921 74.1565 18.8461 74.9963 18.8586C76.478 18.8586 77.5781 19.0766 78.2965 19.5111ZM77.2937 22.0204C77.2937 20.9777 76.6344 20.4564 75.3151 20.4556C75.1526 20.4553 74.9901 20.4613 74.828 20.4736V23.5807C74.9806 23.589 75.1408 23.5942 75.3151 23.5942C76.6329 23.5942 77.2922 23.0699 77.2937 22.0204ZM53.5633 15.7882C55.491 15.7882 56.8035 14.7201 56.8035 12.5433V8.35228H55.1318V12.6062C55.1318 13.7463 54.5473 14.4227 53.5827 14.4227C52.6189 14.4227 52.0337 13.7253 52.0337 12.5553V8.35303H50.3626V12.5957C50.3626 14.7111 51.634 15.789 53.5625 15.789L53.5633 15.7882ZM61.0002 20.168C62.0539 19.1927 63.4495 18.7058 65.1857 18.7073C66.9181 18.7073 68.3122 19.1942 69.3674 20.168C69.9152 20.6617 70.3488 21.269 70.6379 21.9477C70.9271 22.6264 71.0647 23.3601 71.0414 24.0976C71.0637 24.8369 70.9257 25.5723 70.6366 26.253C70.3476 26.9337 69.9146 27.5436 69.3674 28.0407C68.3137 29.0055 66.9203 29.4879 65.1857 29.4879C63.451 29.4879 62.0561 29.0055 61.0002 28.0414C60.4527 27.5445 60.0195 26.9345 59.7305 26.2536C59.4416 25.5727 59.3039 24.837 59.3269 24.0976C59.3029 23.36 59.4402 22.6261 59.7293 21.9472C60.0183 21.2683 60.4521 20.6608 61.0002 20.1673V20.168ZM61.9746 24.1111C61.9342 25.0345 62.2254 25.942 62.7955 26.6691C63.0805 27.0253 63.4455 27.3091 63.8609 27.4972C64.2763 27.6853 64.7302 27.7724 65.1857 27.7515C65.6426 27.7708 66.0977 27.683 66.5148 27.4951C66.9318 27.3072 67.2993 27.0243 67.5878 26.6691C68.1461 25.9365 68.4312 25.0317 68.3938 24.1111C68.431 23.191 68.1463 22.2868 67.5886 21.5545C67.2887 21.2134 66.9194 20.9404 66.5055 20.7538C66.0916 20.5673 65.6426 20.4715 65.1886 20.4729C64.7347 20.4744 64.2863 20.5729 63.8735 20.7621C63.4608 20.9512 63.0932 21.2265 62.7955 21.5695C62.233 22.2943 61.9424 23.1938 61.9746 24.1111ZM99.9511 24.0976C99.9773 24.8426 99.8238 25.583 99.5037 26.256C99.1835 26.9291 98.706 27.515 98.1117 27.9643C96.9637 28.8691 95.366 29.3208 93.3186 29.3201C92.387 29.3335 91.4559 29.2726 90.534 29.138V19.0407C91.4563 18.9098 92.3872 18.8492 93.3186 18.8594C95.3668 18.8594 96.9645 19.3103 98.1117 20.213C98.705 20.6672 99.1814 21.2567 99.5013 21.9323C99.8212 22.608 99.9754 23.3503 99.9511 24.0976ZM97.3798 24.1036C97.3798 22.9036 97.0401 21.9935 96.3613 21.3732C95.7118 20.7837 94.7838 20.4894 93.5783 20.4894C93.3642 20.4894 93.1315 20.4983 92.8786 20.5186V27.6601C93.1315 27.6811 93.3642 27.6916 93.5783 27.6916C96.1121 27.6916 97.3798 26.4961 97.3798 24.1036ZM51.3422 22.8804L52.8935 27.4616C53.0095 27.8339 53.1779 28.1882 53.3941 28.5126C53.659 28.8002 53.9853 29.0249 54.3498 29.168C54.896 29.3613 55.3129 29.5036 55.595 29.595L59.1705 18.9972H56.939L54.7681 26.0002L52.324 18.9972H50.6649L48.3728 25.9792L45.9452 18.998H43.4248L46.4062 27.3575C46.5079 27.7088 46.6501 28.0467 46.8305 28.3658C47.0954 28.7216 47.4516 28.998 47.8632 29.165C48.042 29.2459 48.4581 29.3875 49.1047 29.592L51.3422 22.8804ZM45.3667 15.5186H43.7204V8.35078C44.324 8.2789 44.9318 8.24712 45.5396 8.25565C46.3511 8.20402 47.1623 8.36187 47.8954 8.71407C48.2674 8.88536 48.5733 9.17376 48.7664 9.53529C48.9594 9.89683 49.0291 10.3116 48.9646 10.7165C48.9002 11.1213 48.7052 11.4939 48.4095 11.7775C48.1137 12.0611 47.7335 12.24 47.3266 12.2871L49.9855 15.5186H47.965L45.366 12.2459V15.5193L45.3667 15.5186ZM45.3667 11.5553C45.4986 11.5744 45.6317 11.5834 45.7648 11.5822C46.6905 11.5822 47.3513 11.1807 47.3513 10.4347C47.3513 9.64816 46.6905 9.37849 45.7648 9.37849C45.6316 9.37849 45.4984 9.38598 45.3667 9.40246V11.5553ZM72.4542 36.2571C72.436 35.9308 72.4854 35.6043 72.5992 35.298C72.713 34.9917 72.8888 34.7123 73.1157 34.4772C73.3425 34.2421 73.6154 34.0565 73.9173 33.932C74.2191 33.8076 74.5435 33.7469 74.8699 33.7538C75.5203 33.7134 76.167 33.8782 76.719 34.2249V32.8444C76.0978 32.5947 75.4321 32.4747 74.7629 32.4916C72.5291 32.4916 70.6163 33.9036 70.6163 36.2676C70.6163 38.6744 72.3794 40.0227 74.6775 40.0227C75.3216 40.0328 75.9622 39.9278 76.5693 39.7126L77.2211 38.1395C76.5553 38.605 75.7564 38.8416 74.9447 38.8137C73.3732 38.8137 72.4542 37.8077 72.4542 36.2571ZM79.8126 38.7605V36.5673H82.0464V35.4983H79.8126V33.753C80.0588 33.7425 80.3155 33.7425 80.5722 33.7425C81.1664 33.7186 81.762 33.765 82.3457 33.8811V32.6826H78.167V39.8511H82.5919L83.1367 38.5133C82.3429 38.7074 81.5278 38.801 80.7106 38.792C80.4113 38.792 80.112 38.7807 79.8126 38.7598V38.7605ZM110.788 35.7755C111.09 35.6748 111.35 35.4782 111.53 35.2155C111.709 34.9528 111.798 34.6386 111.782 34.3208C111.782 32.9725 110.457 32.4811 109.314 32.4811C108.745 32.4807 108.181 32.5782 107.646 32.7695L107.433 34.0856C107.93 33.8469 108.474 33.7226 109.025 33.7216C109.548 33.7216 110.158 33.8714 110.158 34.5133C110.158 35.3478 109.164 35.3478 108.565 35.3478C108.416 35.3478 108.267 35.3478 108.117 35.3373V36.5882C108.418 36.5494 108.722 36.5319 109.025 36.5358C109.709 36.5358 110.596 36.7276 110.596 37.5837C110.596 38.5785 109.592 38.8242 108.79 38.8242C108.121 38.8235 107.456 38.7302 106.813 38.547L107.411 39.9156C107.854 40.0106 108.306 40.0573 108.758 40.0549C110.307 40.0549 112.306 39.4452 112.306 37.562C112.306 36.5463 111.74 36.0114 110.788 35.7755ZM68.0533 37.0384L64.4403 32.6841H62.9122V39.8511H64.355V35.1335L67.5616 38.9957C68.1378 39.7021 68.6407 39.8834 69.4961 40.0871V32.6841H68.0533V37.0384ZM88.7111 38.75C89.5979 37.7223 91.3078 35.8182 91.3078 34.4174C91.3078 33.0369 90.079 32.4699 88.8712 32.4699C88.1763 32.4671 87.4896 32.6207 86.862 32.9193L86.6053 34.3208C87.1674 33.9302 87.8338 33.7178 88.518 33.7111C89.0845 33.7111 89.651 33.9568 89.651 34.61C89.6388 34.8922 89.5581 35.1673 89.416 35.4115C89.1269 35.9241 88.7944 36.4111 88.4222 36.8669C87.6423 37.9147 86.7962 38.9115 85.8891 39.8511H91.4575L91.9065 38.6107C91.2556 38.7404 90.5929 38.8012 89.9294 38.792C89.523 38.792 89.1167 38.771 88.7111 38.75ZM99.7887 36.2571C99.7887 38.3965 98.3242 40.0549 96.1443 40.0549C93.9532 40.0549 92.4887 38.3965 92.4887 36.2571C92.4887 34.1178 93.9532 32.4594 96.1443 32.4594C98.3242 32.4594 99.7887 34.1178 99.7887 36.2571ZM97.9396 36.2571C97.9396 35.1335 97.4906 33.7216 96.1443 33.7216C94.8078 33.7216 94.3378 35.1448 94.3378 36.2571C94.3378 37.3807 94.7868 38.7815 96.1443 38.7815C97.4906 38.7815 97.9396 37.3807 97.9396 36.2571ZM43.7047 39.8504H45.3607V36.5665H47.4022V35.4983H45.3607V33.753C45.5643 33.7425 45.7776 33.7425 45.9811 33.7425C46.5753 33.7291 47.1695 33.7755 47.7547 33.8811V32.6826H43.7047V39.8504ZM102.805 38.7493C103.692 37.7216 105.402 35.8174 105.402 34.4167C105.402 33.0362 104.172 32.4691 102.965 32.4691C102.27 32.4663 101.584 32.6199 100.956 32.9186L100.699 34.3201C101.262 33.9295 101.928 33.717 102.612 33.7103C103.179 33.7103 103.745 33.956 103.745 34.6092C103.733 34.8915 103.652 35.1666 103.51 35.4107C103.221 35.9234 102.889 36.4103 102.516 36.8661C101.736 37.9139 100.89 38.9107 99.9833 39.8504H105.552L106 38.61C105.349 38.7399 104.686 38.8007 104.023 38.7912C103.617 38.7912 103.211 38.7702 102.805 38.7493ZM59.1174 32.6729L62.1107 39.8504H60.2826L59.4923 37.8287H56.948L56.1682 39.8511H52.8643L50.4173 36.5777V39.8511H48.7709V32.6729C49.3557 32.598 49.9452 32.5657 50.5347 32.5762C51.2719 32.5762 52.2125 32.6407 52.8538 33.0362C53.1557 33.2102 53.4077 33.459 53.5856 33.7588C53.7634 34.0586 53.8612 34.3992 53.8693 34.7478C53.901 35.1944 53.7619 35.6364 53.4801 35.9842C53.1983 36.3319 52.7949 36.5594 52.3517 36.6204L54.6753 39.5837L57.5257 32.6729H59.1174ZM52.1482 34.8017C52.1482 33.9882 51.4746 33.6998 50.7592 33.6998C50.6418 33.6998 50.5347 33.6998 50.4173 33.7103V35.9036C50.5347 35.9036 50.6418 35.9141 50.7592 35.9141C51.4754 35.9141 52.1482 35.6249 52.1482 34.8017ZM59.0328 36.6736L58.1984 34.5658L57.3865 36.6736H59.0328Z" fill="#2D3CFF"/>
<defs>
<linearGradient id="paint0_linear_902_75271" x1="14.6323" y1="4.86471" x2="25.7847" y2="46.1574" gradientUnits="userSpaceOnUse">
<stop stop-color="#2D3CFF" stop-opacity="0"/>
<stop offset="1" stop-color="#19194B" stop-opacity="0.55"/>
</linearGradient>
<radialGradient id="paint1_radial_902_75271" cx="0" cy="0" r="1" gradientUnits="userSpaceOnUse" gradientTransform="translate(19.6166 9.64605) rotate(-43.7272) scale(4.68983 2.32627)">
<stop stop-color="#FF8366"/>
<stop offset="1" stop-color="#FF3000"/>
</radialGradient>
<radialGradient id="paint2_radial_902_75271" cx="0" cy="0" r="1" gradientUnits="userSpaceOnUse" gradientTransform="translate(4.59863 18.4439) rotate(115.68) scale(4.0443 2.22692)">
<stop stop-color="#FF8366"/>
<stop offset="1" stop-color="#FF3000"/>
</radialGradient>
<linearGradient id="paint3_linear_902_75271" x1="22.732" y1="45.9824" x2="22.732" y2="8.91587" gradientUnits="userSpaceOnUse">
<stop stop-color="#DC0A0A"/>
<stop offset="1" stop-color="#FF00D2"/>
</linearGradient>
</defs>
</svg>
