<svg width="40" height="52" viewBox="0 0 40 52" fill="none" xmlns="http://www.w3.org/2000/svg">
<path d="M23.2768 51.1472C23.2768 51.1472 39.6512 36.6188 31.1519 1.19086C31.1519 1.19086 32.9647 0.476342 36.2039 0C36.2336 0 50.5872 39.1494 23.2768 51.1472ZM24.5843 45.1632C26.1891 39.5662 27.0509 31.4981 27.1698 21.4354C27.2292 18.101 27.1698 14.6773 27.0212 11.5215C23.6334 12.1467 18.9083 18.6667 16.7092 28.0149C15.5205 33.1058 15.3124 38.0776 16.0851 42.0074C16.7389 45.2823 18.0762 47.4854 19.6512 47.8426C21.0479 48.1701 22.831 47.1876 24.5843 45.1632ZM12.9053 26.8538C14.2129 21.3163 16.4417 16.3445 19.146 12.7719C21.5531 9.61616 24.198 7.82987 26.7537 7.53216C26.6348 5.74588 26.4565 4.10845 26.2782 2.7092C17.7196 5.29931 13.0242 8.39553 13.0242 8.39553C13.0242 8.39553 12.6973 15.2429 12.727 19.2025C12.7567 21.9713 12.8162 24.5018 12.9053 26.8538ZM11.2114 47.6044C8.80427 44.8655 6.72404 40.9356 5.35703 36.4997C3.99002 32.0935 3.48482 27.6576 3.9603 24.0255C4.31691 21.2865 5.17872 19.143 6.51602 17.7735C6.60517 15.7788 6.75376 13.933 6.90235 12.3849L6.93206 11.9086C6.93206 11.9086 3.36595 14.1712 0.2456 17.0292C0.2456 17.0292 -0.051576 19.7087 0.0078592 22.8942C0.0672944 27.0324 0.631929 31.0218 1.67205 34.4157C2.92019 38.4051 4.76268 41.8883 7.19952 44.7464C10.8548 49.0335 14.6586 50.5816 15.6393 50.9388C14.1832 50.3732 12.6676 49.2419 11.2114 47.6044Z" fill="#2D3CFF"/>
<path d="M23.2768 51.1472C23.2768 51.1472 39.6512 36.6188 31.1519 1.19086C31.1519 1.19086 32.9647 0.476342 36.2039 0C36.2336 0 50.5872 39.1494 23.2768 51.1472ZM24.5843 45.1632C26.1891 39.5662 27.0509 31.4981 27.1698 21.4354C27.2292 18.101 27.1698 14.6773 27.0212 11.5215C23.6334 12.1467 18.9083 18.6667 16.7092 28.0149C15.5205 33.1058 15.3124 38.0776 16.0851 42.0074C16.7389 45.2823 18.0762 47.4854 19.6512 47.8426C21.0479 48.1701 22.831 47.1876 24.5843 45.1632ZM12.9053 26.8538C14.2129 21.3163 16.4417 16.3445 19.146 12.7719C21.5531 9.61616 24.198 7.82987 26.7537 7.53216C26.6348 5.74588 26.4565 4.10845 26.2782 2.7092C17.7196 5.29931 13.0242 8.39553 13.0242 8.39553C13.0242 8.39553 12.6973 15.2429 12.727 19.2025C12.7567 21.9713 12.8162 24.5018 12.9053 26.8538ZM11.2114 47.6044C8.80427 44.8655 6.72404 40.9356 5.35703 36.4997C3.99002 32.0935 3.48482 27.6576 3.9603 24.0255C4.31691 21.2865 5.17872 19.143 6.51602 17.7735C6.60517 15.7788 6.75376 13.933 6.90235 12.3849L6.93206 11.9086C6.93206 11.9086 3.36595 14.1712 0.2456 17.0292C0.2456 17.0292 -0.051576 19.7087 0.0078592 22.8942C0.0672944 27.0324 0.631929 31.0218 1.67205 34.4157C2.92019 38.4051 4.76268 41.8883 7.19952 44.7464C10.8548 49.0335 14.6586 50.5816 15.6393 50.9388C14.1832 50.3732 12.6676 49.2419 11.2114 47.6044Z" fill="url(#paint0_linear_849_72805)"/>
<path d="M21.4934 49.659C16.59 49.0636 15.847 43.8238 15.5796 40.5192C15.2527 36.4703 15.9065 30.3076 17.2437 25.9907C17.9867 23.3411 18.9376 20.9594 20.0075 18.9349C21.0773 16.7616 22.5038 14.4097 24.4354 12.0875C27.1397 8.84243 30.8841 9.02106 33.0535 11.4325C32.9941 11.0455 32.9644 10.6585 32.9049 10.2715C31.8351 8.90197 30.4978 8.00883 28.9822 7.65157C25.743 6.90729 22.266 8.72334 19.1754 12.7723C16.3819 16.4044 14.1531 21.4953 12.8455 27.1221C11.538 32.7488 11.3002 38.3161 12.1917 42.7818C13.2021 47.7834 15.5201 50.9689 18.7593 51.7132C19.1457 51.8025 19.5617 51.8621 19.948 51.8621C21.0773 51.8621 22.1472 51.5941 23.3061 51.1178C23.3359 51.088 24.1382 50.3735 25.2972 48.8849C24.0788 49.5101 22.8009 49.8376 21.4934 49.659Z" fill="url(#paint1_radial_849_72805)"/>
<path d="M10.3194 17.7141C9.309 18.4583 8.17974 20.0362 7.82312 22.805C7.46651 25.5142 7.70425 28.7592 8.44719 32.1532C7.88256 29.3844 7.70425 26.7646 8.00143 24.5317C8.29861 22.15 9.1307 20.453 10.1411 20.1255C10.26 20.0958 10.4086 20.066 10.5869 20.066C11.2109 20.066 11.9539 20.3935 12.786 21.0187V17.4163C11.835 17.1782 10.9732 17.2377 10.3194 17.7141Z" fill="#FF00D2"/>
<path d="M7.82389 22.8349C8.1805 20.0661 9.30977 18.4585 10.3202 17.744C11.0037 17.2379 11.8655 17.2081 12.7867 17.476C12.7867 17.1485 12.7867 16.7913 12.8165 16.4638C11.5089 15.9875 10.2013 15.8981 8.95316 16.2852C6.27857 17.1188 4.49552 19.8577 3.99032 24.0555C3.54455 27.6876 4.02004 32.0938 5.38705 36.5297C6.75406 40.9359 8.83429 44.8955 11.2414 47.6047C12.7273 49.3016 14.2726 50.4329 15.8179 51.0284C16.026 51.1177 16.234 51.1772 16.4717 51.2368C16.5014 51.2368 16.5609 51.2665 16.5906 51.2665C17.8387 51.6833 18.9383 51.8917 19.9487 51.8917C19.5624 51.862 19.176 51.8322 18.7897 51.7429C15.5505 50.9986 13.2325 47.8131 12.2221 42.8115L12.0438 41.7397C11.0037 39.9832 10.0527 37.8397 9.28005 35.3091C8.95316 34.2671 8.6857 33.1953 8.47768 32.1831C7.6753 28.7892 7.46728 25.5441 7.82389 22.8349Z" fill="url(#paint2_radial_849_72805)"/>
<path d="M33.0542 11.4323C30.8551 9.02078 27.1404 8.84215 24.4361 12.0872C22.5044 14.4094 21.078 16.7613 20.0081 18.9347C22.3558 14.3796 25.2384 11.5811 27.4078 11.462C27.6456 11.462 27.8536 11.462 28.0913 11.5216C29.6664 11.8788 31.0037 14.0819 31.6575 17.3568C32.4301 21.2866 32.2221 26.2584 31.0334 31.3493C30.231 34.8326 29.072 37.9288 27.7347 40.4594C26.754 42.3647 25.6842 43.9426 24.6144 45.1632L24.5549 45.2228C24.5549 45.2526 24.5252 45.2526 24.5252 45.2823L24.4955 45.3121L24.3766 45.4312L24.3469 45.461L24.3172 45.4907L24.2875 45.5205L24.2578 45.5503L24.1983 45.6098L24.1686 45.6396L24.1092 45.6991C24.0795 45.7587 24.02 45.7884 23.9903 45.8182C23.8417 45.9671 23.6634 46.1159 23.5148 46.2648C22.1181 47.5152 20.7808 48.0808 19.6813 47.8427C18.1062 47.4854 16.7689 45.2823 16.1151 42.0075C15.3425 38.0777 15.5505 33.1058 16.7392 28.0149C16.8878 27.3302 17.0661 26.6454 17.2444 25.9905C15.9071 30.3073 15.2533 36.47 15.5802 40.5189C15.8477 43.8235 16.5609 49.0335 21.494 49.6587C22.8313 49.8373 24.1092 49.5099 25.2979 48.8847C25.8922 48.1106 26.5757 47.1281 27.3187 45.9373V45.9075C27.3484 45.8778 27.3484 45.848 27.3781 45.8182C30.8848 39.9235 35.1641 28.8485 33.0542 11.4323Z" fill="url(#paint3_linear_849_72805)"/>
<defs>
<linearGradient id="paint0_linear_849_72805" x1="15.8054" y1="5.25911" x2="27.8707" y2="49.8945" gradientUnits="userSpaceOnUse">
<stop stop-color="#2D3CFF" stop-opacity="0"/>
<stop offset="1" stop-color="#19194B" stop-opacity="0.55"/>
</linearGradient>
<radialGradient id="paint1_radial_849_72805" cx="0" cy="0" r="1" gradientUnits="userSpaceOnUse" gradientTransform="translate(21.189 10.4286) rotate(-43.7512) scale(5.06784 2.51387)">
<stop stop-color="#FF8366"/>
<stop offset="1" stop-color="#FF3000"/>
</radialGradient>
<radialGradient id="paint2_radial_849_72805" cx="0" cy="0" r="1" gradientUnits="userSpaceOnUse" gradientTransform="translate(4.96737 19.9392) rotate(115.661) scale(4.3715 2.40583)">
<stop stop-color="#FF8366"/>
<stop offset="1" stop-color="#FF3000"/>
</radialGradient>
<linearGradient id="paint3_linear_849_72805" x1="24.5546" y1="49.7105" x2="24.5546" y2="9.63884" gradientUnits="userSpaceOnUse">
<stop stop-color="#DC0A0A"/>
<stop offset="1" stop-color="#FF00D2"/>
</linearGradient>
</defs>
</svg>
