<svg width="30" height="30" viewBox="0 0 30 30" fill="none" xmlns="http://www.w3.org/2000/svg">
    <g clip-path="url(#clip0_530_6162)">
        <path d="M0 0H30V30H0V0Z" fill="#74ACDF"/>
        <path d="M0 10.002H30V19.998H0V10.002Z" fill="white"/>
        <path d="M14.8081 15.0779L16.5181 18.7979C16.5181 18.7979 16.5481 18.8699 16.5961 18.8519C16.6441 18.8279 16.6141 18.7619 16.6141 18.7619L15.1921 14.9219M15.1501 16.3679C15.1261 16.9319 15.4741 17.2439 15.4321 17.7479C15.3841 18.2579 15.6601 18.5399 15.7321 18.7379C15.7921 18.9359 15.6541 19.0499 15.7141 19.0799C15.7741 19.1099 15.8941 18.9539 15.8581 18.6719C15.8161 18.3959 15.6061 18.3119 15.6541 17.6939C15.7021 17.0759 15.4021 16.9319 15.4741 16.3739" fill="#F6B40E"/>
        <path d="M14.8081 15.0779L16.5181 18.7979C16.5181 18.7979 16.5481 18.8699 16.5961 18.8519C16.6441 18.8279 16.6141 18.7619 16.6141 18.7619L15.1921 14.9219M15.1501 16.3679C15.1261 16.9319 15.4741 17.2439 15.4321 17.7479C15.3841 18.2579 15.6601 18.5399 15.7321 18.7379C15.7921 18.9359 15.6541 19.0499 15.7141 19.0799C15.7741 19.1099 15.8941 18.9539 15.8581 18.6719C15.8161 18.3959 15.6061 18.3119 15.6541 17.6939C15.7021 17.0759 15.4021 16.9319 15.4741 16.3739" stroke="#85340A" stroke-width="0.1408"/>
        <path d="M14.7928 14.9986L14.9491 19.0898C14.9491 19.0898 14.9493 19.1678 15.0005 19.1696C15.054 19.1658 15.0516 19.0933 15.0516 19.0933L15.2073 15.0014M14.6151 16.3213C14.3771 16.8332 14.5793 17.2546 14.3476 17.7042C14.1081 18.157 14.2551 18.5231 14.2459 18.7336C14.2255 18.9395 14.0544 18.992 14.0984 19.0427C14.1423 19.0934 14.3129 18.9952 14.3875 18.7209C14.4544 18.4498 14.2925 18.2918 14.5733 17.7392C14.8542 17.1866 14.6321 16.9388 14.9122 16.4508" fill="#F6B40E"/>
        <path d="M14.7928 14.9986L14.9491 19.0898C14.9491 19.0898 14.9493 19.1678 15.0005 19.1696C15.054 19.1658 15.0516 19.0933 15.0516 19.0933L15.2073 15.0014M14.6151 16.3213C14.3771 16.8332 14.5793 17.2546 14.3476 17.7042C14.1081 18.157 14.2551 18.5231 14.2459 18.7336C14.2255 18.9395 14.0544 18.992 14.0984 19.0427C14.1423 19.0934 14.3129 18.9952 14.3875 18.7209C14.4544 18.4498 14.2925 18.2918 14.5733 17.7392C14.8542 17.1866 14.6321 16.9388 14.9122 16.4508" stroke="#85340A" stroke-width="0.1408"/>
        <path d="M14.8091 14.9194L13.3878 18.759C13.3878 18.759 13.3581 18.8311 13.4048 18.8523C13.4557 18.8693 13.4812 18.8014 13.4812 18.8014L15.191 15.0806M14.1388 16.0734C13.723 16.4552 13.7485 16.9219 13.3624 17.2486C12.9678 17.5753 12.9636 17.9699 12.8745 18.1608C12.7769 18.3432 12.5987 18.3262 12.6199 18.3899C12.6411 18.4535 12.8363 18.4281 13.0102 18.2032C13.1757 17.9783 13.0866 17.7704 13.5575 17.3674C14.0285 16.9643 13.9182 16.6504 14.3636 16.3067" fill="#F6B40E"/>
        <path d="M14.8091 14.9194L13.3878 18.759C13.3878 18.759 13.3581 18.8311 13.4048 18.8523C13.4557 18.8693 13.4812 18.8014 13.4812 18.8014L15.191 15.0806M14.1388 16.0734C13.723 16.4552 13.7485 16.9219 13.3624 17.2486C12.9678 17.5753 12.9636 17.9699 12.8745 18.1608C12.7769 18.3432 12.5987 18.3262 12.6199 18.3899C12.6411 18.4535 12.8363 18.4281 13.0102 18.2032C13.1757 17.9783 13.0866 17.7704 13.5575 17.3674C14.0285 16.9643 13.9182 16.6504 14.3636 16.3067" stroke="#85340A" stroke-width="0.1408"/>
        <path d="M14.8547 14.8524L12.0722 17.8558C12.0722 17.8558 12.0172 17.9111 12.0522 17.9486C12.0927 17.9837 12.1422 17.9308 12.1422 17.9308L15.1457 15.1475M13.7937 15.6621C13.2635 15.8557 13.1084 16.2966 12.6267 16.4507C12.1371 16.6015 11.9822 16.9644 11.8269 17.1067C11.6669 17.2379 11.5088 17.154 11.504 17.221C11.4992 17.2879 11.6893 17.339 11.936 17.1979C12.175 17.0534 12.1722 16.8273 12.7615 16.6351C13.3509 16.443 13.3691 16.1107 13.9122 15.9637" fill="#F6B40E"/>
        <path d="M14.8547 14.8524L12.0722 17.8558C12.0722 17.8558 12.0172 17.9111 12.0522 17.9486C12.0927 17.9837 12.1422 17.9308 12.1422 17.9308L15.1457 15.1475M13.7937 15.6621C13.2635 15.8557 13.1084 16.2966 12.6267 16.4507C12.1371 16.6015 11.9822 16.9644 11.8269 17.1067C11.6669 17.2379 11.5088 17.154 11.504 17.221C11.4992 17.2879 11.6893 17.339 11.936 17.1979C12.175 17.0534 12.1722 16.8273 12.7615 16.6351C13.3509 16.443 13.3691 16.1107 13.9122 15.9637" stroke="#85340A" stroke-width="0.1408"/>
        <path d="M15.2581 16.4639C15.2881 17.0039 15.5941 17.2439 15.5341 17.7419C15.6661 17.3519 15.3481 17.0459 15.3661 16.4699M14.9041 15.0419L16.0741 17.5979L15.0961 14.9639" fill="#85340A"/>
        <path d="M14.6783 16.4512C14.4994 16.9616 14.6903 17.3004 14.4442 17.7376C14.7154 17.4278 14.5387 17.0234 14.7758 16.4981M14.8954 15.002L14.9982 17.8112L15.1027 15.0034" fill="#85340A"/>
        <path d="M14.1474 16.2177C13.7868 16.6208 13.8335 17.0068 13.4389 17.3166C13.808 17.1341 13.7995 16.6929 14.2195 16.2983M14.9026 14.9619L13.9226 17.5966L15.0935 15.0425" fill="#85340A"/>
        <path d="M13.7462 15.7985C13.2588 16.0329 13.1542 16.4075 12.6711 16.5426C13.082 16.5153 13.243 16.1044 13.782 15.9006M14.9245 14.9273L13.0108 16.9864L15.0701 15.0748" fill="#85340A"/>
        <path d="M14.9221 14.8081L11.2021 16.5181C11.2021 16.5181 11.1301 16.5481 11.1481 16.5961C11.1721 16.6441 11.2381 16.6141 11.2381 16.6141L15.0781 15.1921M13.6321 15.1501C13.0681 15.1261 12.7561 15.4741 12.2521 15.4321C11.7421 15.3841 11.4601 15.6601 11.2621 15.7321C11.0641 15.7921 10.9501 15.6541 10.9201 15.7141C10.8901 15.7741 11.0461 15.8941 11.3281 15.8581C11.6041 15.8161 11.6881 15.6061 12.3061 15.6541C12.9241 15.7021 13.0681 15.4021 13.6261 15.4741" fill="#F6B40E"/>
        <path d="M14.9221 14.8081L11.2021 16.5181C11.2021 16.5181 11.1301 16.5481 11.1481 16.5961C11.1721 16.6441 11.2381 16.6141 11.2381 16.6141L15.0781 15.1921M13.6321 15.1501C13.0681 15.1261 12.7561 15.4741 12.2521 15.4321C11.7421 15.3841 11.4601 15.6601 11.2621 15.7321C11.0641 15.7921 10.9501 15.6541 10.9201 15.7141C10.8901 15.7741 11.0461 15.8941 11.3281 15.8581C11.6041 15.8161 11.6881 15.6061 12.3061 15.6541C12.9241 15.7021 13.0681 15.4021 13.6261 15.4741" stroke="#85340A" stroke-width="0.1408"/>
        <path d="M15.0014 14.7928L10.9102 14.9491C10.9102 14.9491 10.8322 14.9493 10.8304 15.0005C10.8342 15.054 10.9067 15.0516 10.9067 15.0516L14.9986 15.2073M13.6787 14.6151C13.1668 14.3771 12.7454 14.5793 12.2958 14.3476C11.843 14.1081 11.4769 14.2551 11.2664 14.2459C11.0605 14.2255 11.008 14.0544 10.9573 14.0984C10.9066 14.1423 11.0048 14.3129 11.2791 14.3875C11.5502 14.4544 11.7082 14.2925 12.2608 14.5733C12.8134 14.8542 13.0612 14.6321 13.5492 14.9122" fill="#F6B40E"/>
        <path d="M15.0014 14.7928L10.9102 14.9491C10.9102 14.9491 10.8322 14.9493 10.8304 15.0005C10.8342 15.054 10.9067 15.0516 10.9067 15.0516L14.9986 15.2073M13.6787 14.6151C13.1668 14.3771 12.7454 14.5793 12.2958 14.3476C11.843 14.1081 11.4769 14.2551 11.2664 14.2459C11.0605 14.2255 11.008 14.0544 10.9573 14.0984C10.9066 14.1423 11.0048 14.3129 11.2791 14.3875C11.5502 14.4544 11.7082 14.2925 12.2608 14.5733C12.8134 14.8542 13.0612 14.6321 13.5492 14.9122" stroke="#85340A" stroke-width="0.1408"/>
        <path d="M15.0806 14.8091L11.241 13.3878C11.241 13.3878 11.1689 13.3581 11.1477 13.4048C11.1307 13.4557 11.1986 13.4812 11.1986 13.4812L14.9194 15.191M13.9266 14.1388C13.5448 13.723 13.0781 13.7485 12.7514 13.3624C12.4247 12.9678 12.0301 12.9636 11.8392 12.8745C11.6568 12.7769 11.6738 12.5987 11.6101 12.6199C11.5465 12.6411 11.5719 12.8363 11.7968 13.0102C12.0217 13.1757 12.2296 13.0866 12.6326 13.5575C13.0357 14.0285 13.3496 13.9182 13.6933 14.3636" fill="#F6B40E"/>
        <path d="M15.0806 14.8091L11.241 13.3878C11.241 13.3878 11.1689 13.3581 11.1477 13.4048C11.1307 13.4557 11.1986 13.4812 11.1986 13.4812L14.9194 15.191M13.9266 14.1388C13.5448 13.723 13.0781 13.7485 12.7514 13.3624C12.4247 12.9678 12.0301 12.9636 11.8392 12.8745C11.6568 12.7769 11.6738 12.5987 11.6101 12.6199C11.5465 12.6411 11.5719 12.8363 11.7968 13.0102C12.0217 13.1757 12.2296 13.0866 12.6326 13.5575C13.0357 14.0285 13.3496 13.9182 13.6933 14.3636" stroke="#85340A" stroke-width="0.1408"/>
        <path d="M15.1476 14.8547L12.1442 12.0722C12.1442 12.0722 12.0889 12.0172 12.0514 12.0522C12.0163 12.0927 12.0692 12.1422 12.0692 12.1422L14.8525 15.1457M14.3379 13.7937C14.1443 13.2635 13.7034 13.1084 13.5493 12.6267C13.3985 12.1371 13.0356 11.9822 12.8933 11.8269C12.7621 11.6669 12.846 11.5088 12.779 11.504C12.7121 11.4992 12.661 11.6893 12.8021 11.936C12.9466 12.175 13.1727 12.1722 13.3649 12.7615C13.557 13.3509 13.8893 13.3691 14.0363 13.9122" fill="#F6B40E"/>
        <path d="M15.1476 14.8547L12.1442 12.0722C12.1442 12.0722 12.0889 12.0172 12.0514 12.0522C12.0163 12.0927 12.0692 12.1422 12.0692 12.1422L14.8525 15.1457M14.3379 13.7937C14.1443 13.2635 13.7034 13.1084 13.5493 12.6267C13.3985 12.1371 13.0356 11.9822 12.8933 11.8269C12.7621 11.6669 12.846 11.5088 12.779 11.504C12.7121 11.4992 12.661 11.6893 12.8021 11.936C12.9466 12.175 13.1727 12.1722 13.3649 12.7615C13.557 13.3509 13.8893 13.3691 14.0363 13.9122" stroke="#85340A" stroke-width="0.1408"/>
        <path d="M13.5361 15.2581C12.9961 15.2881 12.7561 15.5941 12.2581 15.5341C12.6481 15.6661 12.9541 15.3481 13.5301 15.3661M14.9581 14.9041L12.4021 16.0741L15.0361 15.0961" fill="#85340A"/>
        <path d="M13.5488 14.6783C13.0384 14.4994 12.6996 14.6903 12.2624 14.4442C12.5722 14.7154 12.9766 14.5387 13.5019 14.7758M14.998 14.8954L12.1888 14.9982L14.9966 15.1027" fill="#85340A"/>
        <path d="M13.7823 14.1474C13.3792 13.7868 12.9932 13.8335 12.6834 13.4389C12.8659 13.808 13.3071 13.7995 13.7017 14.2195M15.0381 14.9026L12.4034 13.9226L14.9575 15.0935" fill="#85340A"/>
        <path d="M14.2015 13.7462C13.9671 13.2588 13.5925 13.1542 13.4574 12.6711C13.4847 13.082 13.8956 13.243 14.0994 13.782M15.0727 14.9245L13.0136 13.0108L14.9252 15.0701" fill="#85340A"/>
        <path d="M15.1919 14.9221L13.4819 11.2021C13.4819 11.2021 13.4519 11.1301 13.4039 11.1481C13.3559 11.1721 13.3859 11.2381 13.3859 11.2381L14.8079 15.0781M14.8499 13.6321C14.8739 13.0681 14.5259 12.7561 14.5679 12.2521C14.6159 11.7421 14.3399 11.4601 14.2679 11.2621C14.2079 11.0641 14.3459 10.9501 14.2859 10.9201C14.2259 10.8901 14.1059 11.0461 14.1419 11.3281C14.1839 11.6041 14.3939 11.6881 14.3459 12.3061C14.2979 12.9241 14.5979 13.0681 14.5259 13.6261" fill="#F6B40E"/>
        <path d="M15.1919 14.9221L13.4819 11.2021C13.4819 11.2021 13.4519 11.1301 13.4039 11.1481C13.3559 11.1721 13.3859 11.2381 13.3859 11.2381L14.8079 15.0781M14.8499 13.6321C14.8739 13.0681 14.5259 12.7561 14.5679 12.2521C14.6159 11.7421 14.3399 11.4601 14.2679 11.2621C14.2079 11.0641 14.3459 10.9501 14.2859 10.9201C14.2259 10.8901 14.1059 11.0461 14.1419 11.3281C14.1839 11.6041 14.3939 11.6881 14.3459 12.3061C14.2979 12.9241 14.5979 13.0681 14.5259 13.6261" stroke="#85340A" stroke-width="0.1408"/>
        <path d="M15.2072 15.0014L15.0509 10.9102C15.0509 10.9102 15.0507 10.8322 14.9995 10.8304C14.946 10.8342 14.9484 10.9067 14.9484 10.9067L14.7927 14.9986M15.3849 13.6787C15.6229 13.1668 15.4207 12.7454 15.6524 12.2958C15.8919 11.843 15.7449 11.4769 15.7541 11.2664C15.7745 11.0605 15.9456 11.008 15.9016 10.9573C15.8577 10.9066 15.6871 11.0048 15.6125 11.2791C15.5456 11.5502 15.7075 11.7082 15.4267 12.2608C15.1458 12.8134 15.3679 13.0612 15.0878 13.5492" fill="#F6B40E"/>
        <path d="M15.2072 15.0014L15.0509 10.9102C15.0509 10.9102 15.0507 10.8322 14.9995 10.8304C14.946 10.8342 14.9484 10.9067 14.9484 10.9067L14.7927 14.9986M15.3849 13.6787C15.6229 13.1668 15.4207 12.7454 15.6524 12.2958C15.8919 11.843 15.7449 11.4769 15.7541 11.2664C15.7745 11.0605 15.9456 11.008 15.9016 10.9573C15.8577 10.9066 15.6871 11.0048 15.6125 11.2791C15.5456 11.5502 15.7075 11.7082 15.4267 12.2608C15.1458 12.8134 15.3679 13.0612 15.0878 13.5492" stroke="#85340A" stroke-width="0.1408"/>
        <path d="M15.1909 15.0806L16.6122 11.241C16.6122 11.241 16.6419 11.1689 16.5952 11.1477C16.5443 11.1307 16.5188 11.1986 16.5188 11.1986L14.809 14.9194M15.8612 13.9266C16.277 13.5448 16.2515 13.0781 16.6376 12.7514C17.0322 12.4247 17.0364 12.0301 17.1255 11.8392C17.2231 11.6568 17.4013 11.6738 17.3801 11.6101C17.3589 11.5465 17.1637 11.5719 16.9898 11.7968C16.8243 12.0217 16.9134 12.2296 16.4425 12.6326C15.9715 13.0357 16.0818 13.3496 15.6364 13.6933" fill="#F6B40E"/>
        <path d="M15.1909 15.0806L16.6122 11.241C16.6122 11.241 16.6419 11.1689 16.5952 11.1477C16.5443 11.1307 16.5188 11.1986 16.5188 11.1986L14.809 14.9194M15.8612 13.9266C16.277 13.5448 16.2515 13.0781 16.6376 12.7514C17.0322 12.4247 17.0364 12.0301 17.1255 11.8392C17.2231 11.6568 17.4013 11.6738 17.3801 11.6101C17.3589 11.5465 17.1637 11.5719 16.9898 11.7968C16.8243 12.0217 16.9134 12.2296 16.4425 12.6326C15.9715 13.0357 16.0818 13.3496 15.6364 13.6933" stroke="#85340A" stroke-width="0.1408"/>
        <path d="M15.1453 15.1476L17.9278 12.1442C17.9278 12.1442 17.9828 12.0889 17.9478 12.0514C17.9073 12.0163 17.8578 12.0692 17.8578 12.0692L14.8543 14.8525M16.2063 14.3379C16.7365 14.1443 16.8916 13.7034 17.3733 13.5493C17.8629 13.3985 18.0178 13.0356 18.1731 12.8933C18.3331 12.7621 18.4912 12.846 18.496 12.779C18.5008 12.7121 18.3107 12.661 18.064 12.8021C17.825 12.9466 17.8278 13.1727 17.2385 13.3649C16.6491 13.557 16.6309 13.8893 16.0878 14.0363" fill="#F6B40E"/>
        <path d="M15.1453 15.1476L17.9278 12.1442C17.9278 12.1442 17.9828 12.0889 17.9478 12.0514C17.9073 12.0163 17.8578 12.0692 17.8578 12.0692L14.8543 14.8525M16.2063 14.3379C16.7365 14.1443 16.8916 13.7034 17.3733 13.5493C17.8629 13.3985 18.0178 13.0356 18.1731 12.8933C18.3331 12.7621 18.4912 12.846 18.496 12.779C18.5008 12.7121 18.3107 12.661 18.064 12.8021C17.825 12.9466 17.8278 13.1727 17.2385 13.3649C16.6491 13.557 16.6309 13.8893 16.0878 14.0363" stroke="#85340A" stroke-width="0.1408"/>
        <path d="M14.7419 13.5361C14.7119 12.9961 14.4059 12.7561 14.4659 12.2581C14.3339 12.6481 14.6519 12.9541 14.6339 13.5301M15.0959 14.9581L13.9259 12.4021L14.9039 15.0361" fill="#85340A"/>
        <path d="M15.3217 13.5488C15.5006 13.0384 15.3097 12.6996 15.5558 12.2624C15.2846 12.5722 15.4613 12.9766 15.2242 13.5019M15.1046 14.998L15.0018 12.1888L14.8973 14.9966" fill="#85340A"/>
        <path d="M15.8526 13.7823C16.2132 13.3792 16.1665 12.9932 16.5611 12.6834C16.192 12.8659 16.2005 13.3071 15.7805 13.7017M15.0974 15.0381L16.0774 12.4034L14.9065 14.9575" fill="#85340A"/>
        <path d="M16.2538 14.2015C16.7412 13.9671 16.8458 13.5925 17.3289 13.4574C16.918 13.4847 16.757 13.8956 16.218 14.0994M15.0755 15.0727L16.9892 13.0136L14.9299 14.9252" fill="#85340A"/>
        <path d="M15.0779 15.1919L18.7979 13.4819C18.7979 13.4819 18.8699 13.4519 18.8519 13.4039C18.8279 13.3559 18.7619 13.3859 18.7619 13.3859L14.9219 14.8079M16.3679 14.8499C16.9319 14.8739 17.2439 14.5259 17.7479 14.5679C18.2579 14.6159 18.5399 14.3399 18.7379 14.2679C18.9359 14.2079 19.0499 14.3459 19.0799 14.2859C19.1099 14.2259 18.9539 14.1059 18.6719 14.1419C18.3959 14.1839 18.3119 14.3939 17.6939 14.3459C17.0759 14.2979 16.9319 14.5979 16.3739 14.5259" fill="#F6B40E"/>
        <path d="M15.0779 15.1919L18.7979 13.4819C18.7979 13.4819 18.8699 13.4519 18.8519 13.4039C18.8279 13.3559 18.7619 13.3859 18.7619 13.3859L14.9219 14.8079M16.3679 14.8499C16.9319 14.8739 17.2439 14.5259 17.7479 14.5679C18.2579 14.6159 18.5399 14.3399 18.7379 14.2679C18.9359 14.2079 19.0499 14.3459 19.0799 14.2859C19.1099 14.2259 18.9539 14.1059 18.6719 14.1419C18.3959 14.1839 18.3119 14.3939 17.6939 14.3459C17.0759 14.2979 16.9319 14.5979 16.3739 14.5259" stroke="#85340A" stroke-width="0.1408"/>
        <path d="M14.9986 15.2072L19.0898 15.0509C19.0898 15.0509 19.1678 15.0507 19.1696 14.9995C19.1658 14.946 19.0933 14.9484 19.0933 14.9484L15.0014 14.7927M16.3213 15.3849C16.8332 15.6229 17.2546 15.4207 17.7042 15.6524C18.157 15.8919 18.5231 15.7449 18.7336 15.7541C18.9395 15.7745 18.992 15.9456 19.0427 15.9016C19.0934 15.8577 18.9952 15.6871 18.7209 15.6125C18.4498 15.5456 18.2918 15.7075 17.7392 15.4267C17.1866 15.1458 16.9388 15.3679 16.4508 15.0878" fill="#F6B40E"/>
        <path d="M14.9986 15.2072L19.0898 15.0509C19.0898 15.0509 19.1678 15.0507 19.1696 14.9995C19.1658 14.946 19.0933 14.9484 19.0933 14.9484L15.0014 14.7927M16.3213 15.3849C16.8332 15.6229 17.2546 15.4207 17.7042 15.6524C18.157 15.8919 18.5231 15.7449 18.7336 15.7541C18.9395 15.7745 18.992 15.9456 19.0427 15.9016C19.0934 15.8577 18.9952 15.6871 18.7209 15.6125C18.4498 15.5456 18.2918 15.7075 17.7392 15.4267C17.1866 15.1458 16.9388 15.3679 16.4508 15.0878" stroke="#85340A" stroke-width="0.1408"/>
        <path d="M14.9194 15.1909L18.759 16.6122C18.759 16.6122 18.8311 16.6419 18.8523 16.5952C18.8693 16.5443 18.8014 16.5188 18.8014 16.5188L15.0806 14.809M16.0734 15.8612C16.4552 16.277 16.9219 16.2515 17.2486 16.6376C17.5753 17.0322 17.9699 17.0364 18.1608 17.1255C18.3432 17.2231 18.3262 17.4013 18.3899 17.3801C18.4535 17.3589 18.4281 17.1637 18.2032 16.9898C17.9783 16.8243 17.7704 16.9134 17.3674 16.4425C16.9643 15.9715 16.6504 16.0818 16.3067 15.6364" fill="#F6B40E"/>
        <path d="M14.9194 15.1909L18.759 16.6122C18.759 16.6122 18.8311 16.6419 18.8523 16.5952C18.8693 16.5443 18.8014 16.5188 18.8014 16.5188L15.0806 14.809M16.0734 15.8612C16.4552 16.277 16.9219 16.2515 17.2486 16.6376C17.5753 17.0322 17.9699 17.0364 18.1608 17.1255C18.3432 17.2231 18.3262 17.4013 18.3899 17.3801C18.4535 17.3589 18.4281 17.1637 18.2032 16.9898C17.9783 16.8243 17.7704 16.9134 17.3674 16.4425C16.9643 15.9715 16.6504 16.0818 16.3067 15.6364" stroke="#85340A" stroke-width="0.1408"/>
        <path d="M14.8524 15.1453L17.8558 17.9278C17.8558 17.9278 17.9111 17.9828 17.9486 17.9478C17.9837 17.9073 17.9308 17.8578 17.9308 17.8578L15.1475 14.8543M15.6621 16.2063C15.8557 16.7365 16.2966 16.8916 16.4507 17.3733C16.6015 17.8629 16.9644 18.0178 17.1067 18.1731C17.2379 18.3331 17.154 18.4912 17.221 18.496C17.2879 18.5008 17.339 18.3107 17.1979 18.064C17.0534 17.825 16.8273 17.8278 16.6351 17.2385C16.443 16.6491 16.1107 16.6309 15.9637 16.0878" fill="#F6B40E"/>
        <path d="M14.8524 15.1453L17.8558 17.9278C17.8558 17.9278 17.9111 17.9828 17.9486 17.9478C17.9837 17.9073 17.9308 17.8578 17.9308 17.8578L15.1475 14.8543M15.6621 16.2063C15.8557 16.7365 16.2966 16.8916 16.4507 17.3733C16.6015 17.8629 16.9644 18.0178 17.1067 18.1731C17.2379 18.3331 17.154 18.4912 17.221 18.496C17.2879 18.5008 17.339 18.3107 17.1979 18.064C17.0534 17.825 16.8273 17.8278 16.6351 17.2385C16.443 16.6491 16.1107 16.6309 15.9637 16.0878" stroke="#85340A" stroke-width="0.1408"/>
        <path d="M16.4639 14.7419C17.0039 14.7119 17.2439 14.4059 17.7419 14.4659C17.3519 14.3339 17.0459 14.6519 16.4699 14.6339M15.0419 15.0959L17.5979 13.9259L14.9639 14.9039" fill="#85340A"/>
        <path d="M16.4512 15.3217C16.9616 15.5006 17.3004 15.3097 17.7376 15.5558C17.4278 15.2846 17.0234 15.4613 16.4981 15.2242M15.002 15.1046L17.8112 15.0018L15.0034 14.8973" fill="#85340A"/>
        <path d="M16.2177 15.8526C16.6208 16.2132 17.0068 16.1665 17.3166 16.5611C17.1341 16.192 16.6929 16.2005 16.2983 15.7805M14.9619 15.0974L17.5966 16.0774L15.0425 14.9065" fill="#85340A"/>
        <path d="M15.7985 16.2538C16.0329 16.7412 16.4075 16.8458 16.5426 17.3289C16.5153 16.918 16.1044 16.757 15.9006 16.218M14.9273 15.0755L16.9864 16.9892L15.0748 14.9299" fill="#85340A"/>
        <path d="M15 16.6641C15.919 16.6641 16.6641 15.919 16.6641 15C16.6641 14.081 15.919 13.3359 15 13.3359C14.081 13.3359 13.3359 14.081 13.3359 15C13.3359 15.919 14.081 16.6641 15 16.6641Z" fill="#F6B40E" stroke="#85340A" stroke-width="0.1875"/>
        <path d="M15.5684 14.6484C15.4512 14.6484 15.3457 14.6953 15.2812 14.7949C15.4102 14.9121 15.6914 14.9238 15.8848 14.7832C15.8443 14.7396 15.7954 14.7046 15.741 14.6804C15.6866 14.6562 15.6279 14.6434 15.5684 14.6426V14.6484ZM15.5684 14.6719C15.6797 14.6719 15.7793 14.7188 15.7969 14.7715C15.668 14.9121 15.4629 14.9004 15.334 14.7949C15.3592 14.756 15.394 14.7242 15.435 14.7026C15.4761 14.6811 15.522 14.6705 15.5684 14.6719Z" fill="#843511"/>
        <path d="M15.5919 14.5664C15.4278 14.5664 15.3868 14.6016 15.3106 14.666C15.2345 14.7305 15.1934 14.7187 15.1817 14.7305C15.17 14.7422 15.1817 14.7832 15.211 14.7715C15.2345 14.7539 15.2813 14.7305 15.3634 14.666C15.4395 14.6074 15.5157 14.6074 15.5977 14.6074C15.8204 14.6074 15.9493 14.7949 15.9786 14.7832C16.002 14.7715 15.8497 14.5664 15.5919 14.5664Z" fill="#85340A"/>
        <path d="M16.0547 14.6426C15.7617 14.3848 15.3867 14.3496 15.1816 14.5371C15.1337 14.6009 15.1015 14.6752 15.0879 14.7539C15.0586 14.9004 15.1055 15.0586 15.2227 15.2226C15.2051 15.2226 15.1816 15.2285 15.1641 15.2461C15.0703 15.0469 15.0293 14.8476 15.0645 14.6601C15.0736 14.6102 15.0874 14.5611 15.1055 14.5137C15.3867 14.2793 15.7734 14.2558 16.0547 14.6426Z" fill="#85340A"/>
        <path d="M15.5625 14.8887C15.6272 14.8887 15.6797 14.8362 15.6797 14.7715C15.6797 14.7068 15.6272 14.6543 15.5625 14.6543C15.4978 14.6543 15.4453 14.7068 15.4453 14.7715C15.4453 14.8362 15.4978 14.8887 15.5625 14.8887Z" fill="#85340A"/>
        <path d="M15.8965 14.8477C15.6797 15.0117 15.4629 15 15.334 14.9238C15.2051 14.8477 15.2051 14.8184 15.2344 14.8184C15.2578 14.8184 15.2871 14.8477 15.3867 14.8945C15.4922 14.9531 15.6445 14.9531 15.9023 14.8477H15.8965Z" fill="#85340A"/>
        <path d="M14.748 15.2344C14.7284 15.2371 14.7098 15.2448 14.694 15.2568C14.6781 15.2687 14.6656 15.2844 14.6575 15.3025C14.6494 15.3206 14.646 15.3404 14.6476 15.3602C14.6493 15.3799 14.6559 15.3989 14.6669 15.4154C14.6779 15.4319 14.6929 15.4453 14.7105 15.4545C14.7281 15.4636 14.7477 15.4681 14.7675 15.4676C14.7873 15.467 14.8067 15.4615 14.8238 15.4515C14.8409 15.4414 14.8551 15.4272 14.8652 15.4102C14.9063 15.4453 14.9648 15.4453 15 15.4453H15.0176C15.0649 15.4468 15.1117 15.4346 15.1523 15.4102C15.1624 15.4272 15.1767 15.4414 15.1938 15.4515C15.2109 15.4615 15.2302 15.467 15.2501 15.4676C15.2699 15.4681 15.2895 15.4636 15.3071 15.4545C15.3247 15.4453 15.3397 15.4319 15.3507 15.4154C15.3617 15.3989 15.3683 15.3799 15.3699 15.3602C15.3716 15.3404 15.3682 15.3206 15.3601 15.3025C15.352 15.2844 15.3394 15.2687 15.3236 15.2568C15.3078 15.2448 15.2892 15.2371 15.2695 15.2344C15.2988 15.2402 15.3223 15.2695 15.3223 15.3047C15.3223 15.3249 15.3142 15.3443 15.3 15.3585C15.2857 15.3728 15.2663 15.3809 15.2461 15.3809C15.2259 15.3809 15.2065 15.3728 15.1922 15.3585C15.1779 15.3443 15.1699 15.3249 15.1699 15.3047C15.1544 15.3352 15.131 15.3611 15.1022 15.3796C15.0733 15.3982 15.0401 15.4087 15.0059 15.4102C14.9726 15.4077 14.9406 15.3967 14.9129 15.3782C14.8852 15.3597 14.8627 15.3344 14.8477 15.3047C14.8477 15.3249 14.8396 15.3443 14.8253 15.3585C14.8111 15.3728 14.7917 15.3809 14.7715 15.3809C14.7513 15.3809 14.7319 15.3728 14.7176 15.3585C14.7033 15.3443 14.6953 15.3249 14.6953 15.3047C14.6953 15.2695 14.7129 15.2461 14.7422 15.2285L14.748 15.2344ZM14.8652 15.5742C14.7422 15.5742 14.6895 15.6914 14.5723 15.7676C14.6426 15.7383 14.6895 15.6914 14.7832 15.6387C14.8711 15.5859 14.9473 15.6504 15 15.6504C15.0527 15.6504 15.1289 15.5859 15.2168 15.6387C15.3047 15.6914 15.3574 15.7383 15.4219 15.7676C15.3047 15.6855 15.2578 15.5742 15.1289 15.5742C15.0841 15.5776 15.0403 15.5895 15 15.6094C14.9598 15.5892 14.916 15.5773 14.8711 15.5742H14.8652Z" fill="#85340A"/>
        <path d="M14.8242 15.7266C14.7525 15.7316 14.6817 15.7453 14.6133 15.7676C14.8477 15.709 14.8945 15.791 15 15.791C15.1055 15.791 15.1523 15.7148 15.3867 15.7617C15.1289 15.6914 15.0762 15.7383 15 15.7383C14.9473 15.7383 14.9121 15.7207 14.8242 15.7207V15.7266Z" fill="#85340A"/>
        <path d="M14.625 15.7617H14.5781C14.8477 15.791 14.7129 15.9434 15 15.9434C15.2813 15.9434 15.1523 15.791 15.4219 15.7676C15.1406 15.7383 15.2285 15.9082 15 15.9082C14.7832 15.9082 14.8477 15.7617 14.625 15.7617ZM15.2285 16.1777C15.2285 16.1166 15.2046 16.0578 15.162 16.014C15.1193 15.9703 15.0611 15.9449 15 15.9434C14.9378 15.9434 14.8782 15.9681 14.8343 16.012C14.7903 16.056 14.7656 16.1156 14.7656 16.1777C14.7789 16.1262 14.8094 16.0807 14.852 16.0487C14.8946 16.0168 14.9468 16.0003 15 16.002C15.0532 16.0003 15.1054 16.0168 15.148 16.0487C15.1906 16.0807 15.2211 16.1262 15.2344 16.1777H15.2285Z" fill="#85340A"/>
        <path d="M13.9629 14.6426C14.2559 14.3848 14.6309 14.3496 14.8359 14.5371C14.8839 14.6009 14.9161 14.6752 14.9297 14.7539C14.959 14.9004 14.9121 15.0586 14.7949 15.2226C14.8125 15.2226 14.8359 15.2285 14.8535 15.2461C14.9473 15.0469 14.9883 14.8476 14.9531 14.6601C14.944 14.6102 14.9302 14.5611 14.9121 14.5137C14.6309 14.2793 14.2441 14.2558 13.9629 14.6426Z" fill="#85340A"/>
        <path d="M14.4257 14.5664C14.5898 14.5664 14.6308 14.6016 14.707 14.666C14.7831 14.7305 14.8241 14.7187 14.8359 14.7305C14.8476 14.7422 14.8359 14.7832 14.8066 14.7715C14.7831 14.7539 14.7363 14.7305 14.6542 14.666C14.578 14.6074 14.5019 14.6074 14.4198 14.6074C14.1972 14.6074 14.0683 14.7949 14.039 14.7832C14.0155 14.7715 14.1679 14.5664 14.4257 14.5664Z" fill="#85340A"/>
        <path d="M14.4199 14.6484C14.3027 14.6484 14.1973 14.6953 14.1328 14.7949C14.2617 14.9121 14.543 14.9238 14.7363 14.7832C14.6959 14.7396 14.6469 14.7046 14.5926 14.6804C14.5382 14.6562 14.4794 14.6434 14.4199 14.6426V14.6484ZM14.4199 14.6719C14.5313 14.6719 14.6309 14.7188 14.6484 14.7715C14.5195 14.9121 14.3145 14.9004 14.1855 14.7949C14.2107 14.756 14.2455 14.7242 14.2866 14.7026C14.3276 14.6811 14.3736 14.6705 14.4199 14.6719Z" fill="#843511"/>
        <path d="M14.4316 14.8887C14.4964 14.8887 14.5488 14.8362 14.5488 14.7715C14.5488 14.7068 14.4964 14.6543 14.4316 14.6543C14.3669 14.6543 14.3145 14.7068 14.3145 14.7715C14.3145 14.8362 14.3669 14.8887 14.4316 14.8887Z" fill="#85340A"/>
        <path d="M14.1211 14.8477C14.3379 15.0117 14.5547 15 14.6836 14.9238C14.8125 14.8477 14.8125 14.8184 14.7832 14.8184C14.7598 14.8184 14.7305 14.8477 14.6309 14.8945C14.5254 14.9531 14.373 14.9531 14.1152 14.8477H14.1211Z" fill="#85340A"/>
    </g>
    <defs>
        <clipPath id="clip0_530_6162">
            <rect width="30" height="30" rx="15" fill="white"/>
        </clipPath>
    </defs>
</svg>
