<svg width="30" height="30" viewBox="0 0 30 30" fill="none" xmlns="http://www.w3.org/2000/svg">
    <g clip-path="url(#clip0_530_7775)">
        <path d="M0 0H30V30H0V0Z" fill="#000066"/>
        <path fill-rule="evenodd" clip-rule="evenodd" d="M3.2168 21.5977L5.5957 22.5L6.38086 20.0742L7.16016 22.5L9.54492 21.5977L8.13281 23.7246L10.3242 25.0254L7.78711 25.2422L8.13867 27.7676L6.38086 25.9219L4.62305 27.7676L4.97461 25.248L2.43164 25.0254L4.62891 23.7246M23.6719 27.9141L22.5586 28.0078L22.7168 29.1094L21.9551 28.3066L21.1934 29.1094L21.3281 28.0078L20.2266 27.9141L21.1816 27.3516L20.5664 26.4258L21.6035 26.8184L21.9434 25.7637L22.2773 26.8184L23.3203 26.4258L22.7109 27.3516M23.6602 11.5078L22.5586 11.6016L22.7109 12.7031L21.9492 11.9004L21.1875 12.7031L21.3281 11.6016L20.2266 11.5078L21.1816 10.9453L20.5664 10.0195L21.6035 10.4121L21.9434 9.35742L22.2773 10.4121L23.3203 10.0195L22.7109 10.9453M17.5078 18.1758L16.4062 18.2695L16.5586 19.3652L15.7969 18.5625L15.0352 19.3652L15.1816 18.2695L14.0801 18.1758L15.0352 17.6074L14.4199 16.6875L15.457 17.0801L15.7969 16.0254L16.1309 17.0801L17.168 16.6875L16.5586 17.6074M29.1211 16.5352L28.0195 16.6289L28.1719 17.7246L27.4102 16.9219L26.6484 17.7246L26.7949 16.6289L25.6934 16.5352L26.6484 15.9668L26.0332 15.0469L27.0703 15.4395L27.4102 14.3848L27.75 15.4395L28.7812 15.0469L28.1719 15.9668M24.4102 20.8008L23.8066 21.1758L23.9766 20.4844L23.4316 20.0273L24.1348 19.9746L24.4102 19.3184L24.668 19.9805L25.377 20.0391L24.8379 20.4902L25.0078 21.1816" fill="white"/>
        <path d="M0 0H15V15H0V0Z" fill="#000066"/>
        <path d="M15 0V1.875L9.43359 7.5L15 12.9785V15H13.0371L7.44141 9.49219L1.99219 15H0V13.0078L5.44922 7.5293L0 2.16797V0H1.81641L7.44141 5.50781L12.8906 0H15Z" fill="white"/>
        <path d="M5.39062 9.49219L5.71289 10.4883L1.23047 15H0V14.9121L5.39062 9.49219ZM9.02344 9.14062L10.6055 9.375L15 13.6816V15L9.02344 9.14062ZM15 0L9.375 5.74219L9.25781 4.45312L13.6523 0H15ZM0 0.0292969L5.6543 5.56641L3.92578 5.33203L0 1.43555V0.0292969Z" fill="#C8102E"/>
        <path d="M5.15625 0V15H9.84375V0H5.15625ZM0 5.15625V9.84375H15V5.15625H0Z" fill="white"/>
        <path d="M0 6.09375V8.90625H15V6.09375H0ZM6.09375 0V15H8.90625V0H6.09375Z" fill="#C8102E"/>
    </g>
    <defs>
        <clipPath id="clip0_530_7775">
            <rect width="30" height="30" rx="15" fill="white"/>
        </clipPath>
    </defs>
</svg>
