<svg width="30" height="30" viewBox="0 0 30 30" fill="none" xmlns="http://www.w3.org/2000/svg">
    <g clip-path="url(#clip0_530_1531)">
        <path d="M0 0V30H30V0.0117188H18.8672V0H0Z" fill="#68BFE5"/>
        <path d="M18.1758 14.8828V22.875C18.1758 25.4883 22.8984 27.041 22.8984 27.041C22.8984 27.041 27.6211 25.4883 27.6211 22.8809V14.8828H18.1758Z" fill="white"/>
        <path d="M22.2422 17.6953V21.293H18.1758V22.5996H22.248V26.7891L22.8984 27.041L23.5547 26.7891V22.5996H27.6211V21.293H23.5547V17.6953H22.2422Z" fill="#D21034"/>
        <path d="M18.1758 14.8828H27.6211V17.9707H18.1758V14.8828Z" fill="#D21034"/>
        <path d="M18.9312 17.1974C19.2238 17.1974 19.461 17.0055 19.461 16.7689C19.461 16.5322 19.2238 16.3403 18.9312 16.3403C18.6386 16.3403 18.4014 16.5322 18.4014 16.7689C18.4014 17.0055 18.6386 17.1974 18.9312 17.1974Z" fill="white" stroke="black" stroke-width="0.066486" stroke-miterlimit="3"/>
        <path d="M18.9311 16.7844C19.1914 16.7844 19.4025 16.678 19.4025 16.5467C19.4025 16.4155 19.1914 16.3091 18.9311 16.3091C18.6708 16.3091 18.4597 16.4155 18.4597 16.5467C18.4597 16.678 18.6708 16.7844 18.9311 16.7844Z" fill="white" stroke="black" stroke-width="0.066486" stroke-miterlimit="3"/>
        <path d="M18.9311 17.2636C19.1914 17.2636 19.4025 17.1572 19.4025 17.026C19.4025 16.8947 19.1914 16.7883 18.9311 16.7883C18.6708 16.7883 18.4597 16.8947 18.4597 17.026C18.4597 17.1572 18.6708 17.2636 18.9311 17.2636Z" fill="white" stroke="black" stroke-width="0.066486" stroke-miterlimit="3"/>
        <path d="M18.9311 17.0065C19.1914 17.0065 19.4025 16.9001 19.4025 16.7689C19.4025 16.6376 19.1914 16.5312 18.9311 16.5312C18.6708 16.5312 18.4597 16.6376 18.4597 16.7689C18.4597 16.9001 18.6708 17.0065 18.9311 17.0065Z" fill="white" stroke="black" stroke-width="0.066486" stroke-miterlimit="3"/>
        <path d="M27.3868 17.3613L27.3107 17.1445C27.3107 17.1445 27.0997 17.0625 27.0822 16.9453C27.047 16.6523 26.9357 16.5352 26.7775 16.4941C26.7332 16.4801 26.6866 16.4749 26.6404 16.4789C26.5941 16.4829 26.5491 16.4961 26.5079 16.5176C26.4611 16.5879 26.2208 16.5879 26.0861 16.5938C25.9513 16.5996 25.9513 16.5352 25.9513 16.5352C25.9224 16.536 25.8938 16.5294 25.8682 16.5161C25.8425 16.5027 25.8207 16.4831 25.8048 16.459C25.7345 16.3242 25.6876 16.2715 25.6525 16.2598C25.8282 16.2598 25.9572 16.1777 26.1505 15.9727C26.3673 15.75 26.5197 15.8379 26.5197 15.8379C26.4142 16.043 26.5548 16.0254 26.5548 16.0254C26.8361 15.8848 26.59 15.5156 26.5021 15.5332C26.42 15.5508 26.3966 15.4922 26.3966 15.4922C26.3966 15.5566 26.297 15.5859 26.297 15.5859C26.3732 15.1699 26.1212 15.0586 26.1212 15.0586C26.0861 15.0938 26.0626 15.1758 26.0626 15.1758C25.9982 15.4219 25.7697 15.3867 25.5118 15.2637C25.254 15.1406 24.5685 15.3926 24.3517 15.4746C24.1407 15.5625 23.7482 15.6973 23.3966 15.498C23.045 15.2988 22.9572 15.334 22.8165 15.375C22.6759 15.4102 22.4298 15.4688 22.3419 15.4219C22.2799 15.3906 22.2121 15.3726 22.1427 15.3691C22.172 15.3574 22.131 15.2988 22.131 15.2988C22.0255 15.1523 22.1427 15.0645 22.1427 15.0645C22.1427 15.0645 21.9493 15.123 22.0255 15.4629L22.0607 15.5156C22.0607 15.5156 22.09 15.6211 22.1486 15.6504V15.6738C22.1486 15.6738 22.1954 15.6504 22.2072 15.7207C22.2306 15.791 22.3009 15.7266 22.3361 15.668C22.3361 15.668 22.2775 15.9785 22.6642 16.0547C22.6642 16.0547 22.6232 16.0078 22.6407 15.9727C22.6583 15.9434 22.5939 15.9141 22.5997 15.8672C22.5997 15.8203 22.5001 15.7969 22.5822 15.7617C22.6642 15.7207 22.6993 15.6445 22.8751 15.75C23.0392 15.8496 23.174 15.8262 23.174 15.8262C23.174 15.8262 23.0685 15.6152 23.1271 15.6152C23.1857 15.6152 23.4435 15.9375 23.5724 15.9199C23.7013 15.9023 23.9474 15.7617 24.0704 15.8145C24.0704 15.8145 24.0822 15.75 24.5509 15.668C25.0197 15.5859 25.6056 15.3516 25.8224 15.5566C25.8224 15.5566 25.8458 15.7207 25.9396 15.7617C25.9396 15.7617 25.922 16.1016 25.3361 15.9141L25.1251 15.8555C25.1251 15.8555 25.0958 15.7559 23.9825 16.043C23.9825 16.043 23.924 16.0664 23.8771 16.1016C23.8361 16.1309 23.7775 16.0781 23.5548 16.1602C23.3322 16.2422 22.5177 16.5117 22.0138 16.4121C21.9025 16.3828 21.797 16.3945 21.797 16.3828C21.7911 16.3594 21.8556 16.3828 21.8556 16.3828C21.8146 16.3418 21.797 16.3359 21.797 16.3359C21.3751 16.2949 21.4513 16.1016 21.4513 16.1016L21.4747 16.1602C21.545 16.0723 21.4454 15.8555 21.4454 15.8555C21.4437 15.8495 21.4418 15.8437 21.4396 15.8379L21.4747 15.8145C21.6798 15.6387 21.9142 15.6094 21.9142 15.6094C21.7736 15.4336 21.4806 15.5273 21.4806 15.5273C21.4806 15.3223 21.3986 15.082 21.3986 15.082C21.1056 15.1113 20.9415 15.3516 20.9415 15.3516C20.9357 15.1406 20.6603 15.0176 20.6603 15.0176C20.7599 15.1348 20.6954 15.4277 20.6954 15.4277L20.7072 15.4395H20.6837L20.6779 15.498H20.6661C20.6661 15.498 20.5665 15.5332 20.4435 15.8027C20.4435 15.8027 20.4318 15.8613 20.3849 15.9199V15.9023C20.3849 15.9023 20.256 16.0781 19.9513 15.9023C19.9513 15.9023 19.5411 15.6563 19.3947 15.668C19.2482 15.6738 19.1544 15.7441 19.1603 15.7852C19.1603 15.7852 18.8322 15.7559 18.7208 15.9434C18.7208 15.9434 18.4689 16.0371 18.6857 16.2363C18.6857 16.2363 18.7091 16.3301 18.7736 16.377C18.7736 16.377 18.7618 16.1895 18.8087 16.248C18.8087 16.248 18.8204 16.2656 18.8439 16.2773C18.8439 16.3008 18.8673 16.377 18.9142 16.4121L18.9435 16.4004C18.9478 16.3564 18.9576 16.3131 18.9728 16.2715H18.9845L18.9786 16.2773L19.0372 16.3652L19.1017 16.3301C19.1368 16.3301 19.1779 16.3594 19.1779 16.3594L19.254 16.3008V16.2949C19.3302 16.3066 19.3478 16.1602 19.3478 16.1602C19.3798 16.1678 19.413 16.1686 19.4453 16.1625C19.4776 16.1565 19.5082 16.1437 19.5353 16.125C19.5704 16.2422 19.84 16.377 19.84 16.377H19.8517L19.8165 16.4004C19.9337 16.4883 20.1681 16.4648 20.1681 16.4648C20.0743 16.5059 20.0861 16.6816 20.0861 16.6816C20.0275 16.7051 20.0275 16.7578 20.0275 16.7578C20.2091 16.834 20.338 16.7754 20.338 16.7754C20.3497 16.834 20.338 16.8398 20.338 16.8398C20.2618 16.998 20.2267 17.1563 20.2267 17.1563V17.168C20.2267 17.168 19.8986 17.2852 19.7579 17.4434C19.7579 17.4434 19.7404 17.3965 19.6993 17.3965C19.6583 17.3965 19.5294 17.291 19.4708 17.2793C19.4122 17.2559 19.3243 17.291 19.3009 17.2676C19.2833 17.2383 19.295 17.0566 19.254 17.0273L19.213 16.9102C19.1837 16.9688 19.0724 16.957 19.0724 16.957C19.0565 16.9684 19.0409 16.9801 19.0255 16.9922L18.9786 16.9863C18.9669 16.9863 18.9552 17.0215 18.9435 17.0508C18.9395 17.0546 18.9356 17.0585 18.9318 17.0625V17.0273C18.9083 17.0449 18.8615 17.0215 18.8439 17.0215L18.8146 17.0742L18.7091 17.0859C18.6915 17.0918 18.7091 17.2324 18.7091 17.2324C18.5743 17.3086 18.6388 17.4141 18.6388 17.4141C18.7091 17.7656 19.3126 17.6133 19.3595 17.6543C19.4005 17.7012 19.506 17.7129 19.5646 17.7129C19.6173 17.7129 19.6818 17.8418 19.7638 17.8535C19.84 17.8711 19.7638 17.7539 20.1154 17.666C20.4786 17.5781 20.5958 17.4316 20.5958 17.4316C20.713 17.4141 20.7423 17.2734 20.7482 17.2207L20.754 17.3086C20.7716 17.4258 20.6896 17.4727 20.6896 17.4727L20.9943 17.3789C21.1173 17.3496 21.1056 17.2441 21.1056 17.2441C21.2228 17.5781 21.4337 17.5957 21.4337 17.5957C21.4806 17.4727 21.4747 17.4316 21.4747 17.4316H21.5685C21.5685 17.3555 21.5099 17.3027 21.4747 17.2793L21.6212 17.373L21.6798 17.3613C21.6798 17.4141 21.7618 17.4609 21.7618 17.4609L21.7736 17.3906C21.8439 17.4844 21.9728 17.4492 21.9728 17.4492C21.9698 17.4334 21.9658 17.4177 21.9611 17.4023C22.2365 17.5723 22.67 17.3555 22.67 17.3555C22.7872 17.3789 22.8048 17.3086 22.8048 17.3086C22.9396 17.3262 22.9689 17.2383 22.9689 17.2383C23.2853 17.209 23.5079 16.9863 23.5079 16.9863C23.6603 16.9746 23.6661 16.8691 23.6661 16.8691C23.6661 16.8691 23.8243 16.8926 23.9708 16.7051C24.3224 16.207 24.838 16.4707 24.838 16.4707L24.545 16.4883C23.754 16.4824 24.0763 17.0156 24.0763 17.0156H24.129C24.2052 17.0273 24.4572 17.2324 24.3634 17.3848V17.3906C24.1993 17.6074 23.9005 17.4023 23.8185 17.2148C23.7306 17.0273 23.5607 17.0684 23.5607 17.0684C23.5607 17.0684 23.1154 17.1445 23.297 17.4961H23.3029C23.3087 17.584 23.3615 17.6836 23.5197 17.7832C23.6075 17.9063 23.9005 17.918 24.1173 17.8711C24.2169 17.8535 24.7443 17.625 24.7443 17.625C24.7853 17.5078 24.92 17.5371 25.0372 17.373C25.1544 17.2031 24.8615 17.1445 24.8029 17.0566C24.7384 16.9629 24.8204 16.9805 24.8204 16.9805C25.0724 17.1211 25.0958 16.6758 25.0958 16.6758C25.1024 16.7487 25.1296 16.8183 25.1742 16.8764C25.2188 16.9345 25.279 16.9787 25.3478 17.0039C25.4884 16.8633 25.3829 16.5762 25.3829 16.5762C25.7169 17.1738 25.922 17.0801 25.922 17.0801C25.7404 16.9629 25.8282 16.8164 25.8282 16.8164C25.9923 17.4492 26.6486 16.8984 26.6486 16.8984C26.6193 16.9922 26.6486 17.0449 26.7072 17.1035C26.7657 17.1621 26.8361 17.1855 26.8068 17.2969C26.7716 17.4023 26.4669 17.3789 26.4669 17.3789C26.4669 17.3789 26.1681 17.3672 26.1974 17.6133C26.2091 17.6719 26.4083 17.6953 26.4845 17.6836C26.4845 17.6836 26.4552 17.6836 26.5607 17.7012L26.6896 17.707C26.8185 17.707 26.9532 17.6836 26.9532 17.6836C27.129 17.6426 27.0997 17.584 27.0997 17.584C27.3634 17.5371 27.3927 17.3613 27.3927 17.3613H27.3868Z" fill="#FFD100" stroke="black" stroke-width="0.1" stroke-miterlimit="3"/>
        <path d="M18.6914 16.2656C18.6914 16.2656 18.7031 16.2305 18.7324 16.2246C18.75 16.2246 18.7793 16.2363 18.8027 16.2715L18.8145 16.2598C18.8145 16.2598 18.7441 16.1543 18.7734 16.084C18.7852 16.0547 18.8203 16.0254 18.8672 16.0254V16.002C18.8086 16.0137 18.7734 16.0371 18.7559 16.0781C18.7507 16.0932 18.7488 16.1091 18.75 16.125C18.75 16.1602 18.7617 16.1953 18.7734 16.2187C18.7599 16.2089 18.7431 16.2047 18.7266 16.207C18.7031 16.2129 18.6855 16.2305 18.6797 16.2422L18.6914 16.2656ZM26.9531 17.666C26.7773 17.6953 26.5078 17.707 26.4844 17.6543C26.4844 17.6484 26.4844 17.6074 26.6309 17.5137L26.6133 17.4844C26.4961 17.5664 26.4375 17.625 26.4609 17.666C26.4961 17.7656 26.8828 17.707 26.959 17.6953L26.9531 17.666ZM23.5313 17.7715C23.4902 17.707 23.5078 17.6191 23.5898 17.5137L23.5605 17.4961C23.4727 17.6133 23.4551 17.7129 23.502 17.7891L23.5313 17.7715Z" fill="black"/>
        <path d="M23.2911 17.502C23.2911 17.6074 23.3672 17.707 23.5137 17.7949L23.5313 17.7715C23.3965 17.6895 23.3262 17.5957 23.3204 17.4961C23.3204 17.3496 23.4727 17.2383 23.4727 17.2324L23.4551 17.209C23.4493 17.209 23.2793 17.332 23.2911 17.502ZM26.3379 17.5371C26.2911 17.6133 26.3086 17.7012 26.3086 17.7012H26.3379C26.3379 17.7012 26.3262 17.6191 26.3672 17.5547C26.3811 17.5357 26.3986 17.5198 26.4187 17.5077C26.4388 17.4956 26.4612 17.4877 26.4844 17.4844V17.4551C26.42 17.4668 26.3672 17.4961 26.3379 17.5371ZM19.3536 16.1719H19.3418V16.1777C19.3418 16.1777 19.3243 16.2715 19.2832 16.2949C19.2773 16.299 19.2705 16.3016 19.2634 16.3026C19.2563 16.3036 19.2491 16.303 19.2422 16.3008L19.1719 16.2598C19.1543 16.2422 19.1426 16.2363 19.125 16.2422C19.1076 16.2208 19.0991 16.1935 19.1016 16.166C19.1075 16.1191 19.1368 16.0781 19.1895 16.043L19.1836 16.0254C19.125 16.0664 19.0899 16.1133 19.084 16.1602C19.0782 16.2187 19.1075 16.2539 19.1133 16.2598H19.1192C19.1368 16.2539 19.1426 16.2598 19.1602 16.2715L19.2364 16.3184H19.295C19.336 16.2891 19.3536 16.207 19.3536 16.1895C19.5469 16.2305 19.7051 15.9961 19.7051 15.9902L19.6934 15.9785C19.6934 15.9785 19.5352 16.2129 19.3536 16.1719Z" fill="black"/>
        <path d="M18.8965 16.1367C18.8848 16.1719 18.8965 16.2129 18.9141 16.248C18.9375 16.2832 18.9551 16.3008 18.9785 16.3066C19.0078 16.3066 19.0254 16.2891 19.043 16.2715C19.0547 16.2539 19.0723 16.2422 19.0781 16.248L19.0957 16.2598L19.1133 16.248L19.084 16.2305C19.0664 16.2305 19.0488 16.2422 19.0312 16.2539C19.0137 16.2715 18.9961 16.2891 18.9785 16.2832C18.9668 16.2832 18.9492 16.2656 18.9316 16.2363C18.9221 16.2218 18.9157 16.2054 18.9127 16.1883C18.9097 16.1712 18.9101 16.1536 18.9141 16.1367C18.9316 16.0547 19.0312 15.9902 19.0312 15.9902V15.9785C19.0254 15.9785 18.9141 16.0371 18.8965 16.1367ZM18.6328 17.3437C18.6445 17.3086 18.668 17.2852 18.709 17.2617C18.7031 17.2617 18.75 17.3027 18.791 17.2969L18.8145 17.2852C18.8262 17.291 18.8965 17.3555 18.8965 17.4375C18.8965 17.4551 18.8965 17.4727 18.8848 17.4902L18.9023 17.4961C18.9609 17.3789 18.8262 17.2617 18.8262 17.2617H18.8145L18.7852 17.2793C18.7559 17.2793 18.7148 17.2441 18.709 17.2441C18.6562 17.2676 18.627 17.3027 18.6152 17.3379L18.6328 17.3437ZM19.2422 17.0332C19.2012 17.0332 19.0898 17.0566 19.0547 17.1094C19.043 17.1328 19.043 17.1562 19.0547 17.1797L19.0664 17.2207C19.1016 17.3086 19.1367 17.4023 19.1719 17.4258L19.1836 17.4082C19.1484 17.3906 19.1133 17.291 19.084 17.209L19.0664 17.1738C19.0623 17.1656 19.0601 17.1566 19.0601 17.1475C19.0601 17.1383 19.0623 17.1293 19.0664 17.1211C19.1016 17.0742 19.1953 17.0508 19.2422 17.0508C19.2656 17.0508 19.2715 17.1387 19.2773 17.1973H19.2949C19.2949 17.1094 19.2832 17.0273 19.2363 17.0332H19.2422Z" fill="black"/>
        <path d="M18.9435 17.1212C18.9364 17.1279 18.9311 17.1362 18.9281 17.1454C18.925 17.1546 18.9243 17.1644 18.9259 17.1739C18.9259 17.1798 18.9318 17.4083 19.0431 17.4552L19.049 17.4376C18.9494 17.3966 18.9435 17.1739 18.9435 17.1739C18.9435 17.1739 18.9376 17.1505 18.9552 17.1329C18.9669 17.1212 19.0021 17.1212 19.049 17.1329V17.1153C19.0021 17.0978 18.9611 17.1036 18.9435 17.1212Z" fill="black"/>
        <path d="M18.8555 17.1387C18.8086 17.1738 18.8086 17.2676 18.8086 17.2734H18.8262C18.8262 17.2734 18.8262 17.1797 18.8672 17.1562C18.8789 17.1445 18.9023 17.1445 18.9258 17.1562V17.1387C18.9023 17.127 18.873 17.127 18.8555 17.1387Z" fill="black"/>
        <path d="M21.4284 15.8842C21.4284 15.8842 21.479 16.0011 21.479 16.0907C21.479 16.1063 21.4712 16.118 21.4674 16.1297L21.4479 16.079L21.4362 16.118C21.4362 16.118 21.4128 16.1725 21.4479 16.231C21.4946 16.3089 21.6115 16.3556 21.7985 16.3751V16.379C21.793 16.3789 21.7877 16.3803 21.7829 16.3829L21.7751 16.3907V16.4063C21.7829 16.4257 21.8024 16.4257 21.8452 16.4257L21.8725 16.4296L21.8959 16.4374L21.892 16.4335C21.9309 16.4335 21.9816 16.4452 22.0322 16.4647L21.9933 16.4725L22.0361 16.492C22.04 16.492 22.375 16.6283 22.5114 16.7374C22.4724 16.7725 22.3049 16.8932 22.0166 16.8231L21.9699 16.8114L22.0011 16.8504C22.0011 16.8504 22.1919 17.0685 22.2309 17.201C22.1647 17.201 21.9115 17.201 21.8219 17.1231L21.8024 17.1425C21.8024 17.1425 21.9192 17.3217 21.9504 17.4581C21.9115 17.4659 21.8335 17.4698 21.7829 17.4036L21.7595 17.3763L21.7478 17.4542C21.7245 17.4347 21.6933 17.4113 21.6933 17.3802V17.3646L21.6232 17.3763L21.4751 17.2867C21.4676 17.2811 21.4598 17.2759 21.4518 17.2711L21.4362 17.2984L21.4596 17.3101C21.4907 17.3334 21.5453 17.3763 21.5492 17.4386H21.4557V17.4581C21.4557 17.4698 21.4557 17.5126 21.4206 17.6022C21.3778 17.5944 21.2141 17.536 21.1167 17.2594L21.0856 17.2672V17.275C21.0856 17.3023 21.0778 17.3646 20.9921 17.388L20.7389 17.4659C20.7611 17.434 20.772 17.3956 20.77 17.3568V17.3256C20.7653 17.2921 20.7627 17.2582 20.7622 17.2244C20.7622 17.1659 20.7739 17.1309 20.8168 17.1075L20.8012 17.0763C20.7973 17.0763 20.4272 17.2282 20.2441 17.1659C20.2519 17.127 20.2831 17.0023 20.3454 16.8698L20.3376 16.8776C20.3493 16.8698 20.361 16.8543 20.3493 16.7919V16.7725L20.3298 16.7802C20.3298 16.7802 20.2129 16.8348 20.0415 16.7725C20.0415 16.7569 20.0532 16.7335 20.0883 16.7179L20.1 16.714V16.6829C20.1 16.6361 20.1039 16.527 20.1701 16.5037L20.1623 16.4725C20.1623 16.4725 19.9636 16.4881 19.8429 16.4218C19.895 16.3843 19.9549 16.3591 20.0182 16.3478H20.0299V16.3322C20.0293 16.3014 20.0227 16.2709 20.0104 16.2426C20.0571 16.2582 20.1117 16.2699 20.1311 16.2543L20.1389 16.2504L20.1311 16.1297H20.1L20.1039 16.231L19.987 16.2037L19.9403 16.1881L19.9714 16.2271C19.9903 16.2545 19.9998 16.2873 19.9987 16.3206C19.928 16.3358 19.8615 16.3664 19.8039 16.4102L19.7844 16.4257L19.8039 16.4374C19.8974 16.4998 20.0415 16.5076 20.1156 16.5037C20.0824 16.5561 20.0648 16.6169 20.0649 16.679V16.6945C20.0494 16.7036 20.0361 16.716 20.026 16.7308C20.0159 16.7456 20.0092 16.7625 20.0065 16.7802V16.7919L20.0143 16.7958C20.1109 16.8403 20.2206 16.8472 20.322 16.8153V16.8504C20.2441 17.014 20.2052 17.1737 20.2052 17.1737V17.1893H20.2168C20.3688 17.2516 20.6337 17.1698 20.7544 17.127C20.7389 17.1542 20.7272 17.1854 20.7272 17.2244C20.7277 17.2687 20.7316 17.313 20.7389 17.3568C20.7389 17.4464 20.6804 17.4815 20.6765 17.4815L20.6882 17.5126L20.9999 17.4191C21.07 17.3997 21.0973 17.3568 21.1089 17.3217C21.2297 17.61 21.4206 17.6334 21.4323 17.6373H21.444L21.4479 17.6256C21.4685 17.5759 21.4816 17.5234 21.4868 17.4698C21.518 17.4686 21.5492 17.4673 21.5803 17.4659V17.4464C21.5803 17.4191 21.5764 17.3958 21.5647 17.3763L21.6193 17.4074L21.6699 17.3997C21.6816 17.4503 21.7439 17.4932 21.7517 17.497L21.7712 17.5087L21.7829 17.4425C21.8608 17.5087 21.966 17.4893 21.9738 17.4893L21.9855 17.4854V17.4698C21.9699 17.3646 21.8998 17.2399 21.8569 17.1737C21.9933 17.236 22.2426 17.2321 22.2543 17.2321H22.2699V17.2127C22.2185 17.0838 22.1447 16.9651 22.0517 16.8621C22.3711 16.9205 22.5426 16.753 22.5503 16.7452L22.562 16.7335L22.5465 16.7257C22.4065 16.6257 22.2547 16.5432 22.0946 16.4803L22.1296 16.4725L22.0907 16.453C22.0207 16.4173 21.9433 16.3986 21.8647 16.3985C21.8258 16.3517 21.8063 16.3478 21.8024 16.3439C21.5842 16.3206 21.5063 16.2621 21.4751 16.2154V16.2037L21.4829 16.192C21.5024 16.1647 21.5102 16.1297 21.5102 16.0907C21.5102 15.9894 21.4596 15.8765 21.4596 15.8726L21.4284 15.8842Z" fill="black"/>
        <path d="M20.4351 15.8219C20.4351 15.8219 20.4117 15.9388 20.3104 15.9972C20.2325 16.0362 20.1351 16.0362 20.0144 15.9855L19.9988 15.9816V15.9972C20.0075 16.0473 20.0354 16.0921 20.0767 16.1219C20.1273 16.1608 20.2053 16.1764 20.3065 16.1686C20.2715 16.2076 20.1663 16.34 20.1663 16.4725V16.492C20.1819 16.4998 20.3455 16.5465 20.4234 16.4491C20.4234 16.4881 20.439 16.6244 20.4896 16.6751C20.5208 16.7062 20.5286 16.7452 20.5286 16.7802C20.5286 16.8114 20.5208 16.8348 20.5208 16.8348L20.513 16.8582L20.5325 16.8426C20.5403 16.8387 20.6922 16.7257 20.739 16.5816C20.739 16.5816 20.7662 16.5426 20.813 16.5309V16.5504C20.813 16.6088 20.8363 16.7101 21 16.7724L21.0117 16.7763V16.7647C21.0112 16.7556 21.0112 16.7465 21.0117 16.7374C21.0117 16.6945 21.0117 16.6205 21.0545 16.5816C21.0718 16.5655 21.0834 16.5443 21.0876 16.5212C21.0918 16.498 21.0884 16.4741 21.0779 16.453C21.1129 16.4608 21.1909 16.4881 21.222 16.5465C21.2688 16.6322 21.4285 16.5621 21.4363 16.5621L21.4324 16.5426C21.4324 16.5426 21.3623 16.5582 21.3194 16.5309C21.3104 16.5239 21.303 16.5151 21.2977 16.505C21.2923 16.4949 21.2891 16.4839 21.2882 16.4725L21.2805 16.379C21.2805 16.34 21.2727 16.3128 21.2532 16.2933C21.2727 16.2933 21.3155 16.2933 21.3311 16.3322C21.3623 16.3946 21.4597 16.3985 21.4636 16.3985L21.4986 16.4024L21.4713 16.3829C21.4713 16.3829 21.3856 16.3283 21.4012 16.2543L21.4129 16.1998C21.4363 16.1024 21.4752 15.9427 21.4402 15.8414L21.4246 15.8492C21.4324 15.8726 21.4363 15.9037 21.4363 15.9349C21.4363 16.0206 21.409 16.1297 21.3973 16.1959L21.3817 16.2504C21.3811 16.2569 21.3811 16.2634 21.3817 16.2699C21.3817 16.3206 21.409 16.3556 21.4324 16.3751C21.4051 16.3712 21.3662 16.3556 21.3545 16.3244C21.3272 16.2699 21.2649 16.2699 21.2376 16.2738L21.2142 16.2777L21.2298 16.2933C21.2571 16.3089 21.261 16.3322 21.261 16.3829L21.2688 16.4725C21.2727 16.5036 21.2882 16.527 21.3077 16.5426C21.3311 16.5582 21.3545 16.5582 21.374 16.5621C21.3272 16.5738 21.261 16.5816 21.2376 16.5387C21.1948 16.453 21.0701 16.4335 21.0662 16.4296H21.0467L21.0545 16.4452C21.0545 16.4452 21.0701 16.4686 21.0701 16.4998C21.0701 16.5192 21.0623 16.5465 21.0428 16.566C21 16.6088 20.9922 16.6906 20.9922 16.7335V16.7491C20.8519 16.6906 20.8286 16.6049 20.8286 16.5543V16.5153L20.8363 16.5036H20.8208C20.8003 16.5071 20.7808 16.5153 20.7639 16.5274C20.7471 16.5396 20.7332 16.5554 20.7234 16.5738C20.6846 16.669 20.6215 16.7523 20.5403 16.8153C20.5425 16.8024 20.5438 16.7894 20.5442 16.7763C20.5442 16.7413 20.5364 16.6984 20.5052 16.6634C20.4468 16.6088 20.439 16.4296 20.439 16.4296V16.3985L20.4234 16.4257C20.3611 16.5348 20.1819 16.4803 20.178 16.4803C20.1702 16.3439 20.3338 16.1647 20.3338 16.1608L20.3494 16.1452H20.326C20.2208 16.1608 20.139 16.1452 20.0845 16.1063C20.0535 16.0816 20.0316 16.0474 20.0222 16.0089C20.139 16.0518 20.2403 16.0556 20.3182 16.0128C20.3519 15.9923 20.381 15.9652 20.4038 15.933C20.4266 15.9009 20.4426 15.8644 20.4507 15.8258C20.5675 15.5687 20.6649 15.5258 20.6649 15.5258L20.661 15.5103C20.6533 15.5103 20.552 15.5492 20.4351 15.8219Z" fill="black"/>
        <path d="M20.696 15.4363H20.6882L20.5947 15.5648H20.622C20.9127 15.5877 21.1853 15.715 21.3894 15.9232L21.4011 15.9349L21.4907 15.8375L21.4829 15.8259C21.2297 15.4285 20.6999 15.4363 20.6921 15.4363H20.696ZM20.7038 15.4714C20.7661 15.4714 21.218 15.483 21.4518 15.8336L21.4011 15.8882C21.1956 15.6929 20.9313 15.571 20.6493 15.5415C20.6674 15.5181 20.6856 15.4947 20.7038 15.4714Z" fill="black"/>
        <path d="M20.622 15.7013C20.58 15.7561 20.552 15.8203 20.5402 15.8883L20.5441 15.9039C20.517 15.9323 20.4961 15.966 20.4827 16.0029C20.4693 16.0397 20.4637 16.079 20.4662 16.1181C20.4662 16.1688 20.4739 16.2194 20.4895 16.2662L20.5012 16.2935C20.548 16.4259 20.5908 16.5428 20.8051 16.4727C21.0076 16.4103 21.0154 16.3947 21.0661 16.309L21.0817 16.2896C21.1089 16.2428 21.1401 16.235 21.1713 16.2233C21.2102 16.2116 21.2492 16.2 21.2881 16.1298L21.3193 16.0792C21.3583 16.0285 21.405 15.9623 21.4089 15.8844H21.3933C21.3817 15.952 21.3521 16.0153 21.3076 16.0675L21.2687 16.122C21.2602 16.1436 21.2465 16.1627 21.2288 16.1776C21.2111 16.1926 21.19 16.2029 21.1674 16.2077C21.1465 16.2117 21.1267 16.22 21.1093 16.2321C21.0919 16.2442 21.0771 16.2598 21.0661 16.2779L21.0505 16.3012C21.0038 16.3831 20.996 16.3947 20.7973 16.4571C20.6025 16.5194 20.5635 16.422 20.5168 16.2857L20.5051 16.2584C20.4506 16.1104 20.4934 15.9623 20.5674 15.9078L20.5908 15.8883L20.5558 15.8922V15.8883C20.5558 15.861 20.583 15.787 20.6337 15.713C20.6804 15.6507 20.7895 15.5922 20.7895 15.5883L20.7817 15.5728C20.7739 15.5766 20.6687 15.639 20.622 15.7013Z" fill="black"/>
        <path d="M20.5284 16.2427C20.5635 16.2661 20.6102 16.2622 20.6725 16.2427C20.6725 16.2622 20.6725 16.3089 20.7115 16.3401C20.7583 16.3791 20.8284 16.3869 20.9258 16.3635V16.344C20.8323 16.3674 20.7621 16.3596 20.7232 16.3245C20.7108 16.3125 20.7012 16.2979 20.6952 16.2817C20.6891 16.2655 20.6867 16.2482 20.6881 16.231V16.2154L20.6764 16.2232C20.618 16.2466 20.5713 16.2505 20.5362 16.2232C20.4778 16.1843 20.4817 16.0791 20.4817 16.0791H20.4661C20.4661 16.0791 20.4583 16.196 20.5284 16.2427Z" fill="black"/>
        <path d="M20.6375 16.0986C20.6141 16.1064 20.6063 16.1259 20.6063 16.1415V16.1532C20.6141 16.1999 20.6647 16.2311 20.7076 16.2428C20.7543 16.2544 20.8089 16.2583 20.8284 16.2311C20.8361 16.2194 20.8439 16.1999 20.8284 16.1648C20.8116 16.132 20.7829 16.1068 20.7481 16.0945C20.7133 16.0821 20.6751 16.0836 20.6414 16.0986H20.6375ZM20.7154 16.2272C20.6764 16.2155 20.6297 16.1882 20.6258 16.1493C20.6258 16.1493 20.6219 16.122 20.6453 16.1142C20.6754 16.102 20.709 16.1016 20.7393 16.1132C20.7697 16.1248 20.7945 16.1474 20.8089 16.1765C20.8206 16.1921 20.8206 16.2077 20.8128 16.2155C20.8011 16.235 20.7582 16.2389 20.7154 16.2272ZM20.6998 16.3324C20.6881 16.4298 20.6998 16.4336 20.7037 16.4336H20.7115L20.7193 16.4298L20.7738 16.3518L20.7037 16.3207V16.3324H20.6998ZM20.7193 16.3479L20.7465 16.3596L20.7154 16.4025V16.3479H20.7193ZM20.5557 16.2544L20.5518 16.344L20.6297 16.2506L20.5518 16.2428V16.2544H20.5557ZM20.5712 16.2622H20.5946L20.5712 16.2934V16.2622Z" fill="black"/>
        <path d="M20.5012 16.2232C20.5012 16.2232 20.5596 16.3362 20.5713 16.379C20.5752 16.4024 20.6103 16.4335 20.6492 16.4452C20.6882 16.4608 20.7271 16.4608 20.7544 16.4413L20.805 16.3985C20.8206 16.379 20.8284 16.3751 20.844 16.379V16.3595C20.8206 16.3595 20.8089 16.3673 20.7934 16.3829L20.7427 16.4219C20.7115 16.4452 20.6765 16.4374 20.657 16.4296C20.618 16.418 20.5908 16.3907 20.5869 16.3712C20.5752 16.3323 20.5207 16.2193 20.5168 16.2154L20.5012 16.2232ZM20.5791 15.8882C20.5352 15.9113 20.5017 15.9503 20.4856 15.9972L20.5012 16.0011C20.5012 16.0011 20.5284 15.931 20.583 15.9037C20.5977 15.8971 20.6136 15.8936 20.6297 15.8936C20.6459 15.8936 20.6618 15.8971 20.6765 15.9037L20.6804 15.8882C20.6414 15.8726 20.6103 15.8726 20.5752 15.8882H20.5791ZM20.9998 16.0907C21.0076 16.0907 21.1245 16.1842 21.0583 16.2933L21.0699 16.305C21.1479 16.1764 21.0115 16.0751 21.0115 16.0712L20.9998 16.0907ZM20.6414 16.1063C20.6414 16.1063 20.6219 16.1725 20.7193 16.1959C20.7193 16.1959 20.6297 16.1959 20.6219 16.1725C20.618 16.1492 20.6219 16.0985 20.6414 16.1063ZM20.9336 16.1842C20.9336 16.192 20.9258 16.1959 20.9219 16.1959C20.9194 16.1961 20.9169 16.1954 20.9148 16.194C20.9127 16.1926 20.9111 16.1905 20.9102 16.1881C20.9102 16.1803 20.9141 16.1764 20.9219 16.1764C20.9258 16.1764 20.9336 16.1803 20.9336 16.1881V16.1842ZM20.9414 16.231C20.9414 16.2349 20.9414 16.2388 20.9336 16.2388C20.9311 16.2389 20.9286 16.2382 20.9265 16.2368C20.9243 16.2354 20.9228 16.2334 20.9219 16.231C20.9219 16.2279 20.9231 16.2249 20.9253 16.2227C20.9275 16.2205 20.9305 16.2193 20.9336 16.2193C20.9375 16.2193 20.9414 16.2232 20.9414 16.231Z" fill="black"/>
        <path d="M20.8713 16.2194C20.8778 16.2194 20.883 16.2142 20.883 16.2077C20.883 16.2013 20.8778 16.196 20.8713 16.196C20.8649 16.196 20.8596 16.2013 20.8596 16.2077C20.8596 16.2142 20.8649 16.2194 20.8713 16.2194Z" fill="black"/>
        <path d="M20.9025 16.2701C20.9025 16.2732 20.9013 16.2762 20.8991 16.2783C20.8969 16.2805 20.8939 16.2818 20.8908 16.2818C20.8877 16.2818 20.8847 16.2805 20.8826 16.2783C20.8804 16.2762 20.8791 16.2732 20.8791 16.2701C20.8791 16.2662 20.883 16.2623 20.8908 16.2623L20.9025 16.2701ZM20.6259 15.9857C20.6259 15.9888 20.6247 15.9918 20.6225 15.994C20.6203 15.9962 20.6173 15.9974 20.6142 15.9974C20.6111 15.9974 20.6082 15.9962 20.606 15.994C20.6038 15.9918 20.6025 15.9888 20.6025 15.9857C20.6036 15.9841 20.6051 15.9828 20.6068 15.9819C20.6085 15.9809 20.6103 15.9805 20.6123 15.9805C20.6142 15.9805 20.6161 15.9809 20.6178 15.9819C20.6195 15.9828 20.621 15.9841 20.622 15.9857H20.6259Z" fill="black"/>
        <path d="M20.622 16.0402C20.6285 16.0402 20.6337 16.035 20.6337 16.0285C20.6337 16.0221 20.6285 16.0168 20.622 16.0168C20.6156 16.0168 20.6104 16.0221 20.6104 16.0285C20.6104 16.035 20.6156 16.0402 20.622 16.0402Z" fill="black"/>
        <path d="M20.5634 16.0207C20.5699 16.0207 20.5751 16.0155 20.5751 16.009C20.5751 16.0025 20.5699 15.9973 20.5634 15.9973C20.557 15.9973 20.5518 16.0025 20.5518 16.009C20.5518 16.0155 20.557 16.0207 20.5634 16.0207Z" fill="black"/>
        <path d="M20.5908 16.0713C20.5909 16.0739 20.5902 16.0764 20.5888 16.0785C20.5874 16.0806 20.5854 16.0822 20.583 16.083C20.5799 16.083 20.5769 16.0818 20.5747 16.0796C20.5725 16.0774 20.5713 16.0744 20.5713 16.0713C20.5713 16.0682 20.5725 16.0653 20.5747 16.0631C20.5769 16.0609 20.5799 16.0596 20.583 16.0596C20.5854 16.0605 20.5874 16.0621 20.5888 16.0642C20.5902 16.0663 20.5909 16.0688 20.5908 16.0713ZM20.7778 15.6973C20.7778 15.6973 20.9141 15.7831 20.7817 15.9428C20.7817 15.9428 20.8479 15.8921 20.8518 15.8103C20.8596 15.7285 20.805 15.6623 20.7739 15.6973H20.7778ZM21.3037 15.9272C21.2569 15.9506 21.1946 15.9077 21.1634 15.8688C21.1323 15.8298 21.066 15.8181 21.0232 15.8921C20.9842 15.9623 20.9258 15.9895 20.9258 15.9895C20.9258 15.9895 20.9842 15.9584 21.0427 15.8921C21.1011 15.8298 21.1362 15.8804 21.1946 15.9116C21.2491 15.9428 21.2608 15.9506 21.2998 15.9311V15.9272H21.3037Z" fill="black"/>
        <path d="M21.2921 15.9389C21.2797 15.9485 21.2642 15.9534 21.2485 15.9527C21.2328 15.952 21.2179 15.9457 21.2064 15.935C21.1674 15.9038 21.1402 15.8649 21.0973 15.8882C21.0506 15.9116 20.9688 15.9739 20.9688 15.9739C20.9688 15.9739 21.1051 15.8804 21.1324 15.9038C21.1557 15.9233 21.2181 15.9739 21.2531 15.9584L21.2921 15.9389Z" fill="black"/>
        <path d="M21.1867 15.9933C21.1439 15.9621 21.101 16.0323 21.066 16.0245C21.027 16.0167 20.9998 15.9543 20.9998 15.9543C20.9998 15.9543 21.0309 16.0167 21.0777 16.005C21.1283 15.9894 21.1595 15.9582 21.1906 15.9816C21.2179 16.005 21.1867 15.9933 21.1867 15.9933Z" fill="black"/>
        <path d="M21.1206 16.0052C21.1095 16.0074 21.098 16.0073 21.0869 16.0046C21.0759 16.002 21.0655 15.997 21.0566 15.9899C21.0477 15.9829 21.0405 15.974 21.0354 15.9638C21.0303 15.9537 21.0274 15.9425 21.0271 15.9312C21.0271 15.9312 21.0544 16.0013 21.1284 15.9896L21.1206 16.0052Z" fill="black"/>
        <path d="M21.1167 15.9505C21.1206 15.97 21.1206 15.9817 21.0972 15.9817C21.0739 15.9817 21.0583 15.9739 21.0583 15.9505C21.0583 15.9311 21.1128 15.935 21.1167 15.9505ZM20.8129 15.8337C20.8119 15.8402 20.8086 15.8462 20.8036 15.8505C20.7986 15.8548 20.7922 15.8571 20.7856 15.857C20.77 15.857 20.7661 15.8492 20.7661 15.8337C20.7661 15.8181 20.7661 15.8064 20.7856 15.8064C20.8051 15.8064 20.8129 15.8181 20.8129 15.8337Z" fill="black"/>
        <path d="M20.7156 15.7363C20.7156 15.7363 20.8636 15.7363 20.7935 15.9194C20.7935 15.9194 20.848 15.8298 20.813 15.7636C20.774 15.7012 20.7234 15.7168 20.7234 15.7168C20.7234 15.7168 20.7078 15.7285 20.7156 15.7363Z" fill="black"/>
        <path d="M20.7156 15.8104C20.7156 15.8493 20.7389 15.8844 20.7857 15.9234L20.7974 15.9078C20.7545 15.8727 20.7311 15.8415 20.7311 15.8104C20.7311 15.7792 20.7545 15.7597 20.7545 15.7597L20.7428 15.748C20.7428 15.748 20.7156 15.7714 20.7117 15.8104H20.7156Z" fill="black"/>
        <path d="M20.7466 15.8413C20.7505 15.8608 20.7699 15.8803 20.7933 15.8881L20.8011 15.8725C20.7816 15.8647 20.766 15.8491 20.7621 15.8335C20.7544 15.8024 20.7777 15.7673 20.7777 15.7673L20.7621 15.7556C20.7621 15.7556 20.7349 15.8024 20.7466 15.8413ZM20.9452 15.9426C20.9452 15.9426 20.9725 16.001 20.9336 16.0634L20.8946 16.1257C20.8946 16.1257 20.9413 16.0361 20.9219 16.001C20.9063 15.9621 20.9452 15.9426 20.9452 15.9426ZM21.514 16.5581C21.662 16.5854 22.001 16.8503 22.001 16.8503L22.0204 16.8269C22.0088 16.8152 21.6737 16.5542 21.5179 16.527L21.5101 16.5581H21.514ZM21.6465 16.9282C21.6543 17.0646 21.8023 17.1464 21.8023 17.1503L21.8218 17.123C21.8218 17.123 21.6854 17.0451 21.6776 16.9282H21.6465ZM21.2842 16.9594C21.2842 17.1074 21.4244 17.2866 21.4322 17.2944L21.4556 17.2749C21.4556 17.2749 21.3153 17.0957 21.3153 16.9594H21.2842ZM20.8128 16.975C20.8362 17.0256 20.8362 17.049 20.8284 17.0607C20.8206 17.0762 20.805 17.0762 20.805 17.0762L20.8089 17.1074C20.8206 17.1074 20.844 17.0996 20.8556 17.0762C20.8712 17.049 20.8673 17.01 20.8401 16.9594L20.8128 16.975Z" fill="black"/>
        <path d="M18.6914 16.2364C18.6914 16.2364 18.6914 16.336 18.7734 16.3946C18.7734 16.3946 18.7617 16.2891 18.7852 16.2423C18.7852 16.2423 18.7441 16.1954 18.6855 16.2423L18.6914 16.2364ZM18.8438 16.3009C18.8438 16.3009 18.8613 16.3888 18.9141 16.4298L18.9434 16.4239C18.9434 16.4239 18.9609 16.3067 18.9785 16.295C18.9961 16.2833 18.9023 16.336 18.8438 16.3009Z" fill="white" stroke="black" stroke-width="0.025" stroke-miterlimit="3"/>
        <path d="M18.9785 16.2949L19.0371 16.3887L19.1074 16.3535L19.0898 16.2422C19.0898 16.2422 19.0488 16.2305 18.9727 16.3008L18.9785 16.2949Z" fill="white" stroke="black" stroke-width="0.025" stroke-miterlimit="3"/>
        <path d="M19.2538 16.3126L19.1777 16.377C19.1777 16.377 19.1366 16.3477 19.1015 16.3536L19.1191 16.254C19.1191 16.254 19.1777 16.213 19.2538 16.3126ZM18.703 17.2501C18.703 17.2501 18.6913 17.1153 18.7089 17.1036C18.7089 17.1036 18.7675 17.1212 18.7851 17.1036C18.7851 17.1036 18.8202 17.2149 18.8085 17.2559C18.8027 17.3028 18.7499 17.2852 18.703 17.2559V17.2501ZM19.0546 17.1094C19.0546 17.1094 19.0546 16.9923 19.0722 16.9747C19.0722 16.9747 19.1894 16.9923 19.2128 16.9337L19.2538 17.045C19.2538 17.045 19.1249 17.0333 19.0546 17.1036V17.1094Z" fill="white" stroke="black" stroke-width="0.025" stroke-miterlimit="3"/>
        <path d="M18.9316 17.1328C18.9316 17.1328 18.9551 17.0098 18.9785 17.0039C18.9785 17.0039 19.0371 17.0215 19.0547 17.0039V17.1504C19.0547 17.1504 19.0547 17.0859 18.9375 17.1328H18.9316ZM18.8027 17.1504C18.8027 17.1504 18.8262 17.0391 18.8438 17.0391C18.8613 17.0391 18.9082 17.0684 18.9316 17.0508V17.1328C18.9316 17.1328 18.832 17.1094 18.8145 17.25L18.8027 17.1504Z" fill="white"/>
        <path d="M18.9316 17.1328C18.9316 17.1328 18.9551 17.0098 18.9785 17.0039C18.9785 17.0039 19.0371 17.0215 19.0547 17.0039V17.1504C19.0547 17.1504 19.0547 17.0859 18.9375 17.1328H18.9316ZM18.9316 17.1328V17.0508C18.9082 17.0684 18.8613 17.0391 18.8438 17.0391C18.8262 17.0391 18.8027 17.1504 18.8027 17.1504L18.8145 17.25C18.832 17.1094 18.9316 17.1328 18.9316 17.1328Z" stroke="black" stroke-width="0.025" stroke-miterlimit="3"/>
        <path d="M20.5664 19.4063C20.5664 19.4063 20.877 19.6993 20.8008 19.9454C20.8008 19.9454 20.9942 19.5176 20.7832 19.3946C20.5664 19.2657 20.5606 19.3653 20.5664 19.4063Z" fill="#00A651" stroke="black" stroke-width="0.0625" stroke-miterlimit="4.8"/>
        <path d="M20.1797 19.6875C20.1797 19.6875 20.0977 19.7988 20.1856 19.875C20.1856 19.875 20.0918 20.0156 20.1621 20.1328C20.1621 20.1328 20.1035 20.2558 20.1211 20.3906C20.1211 20.3906 20.0684 20.5957 20.1797 20.6894C20.1797 20.6894 20.2969 20.748 20.3496 20.7011C20.3496 20.7011 20.4492 20.5429 20.3848 20.3847C20.3848 20.3847 20.461 20.25 20.3789 20.0859C20.3789 20.0859 20.4024 19.9863 20.3321 19.875C20.3321 19.875 20.3789 19.8047 20.3379 19.7461C20.3379 19.7461 20.1914 19.5937 20.1797 19.6875Z" fill="#964B36" stroke="black" stroke-width="0.0625" stroke-miterlimit="4.8"/>
        <path d="M20.2676 19.3242C20.2676 19.3242 19.8984 18.6211 19.6406 18.5918C19.3887 18.5625 19.3711 18.3105 19.3711 18.3105C19.3711 18.3105 19.4004 18.4277 19.6055 18.4277C19.8105 18.4277 20.209 18.7207 20.25 18.9375C20.2969 19.1602 20.3379 19.1309 20.3379 19.1309L20.2676 19.3242Z" fill="#00A651" stroke="black" stroke-width="0.0625" stroke-miterlimit="4.8"/>
        <path d="M20.2678 19.2773C20.2678 19.2773 20.4025 18.3867 20.9826 18.3691C21.5627 18.3516 21.3693 18.416 21.5099 18.3223C21.5099 18.3223 21.1174 18.5273 20.8771 18.5566C20.6369 18.5859 20.4377 19.0547 20.4435 19.1426C20.4494 19.2305 20.3146 19.4004 20.2443 19.3418C20.1799 19.2832 20.2678 19.2773 20.2678 19.2773Z" fill="#00A651" stroke="black" stroke-width="0.0625" stroke-miterlimit="4.8"/>
        <path d="M20.3966 19.6054C20.3966 19.6054 20.5314 19.2538 20.7599 19.371C20.7599 19.371 20.5841 19.0312 20.2677 19.3242C20.2677 19.3242 20.4084 19.5175 20.4025 19.6054H20.3966ZM19.9572 19.2538C19.9572 19.2538 20.1564 20.039 19.8634 20.2734C19.8634 20.2734 19.8693 19.8691 19.6935 19.6288C19.5177 19.3886 19.8693 19.1249 19.963 19.248L19.9572 19.2538Z" fill="#00A651" stroke="black" stroke-width="0.0625" stroke-miterlimit="4.8"/>
        <path d="M19.9805 19.3945C19.9805 19.3945 20.332 19.7227 20.3496 19.834C20.373 19.9453 20.4492 19.5059 20.291 19.377C20.1906 19.3025 20.0743 19.2524 19.9512 19.2305L19.9805 19.3945Z" fill="#00A651" stroke="black" stroke-width="0.0625" stroke-miterlimit="4.8"/>
        <path d="M19.3418 20.2617C19.3418 20.2617 19.377 20.3965 19.459 20.4258C19.459 20.4258 19.4648 20.5254 19.541 20.5605C19.541 20.5605 19.5 20.6426 19.5703 20.6953C19.5703 20.6953 19.5527 20.8711 19.6172 20.9062C19.6172 20.9062 19.7695 20.8945 19.8223 20.8477C19.8223 20.8477 19.8574 20.7363 19.7695 20.625C19.7695 20.625 19.7813 20.5195 19.6992 20.4609C19.6992 20.4609 19.7227 20.3145 19.6172 20.2617C19.6172 20.2617 19.5996 20.1445 19.5352 20.0859C19.5352 20.0859 19.4004 20.2734 19.3418 20.2617Z" fill="#964B36" stroke="black" stroke-width="0.0625" stroke-miterlimit="4.8"/>
        <path d="M19.5117 20.0918C19.5117 20.0918 19.0605 19.9218 18.8086 20.1621C18.8086 20.1621 19.1953 20.2148 19.248 20.291C19.2949 20.3672 19.5352 20.1679 19.5176 20.0918H19.5117Z" fill="#00A651" stroke="black" stroke-width="0.0625" stroke-miterlimit="4.8"/>
        <path d="M19.3771 20.3731L19.295 20.3086C19.2482 20.2793 18.8673 20.1738 18.8146 20.543C18.8146 20.543 18.6798 20.1797 18.879 20.1328C19.0782 20.0742 19.2423 20.1914 19.3771 20.3672M19.0782 19.6231C19.0782 19.6231 19.2189 19.916 19.2716 19.9395C19.3185 19.9512 19.3595 19.8984 19.3595 19.8984C19.3595 19.8984 19.172 19.6289 19.0782 19.6231ZM18.9728 19.1543C18.9728 19.1543 18.8556 18.7676 18.7208 18.8731C18.5802 18.9727 18.6154 19.2539 18.6154 19.2539C18.6154 19.2539 18.3341 18.9668 18.4982 18.7383C18.6622 18.5098 18.9786 18.7617 18.9786 19.1602L18.9728 19.1543Z" fill="#00A651"/>
        <path d="M19.3771 20.3731L19.295 20.3086C19.2482 20.2793 18.8673 20.1738 18.8146 20.543C18.8146 20.543 18.6798 20.1797 18.879 20.1328C19.0782 20.0742 19.2423 20.1914 19.3771 20.3672M19.0782 19.6231C19.0782 19.6231 19.2189 19.916 19.2716 19.9395C19.3185 19.9512 19.3595 19.8984 19.3595 19.8984C19.3595 19.8984 19.172 19.6289 19.0782 19.6231ZM18.9728 19.1543C18.9728 19.1543 18.8556 18.7676 18.7208 18.8731C18.5802 18.9727 18.6154 19.2539 18.6154 19.2539C18.6154 19.2539 18.3341 18.9668 18.4982 18.7383C18.6622 18.5098 18.9786 18.7617 18.9786 19.1602L18.9728 19.1543Z" stroke="black" stroke-width="0.0625" stroke-miterlimit="4.8"/>
        <path d="M19.2891 19.9571C19.2891 19.9571 19.2891 20.0333 19.3477 20.0508C19.3945 20.0743 19.4883 20.1094 19.4883 20.0684C19.4883 20.0274 19.418 19.8575 19.3887 19.875C19.3594 19.8985 19.3066 19.8985 19.2891 19.9571Z" fill="#964B36" stroke="black" stroke-width="0.0625" stroke-miterlimit="4.8"/>
        <path d="M19.2013 19.5059C19.2013 19.5059 19.1896 19.166 19.4064 19.0371C19.4064 19.0371 19.4532 19.0488 19.4767 18.9785C19.4767 18.9785 19.3009 19.4062 19.3478 19.623V19.6523" fill="#00A651"/>
        <path d="M19.2013 19.5059C19.2013 19.5059 19.1896 19.166 19.4064 19.0371C19.4064 19.0371 19.4532 19.0488 19.4767 18.9785C19.4767 18.9785 19.3009 19.4062 19.3478 19.623V19.6523" stroke="black" stroke-width="0.0625" stroke-miterlimit="4.8"/>
        <path d="M19.248 19.0898C19.248 19.0898 19.6465 18.2695 20.127 18.5566C20.127 18.5566 19.623 18.6562 19.4414 19.0195L19.2539 19.289L19.248 19.0898Z" fill="#00A651" stroke="black" stroke-width="0.0625" stroke-miterlimit="4.8"/>
        <path d="M19.0371 19.3946C19.0371 19.3946 18.9199 18.8438 18.8437 18.7676C18.7676 18.6973 18.6445 18.6153 18.498 18.7383C18.498 18.7383 18.7559 18.5098 19.0254 18.7032C19.3008 18.8965 19.2422 19.1954 19.2422 19.1954L19.2129 19.5762L19.0254 19.4063" fill="#00A651"/>
        <path d="M19.0371 19.3946C19.0371 19.3946 18.9199 18.8438 18.8437 18.7676C18.7676 18.6973 18.6445 18.6153 18.498 18.7383C18.498 18.7383 18.7559 18.5098 19.0254 18.7032C19.3008 18.8965 19.2422 19.1954 19.2422 19.1954L19.2129 19.5762L19.0254 19.4063" stroke="black" stroke-width="0.0625" stroke-miterlimit="4.8"/>
        <path d="M19.4591 20.0449C19.4591 20.0449 18.9727 19.1308 18.6622 19.7812C18.6622 19.7812 18.6036 19.9511 18.6622 20.0156C18.6622 20.0156 18.4864 19.8867 18.5684 19.5585C18.6505 19.2421 19.1895 19.3828 19.3419 19.6523C19.4942 19.916 19.5411 20.0449 19.5177 20.0624C19.4942 20.0742 19.4591 20.0449 19.4591 20.0449ZM20.8243 20.3085C20.8243 20.3085 21.1759 19.582 21.3868 19.916C21.3868 19.916 21.4454 20.0742 21.3516 20.1445C21.3516 20.1445 21.2169 19.9687 21.088 20.1796C20.9708 20.3847 21.0177 20.3671 21.0177 20.3671C21.0177 20.3671 20.8829 20.4081 20.8243 20.3085Z" fill="#00A651" stroke="black" stroke-width="0.0625" stroke-miterlimit="4.8"/>
        <path d="M21.3516 20.1445C21.3516 20.1445 21.5449 20.2441 21.4805 20.4492C21.4805 20.4492 21.7383 19.957 21.3809 19.916C21.3809 19.916 21.4512 20.0684 21.3574 20.1445H21.3516ZM21.375 19.6406C21.375 19.6406 21.8437 19.7754 21.8555 19.9746C21.8555 19.9746 21.9316 19.5937 21.668 19.4766C21.668 19.4766 21.3516 19.5234 21.375 19.6406Z" fill="#00A651" stroke="black" stroke-width="0.0625" stroke-miterlimit="4.8"/>
        <path d="M21.5801 19.0311C21.7793 18.6444 22.0312 19.16 22.0312 19.16C22.0312 19.16 22.1191 18.7499 21.8672 18.6796C21.6152 18.6093 21.457 19.5409 21.457 19.5409L21.1641 19.6054C21.1641 19.6054 21.2461 18.7909 21.6855 18.7147L21.7383 18.7264" fill="#00A651"/>
        <path d="M21.5801 19.0311C21.7793 18.6444 22.0312 19.16 22.0312 19.16C22.0312 19.16 22.1191 18.7499 21.8672 18.6796C21.6152 18.6093 21.457 19.5409 21.457 19.5409L21.1641 19.6054C21.1641 19.6054 21.2461 18.7909 21.6855 18.7147L21.7383 18.7264" stroke="black" stroke-width="0.0625" stroke-miterlimit="4.8"/>
        <path d="M21.2286 19.2656C21.2286 19.2656 20.9473 18.6972 20.7598 18.6386C20.5665 18.58 20.8653 18.4921 20.9825 18.5976C21.0997 18.7148 21.3165 18.8496 21.293 19.1425L21.2344 19.2656H21.2286ZM20.9415 20.0507C20.9415 20.0507 21.0235 19.664 21.2461 19.5468C21.4629 19.4296 21.668 19.4707 21.668 19.4707C21.668 19.4707 21.4043 19.5293 21.3633 19.664C21.3165 19.7988 21.2461 19.8046 21.2461 19.8046L20.9415 20.0507Z" fill="#00A651" stroke="black" stroke-width="0.0625" stroke-miterlimit="4.8"/>
        <path d="M20.8242 20.3086C20.8242 20.3086 20.7012 20.543 20.7305 20.584C20.7305 20.584 20.5957 20.7715 20.6485 20.8711C20.6485 20.8711 20.7832 20.9707 20.8418 20.9297C20.8418 20.9297 20.9942 20.7129 20.9532 20.5957C20.9532 20.5957 21.0528 20.4551 21.0117 20.3672C21.0117 20.3672 20.8653 20.3789 20.8242 20.3086Z" fill="#964B36" stroke="black" stroke-width="0.0625" stroke-miterlimit="4.8"/>
        <path d="M20.1797 19.8926C20.1855 19.8926 20.2617 19.9336 20.3145 19.916L20.3496 19.8867L20.3203 19.8691C20.3027 19.9043 20.2207 19.875 20.1914 19.8633L20.1797 19.8926ZM20.168 20.1211L20.1621 20.1504C20.168 20.1504 20.3145 20.1797 20.3906 20.1152L20.3672 20.0918C20.3086 20.1504 20.168 20.1211 20.168 20.1211ZM20.127 20.3789L20.1094 20.4023C20.1094 20.4023 20.2852 20.5313 20.4023 20.3965L20.373 20.373C20.2793 20.4902 20.1387 20.3848 20.1328 20.373L20.127 20.3789ZM19.459 20.4141V20.4316C19.4707 20.4316 19.6172 20.373 19.6289 20.2617H19.6113C19.5996 20.3613 19.459 20.4141 19.459 20.4141ZM19.541 20.5488V20.5664C19.5469 20.5664 19.6816 20.5547 19.7051 20.4609H19.6875C19.6699 20.543 19.541 20.5488 19.541 20.5488ZM19.5703 20.6895V20.707C19.5703 20.707 19.7285 20.7129 19.7754 20.6309L19.7637 20.6191C19.7168 20.6953 19.5703 20.6895 19.5703 20.6895ZM20.7188 20.5957C20.7188 20.5957 20.7891 20.6602 20.8652 20.6543C20.8842 20.6539 20.9029 20.6496 20.92 20.6415C20.9372 20.6334 20.9525 20.6218 20.9648 20.6074L20.9414 20.5898C20.9212 20.6106 20.8941 20.6231 20.8652 20.625C20.8419 20.6239 20.8189 20.6182 20.7978 20.6081C20.7767 20.5981 20.7578 20.5839 20.7422 20.5664L20.7188 20.5957Z" fill="black"/>
        <path d="M25.2773 21.1289C25.2683 21.1329 25.2603 21.1389 25.2539 21.1465L25.2773 21.1289ZM25.8164 20.9941C25.8164 20.9824 25.8105 20.9883 25.8047 20.9824L25.7812 20.9355H25.7637L25.7227 20.8535C25.7236 20.8497 25.7236 20.8456 25.7227 20.8418C25.7229 20.834 25.7229 20.8262 25.7227 20.8184C25.7168 20.8125 25.7109 20.8184 25.7051 20.8066V20.7656L25.6992 20.7422V20.707C25.7 20.6992 25.7 20.6914 25.6992 20.6836C25.6875 20.6602 25.6758 20.6426 25.6758 20.6133L25.6816 20.5547L25.6699 20.4961L25.6816 20.4434V20.1328C25.6699 20.1094 25.6758 20.0918 25.6699 20.0742V19.957L25.6641 20.1035C25.6641 19.9746 25.6523 19.8516 25.6523 19.8516L25.459 19.7637C25.459 19.7637 25.4414 20.1211 25.4473 20.1738C25.4473 20.2207 25.4648 20.5664 25.459 20.6074C25.4473 20.6484 25.4297 20.8535 25.4297 20.8535C25.4297 20.8535 25.3359 20.9238 25.2949 21C25.2598 21.0703 25.2656 21.0996 25.2539 21.0996L25.3477 21.082L25.2773 21.1289C25.2841 21.1262 25.2914 21.1252 25.2986 21.1263C25.3059 21.1273 25.3127 21.1302 25.3184 21.1348L25.3359 21.1465L25.3477 21.1348L25.3887 21.1582L25.4121 21.1406L25.4238 21.1172H25.4883C25.5059 21.1172 25.5176 21.0938 25.5352 21.0762C25.5527 21.0645 25.5645 21.0586 25.582 21.0586C25.5996 21.0586 25.6172 21.0762 25.6348 21.082C25.6465 21.082 25.6582 21.082 25.6699 21.0645L25.6875 21.0293H25.7988L25.8164 21.041L25.8223 21.0176V20.9941H25.8164Z" fill="#964B36"/>
        <path d="M25.2773 21.1289C25.2683 21.1329 25.2603 21.1389 25.2539 21.1465L25.2773 21.1289ZM25.2773 21.1289L25.3477 21.082L25.2539 21.0996C25.2656 21.0996 25.2598 21.0703 25.2949 21C25.3359 20.9238 25.4297 20.8535 25.4297 20.8535C25.4297 20.8535 25.4473 20.6484 25.459 20.6074C25.4648 20.5664 25.4473 20.2207 25.4473 20.1738C25.4414 20.1211 25.459 19.7637 25.459 19.7637L25.6523 19.8516C25.6523 19.8516 25.6641 19.9746 25.6641 20.1035L25.6699 19.957V20.0742C25.6758 20.0918 25.6699 20.1094 25.6816 20.1328V20.4434L25.6699 20.4961L25.6816 20.5547L25.6758 20.6133C25.6758 20.6426 25.6875 20.6602 25.6992 20.6836C25.7 20.6914 25.7 20.6992 25.6992 20.707V20.7422L25.7051 20.7656V20.8066C25.7109 20.8184 25.7168 20.8125 25.7227 20.8184C25.7229 20.8262 25.7229 20.834 25.7227 20.8418C25.7236 20.8456 25.7236 20.8497 25.7227 20.8535L25.7637 20.9355H25.7812L25.8047 20.9824C25.8105 20.9883 25.8164 20.9824 25.8164 20.9941H25.8223V21.0176L25.8164 21.041L25.7988 21.0293H25.6875L25.6699 21.0645C25.6582 21.082 25.6465 21.082 25.6348 21.082C25.6172 21.0762 25.5996 21.0586 25.582 21.0586C25.5645 21.0586 25.5527 21.0645 25.5352 21.0762C25.5176 21.0938 25.5059 21.1172 25.4883 21.1172H25.4238L25.4121 21.1406L25.3887 21.1582L25.3477 21.1348L25.3359 21.1465L25.3184 21.1348C25.3127 21.1302 25.3059 21.1273 25.2986 21.1263C25.2914 21.1252 25.2841 21.1262 25.2773 21.1289Z" stroke="black" stroke-width="0.0375" stroke-miterlimit="4.8"/>
        <path d="M25.4238 21.123L25.4531 21.1289L25.459 21.1406C25.4608 21.1416 25.4628 21.1421 25.4648 21.1421C25.4669 21.1421 25.4689 21.1416 25.4707 21.1406L25.4883 21.1464H25.5059L25.5293 21.1523C25.541 21.1582 25.5527 21.1523 25.5645 21.1464C25.5762 21.1347 25.582 21.1464 25.5937 21.1582C25.6055 21.1699 25.6055 21.164 25.6113 21.1582C25.6113 21.1562 25.6113 21.1543 25.6113 21.1523L25.6289 21.1464L25.6523 21.1406L25.6699 21.1289L25.6934 21.1406C25.6975 21.142 25.7015 21.1439 25.7051 21.1464C25.7168 21.1289 25.7402 21.123 25.752 21.1113H25.8281C25.834 21.1054 25.834 21.0996 25.8457 21.0996L25.8867 21.123C25.8926 21.123 25.9277 21.1347 25.9219 21.1054C25.9219 21.082 25.8984 21.0996 25.8926 21.082V21.0468C25.8905 21.0415 25.8874 21.0367 25.8833 21.0326C25.8793 21.0286 25.8745 21.0255 25.8691 21.0234H25.8516L25.8398 20.9941C25.834 20.9941 25.8281 21 25.8164 20.9941L25.8047 20.9824C25.7871 20.9648 25.7754 20.9941 25.7637 20.9882C25.752 20.9882 25.7402 20.9589 25.7285 20.9472C25.7285 20.9414 25.7109 20.9179 25.7051 20.9238C25.6934 20.9296 25.7051 20.9531 25.6992 20.9648C25.6934 20.9707 25.6758 20.9648 25.6758 20.9648C25.6641 20.9648 25.6641 20.9648 25.6582 20.9824C25.6406 21 25.6348 21.0175 25.6172 21.0175L25.5879 21.0058C25.582 21.0117 25.5762 21.0234 25.5645 21.0234C25.5567 21.025 25.5487 21.025 25.541 21.0234C25.5293 21.0234 25.5234 21.0058 25.5176 21C25.5176 20.9984 25.517 20.9969 25.5159 20.9958C25.5148 20.9947 25.5133 20.9941 25.5117 20.9941C25.5102 20.9941 25.5087 20.9947 25.5076 20.9958C25.5065 20.9969 25.5059 20.9984 25.5059 21L25.4941 20.9941C25.4824 20.9882 25.4824 20.9941 25.4766 21.0058V21.0351L25.4531 21.0585L25.4297 21.0644C25.4238 21.0644 25.4121 21.082 25.4063 21.0644C25.4004 21.041 25.4238 21 25.3945 21.0058C25.3945 21.0058 25.3828 21.0058 25.377 21.0234V21.0585C25.377 21.0761 25.3418 21.1054 25.3477 21.1171C25.3477 21.1347 25.3652 21.1171 25.3711 21.1171C25.377 21.123 25.3711 21.1347 25.3828 21.1406C25.3887 21.1582 25.4238 21.1171 25.4238 21.1406M25.3008 20.9824V20.9765L25.2715 20.9648L25.248 20.9882C25.2305 21.0175 25.2363 21.0468 25.207 21.0468H25.1836C25.1719 21.0527 25.1836 21.0761 25.1836 21.0878V21.1054C25.1777 21.1054 25.1719 21.1054 25.166 21.1171C25.166 21.1406 25.1836 21.1347 25.1895 21.1347H25.248L25.2832 21.123L25.3125 21.1171C25.3176 21.1079 25.3215 21.0981 25.3242 21.0878V21.0644C25.3242 21.0527 25.3359 21.0585 25.3418 21.041C25.3418 21 25.3008 21.0293 25.3066 20.9882" fill="#964B36"/>
        <path d="M25.4238 21.123L25.4531 21.1289L25.459 21.1406C25.4608 21.1416 25.4628 21.1421 25.4648 21.1421C25.4669 21.1421 25.4689 21.1416 25.4707 21.1406L25.4883 21.1464H25.5059L25.5293 21.1523C25.541 21.1582 25.5527 21.1523 25.5645 21.1464C25.5762 21.1347 25.582 21.1464 25.5937 21.1582C25.6055 21.1699 25.6055 21.164 25.6113 21.1582C25.6113 21.1562 25.6113 21.1543 25.6113 21.1523L25.6289 21.1464L25.6523 21.1406L25.6699 21.1289L25.6934 21.1406C25.6975 21.142 25.7015 21.1439 25.7051 21.1464C25.7168 21.1289 25.7402 21.123 25.752 21.1113H25.8281C25.834 21.1054 25.834 21.0996 25.8457 21.0996L25.8867 21.123C25.8926 21.123 25.9277 21.1347 25.9219 21.1054C25.9219 21.082 25.8984 21.0996 25.8926 21.082V21.0468C25.8905 21.0415 25.8874 21.0367 25.8833 21.0326C25.8793 21.0286 25.8745 21.0255 25.8691 21.0234H25.8516L25.8398 20.9941C25.834 20.9941 25.8281 21 25.8164 20.9941L25.8047 20.9824C25.7871 20.9648 25.7754 20.9941 25.7637 20.9882C25.752 20.9882 25.7402 20.9589 25.7285 20.9472C25.7285 20.9414 25.7109 20.9179 25.7051 20.9238C25.6934 20.9296 25.7051 20.9531 25.6992 20.9648C25.6934 20.9707 25.6758 20.9648 25.6758 20.9648C25.6641 20.9648 25.6641 20.9648 25.6582 20.9824C25.6406 21 25.6348 21.0175 25.6172 21.0175L25.5879 21.0058C25.582 21.0117 25.5762 21.0234 25.5645 21.0234C25.5567 21.025 25.5487 21.025 25.541 21.0234C25.5293 21.0234 25.5234 21.0058 25.5176 21C25.5176 20.9984 25.517 20.9969 25.5159 20.9958C25.5148 20.9947 25.5133 20.9941 25.5117 20.9941C25.5102 20.9941 25.5087 20.9947 25.5076 20.9958C25.5065 20.9969 25.5059 20.9984 25.5059 21L25.4941 20.9941C25.4824 20.9882 25.4824 20.9941 25.4766 21.0058V21.0351L25.4531 21.0585L25.4297 21.0644C25.4238 21.0644 25.4121 21.082 25.4063 21.0644C25.4004 21.041 25.4238 21 25.3945 21.0058C25.3945 21.0058 25.3828 21.0058 25.377 21.0234V21.0585C25.377 21.0761 25.3418 21.1054 25.3477 21.1171C25.3477 21.1347 25.3652 21.1171 25.3711 21.1171C25.377 21.123 25.3711 21.1347 25.3828 21.1406C25.3887 21.1582 25.4238 21.1171 25.4238 21.1406M25.3008 20.9824V20.9765L25.2715 20.9648L25.248 20.9882C25.2305 21.0175 25.2363 21.0468 25.207 21.0468H25.1836C25.1719 21.0527 25.1836 21.0761 25.1836 21.0878V21.1054C25.1777 21.1054 25.1719 21.1054 25.166 21.1171C25.166 21.1406 25.1836 21.1347 25.1895 21.1347H25.248L25.2832 21.123L25.3125 21.1171C25.3176 21.1079 25.3215 21.0981 25.3242 21.0878V21.0644C25.3242 21.0527 25.3359 21.0585 25.3418 21.041C25.3418 21 25.3008 21.0293 25.3066 20.9882" stroke="black" stroke-width="0.0375" stroke-miterlimit="4.8"/>
        <path d="M25.793 19.8457C25.793 19.9043 25.7578 19.9453 25.7109 19.9453C25.6641 19.9453 25.6289 19.8984 25.6289 19.8457C25.6289 19.793 25.6641 19.752 25.7109 19.752C25.7578 19.752 25.793 19.793 25.793 19.8457ZM25.5293 19.7285C25.5293 19.7871 25.4883 19.8223 25.4473 19.8223C25.4004 19.8223 25.3652 19.7813 25.3652 19.7285C25.3652 19.6758 25.4004 19.6348 25.4473 19.6348C25.4883 19.6348 25.5293 19.6758 25.5293 19.7285Z" fill="black" stroke="black" stroke-width="0.0625" stroke-miterlimit="4.8"/>
        <path d="M25.6641 19.7637C25.6641 19.8223 25.6289 19.8633 25.5879 19.8633C25.541 19.8633 25.5059 19.8164 25.5059 19.7637C25.5059 19.7109 25.541 19.6699 25.5879 19.6699C25.6289 19.6699 25.6641 19.7109 25.6641 19.7637Z" fill="black" stroke="black" stroke-width="0.0625" stroke-miterlimit="4.8"/>
        <path d="M25.5293 19.8516C25.5293 19.9102 25.4941 19.9512 25.4531 19.9512C25.4062 19.9512 25.3711 19.9043 25.3711 19.8516C25.3711 19.7988 25.4062 19.7578 25.4531 19.7578C25.4941 19.7578 25.5293 19.7988 25.5293 19.8516Z" fill="black" stroke="black" stroke-width="0.0625" stroke-miterlimit="4.8"/>
        <path d="M25.6582 19.9219C25.6582 19.9805 25.623 20.0215 25.5762 20.0215C25.5293 20.0215 25.4941 19.9805 25.4941 19.9277C25.4941 19.8691 25.5293 19.8281 25.5762 19.8281C25.623 19.8281 25.6582 19.875 25.6582 19.9277V19.9219Z" fill="black" stroke="black" stroke-width="0.0625" stroke-miterlimit="4.8"/>
        <path d="M25.6934 18.8848C25.6934 18.8848 26.5137 17.748 27.3867 18.9316C27.3867 18.9316 27.3867 19.0488 27.3105 19.166L27.2871 19.0781L27.2402 19.0898L27.2227 19.0312L27.1289 19.0254L27.1582 18.9023L27.0527 18.9785L27.0703 18.8906L26.9531 19.0078L26.9648 18.7617L26.8418 18.9727L26.8535 18.8262L26.8125 18.8906L26.7832 18.8086L26.748 18.8906L26.6895 18.8496V18.9082L26.584 18.8203L26.5488 18.9375L26.4902 18.8145L26.4785 18.8965L26.4316 18.7969L26.4199 18.9082L26.2559 18.832L26.291 18.9375L26.209 18.8789L26.2266 18.9375L26.1094 18.9141L26.1211 18.9785L26.0039 18.9609L26.0273 19.0195L25.8633 18.9961L25.9219 19.0605L25.9043 19.0898C25.9043 19.0898 26.7891 18.7969 26.8477 19.8984L26.6895 19.9805L26.7305 19.8926L26.6895 19.8633L26.5547 19.7578L26.5898 19.6172L26.5488 19.6348L26.5371 19.5527L26.5195 19.5703L26.4609 19.4883L26.4492 19.5176L26.4141 19.418L26.3789 19.4883L26.3555 19.3242L26.2969 19.4297L26.291 19.3711L26.2676 19.4063L26.1973 19.3184L26.1738 19.377L26.1445 19.3301L26.1211 19.3887L26.0391 19.3125V19.3711L25.9922 19.3242L25.9688 19.3535L25.8398 19.2891V19.3477L25.7695 19.2891L25.7461 19.3477C25.7461 19.3477 26.5488 19.8047 26.2969 20.543L26.2559 20.6426L26.2383 20.3906L26.168 20.5254L26.2148 20.2324L26.168 20.291L26.1562 20.1738L26.0918 20.291L26.0684 20.1621L26.0391 20.1973L25.998 20.0098L25.957 20.0918L25.8984 19.875L25.8574 19.9629L25.8281 19.7813L25.7988 19.8926L25.7109 19.7285L25.6934 19.793L25.6465 19.6641L25.6172 19.7051C25.6172 19.7051 25.4707 19.7051 25.4238 19.6641C25.377 19.6289 25.2539 19.8867 25.2539 19.8867L25.2715 19.7285L25.2129 19.834V19.7285L25.125 20.0391L25.1016 19.8164L25.0488 20.0098L25.0254 19.9512L25.0137 20.0332L24.9844 20.0039L24.9551 20.0859L24.9082 20.0508V20.168L24.8672 20.1094L24.8262 20.2852L24.8086 20.2148V20.2969L24.7676 20.25L24.7324 20.4258L24.6797 20.3555V20.4785L24.6973 20.5723L24.6387 20.543L24.6621 20.7012C24.6621 20.7012 24.4277 20.2734 24.7031 19.8633C24.9785 19.4531 25.3477 19.3359 25.3477 19.3359L25.3066 19.3066L25.3008 19.2656L25.0781 19.3828L25.084 19.3125L25.0254 19.3594L25.0137 19.2891L24.9785 19.3535L24.9668 19.3242L24.9199 19.4063L24.8906 19.2891L24.8496 19.4297L24.8145 19.3301L24.7383 19.541V19.3828L24.6797 19.5469L24.6621 19.3711L24.6152 19.5762V19.3887L24.5508 19.5762L24.5039 19.4004L24.4746 19.5703L24.4336 19.4355L24.3867 19.6348L24.3223 19.459L24.2871 19.7227L24.2402 19.6172L24.2344 19.8105L24.1816 19.6934L24.2344 19.9395L24.1699 19.8457L24.1875 19.998L24.0938 19.834L24.0996 20.0332L24.0527 19.9629L24.0293 20.0391C24.0293 20.0391 24.0059 19.2773 24.5273 19.125C25.0488 18.9785 25.3887 19.1719 25.3887 19.1719L25.1895 19.0078L25.2129 18.9609H25.1367L25.166 18.9023H25.0195L25.0605 18.8438L24.9434 18.8613V18.8262L24.873 18.8848L24.9023 18.8203L24.7969 18.8848V18.7852L24.7383 18.873L24.709 18.7852L24.4746 19.0195L24.5391 18.7734L24.498 18.832L24.4922 18.7734L24.4219 18.8789L24.4102 18.8027L24.3809 18.8906L24.3574 18.791L24.3047 18.8906L24.2578 18.7969L24.2344 18.9199L24.1934 18.8613L24.1523 18.9492L24.0938 18.8906L24.0879 18.9492L23.9707 18.9023L24 18.9902L23.9121 18.9141L23.8887 19.0312L23.8359 18.9727L23.8008 19.1191L23.7656 18.9785L23.7246 19.0957C23.7246 19.0957 24.1875 17.9121 25.3477 18.6855C25.3477 18.6855 25.4766 18.8027 25.5059 18.8906C25.5352 18.9785 25.5059 18.9082 25.5059 18.9082L25.4883 18.0879L25.5352 18.4395L25.5645 18.3223L25.5527 18.498L25.6699 18.2461C25.6699 18.2461 25.5352 18.6738 25.582 18.832C25.582 18.832 25.6406 18.334 25.8164 18.2754L25.6523 18.627L25.6992 18.6211L25.6641 18.6914H25.7109L25.6523 18.8086L25.6289 18.8672L25.6582 18.9258L25.6992 18.8848H25.6934Z" fill="#00A651" stroke="black" stroke-width="0.0625" stroke-miterlimit="4.8"/>
        <path d="M25.5762 19.3652L25.5996 19.3828C25.5996 19.3828 25.6758 19.3066 25.793 19.4062L25.8164 19.3828C25.6699 19.2598 25.5762 19.3652 25.5762 19.3652ZM25.541 18.9668L25.5352 18.9902L25.5937 18.9668L25.5527 19.0371L25.6348 19.0078L25.5293 19.1426L25.5586 19.166L25.7227 18.9434L25.6172 18.9785L25.6641 18.9023L25.5762 18.9434L25.5937 18.8262H25.5645L25.541 18.9668Z" fill="black"/>
        <path d="M25.3828 18.9727L25.418 19.0547L25.3594 19.0312L25.5352 19.3242L25.5527 19.3008L25.5176 19.3887L25.5469 19.4004L25.623 19.2129L25.5937 19.1953L25.5352 19.2715L25.4355 19.0957L25.4824 19.1133L25.4355 19.0078L25.4941 19.0488V18.9316H25.4648V18.9902L25.3711 18.9258L25.3887 18.9727H25.3828ZM25.2773 19.3477L25.2891 19.377C25.3359 19.3594 25.3711 19.3535 25.4063 19.3711C25.4355 19.3828 25.4473 19.418 25.4473 19.418L25.4766 19.4121C25.4766 19.4121 25.4648 19.3652 25.418 19.3418C25.377 19.3242 25.3301 19.3242 25.2773 19.3477ZM25.4063 19.6641L25.3828 19.5H25.4121L25.4414 19.6641H25.4063ZM25.6348 19.6406L25.5937 19.5117L25.623 19.5059L25.6641 19.6289L25.6348 19.6406ZM25.7168 19.7344L25.6875 19.6055L25.7168 19.5996L25.7461 19.7227L25.7168 19.7344Z" fill="black"/>
        <path d="M19.4531 23.4961C19.4531 23.4961 19.3125 23.4375 19.248 23.4844C19.1895 23.5312 19.1895 23.5957 19.1367 23.5898C19.1367 23.5898 19.3477 23.6367 19.3945 23.584L19.4531 23.5137M19.4766 23.5605C19.4766 23.5605 19.3828 23.6777 19.418 23.748C19.4473 23.8184 19.5117 23.8242 19.5 23.877C19.5 23.877 19.5879 23.6836 19.5469 23.6309L19.4883 23.5605M19.3242 23.2207C19.3242 23.2207 19.1777 23.2676 19.1602 23.3379C19.1426 23.4199 19.1953 23.4609 19.1543 23.4961C19.1543 23.4961 19.3359 23.3906 19.3359 23.3203C19.3365 23.2909 19.3345 23.2615 19.3301 23.2324M19.4063 23.2734C19.4063 23.2734 19.4766 23.1387 19.4297 23.0742C19.3887 23.0098 19.3184 23.0156 19.3301 22.957C19.3301 22.957 19.2715 23.168 19.3301 23.2148L19.3887 23.2734M19.2656 23.2207C19.2656 23.2207 19.2656 23.0742 19.2012 23.0332C19.1367 22.9922 19.0781 23.0273 19.0605 22.9746C19.0605 22.9746 19.0957 23.1855 19.166 23.209L19.2539 23.2266M19.5117 23.4727C19.5117 23.4727 19.6699 23.4199 19.6875 23.5898C19.6934 23.7656 19.6758 23.707 19.6758 23.707C19.6758 23.707 19.5937 23.5195 19.5 23.4902L19.5117 23.4727Z" fill="#00A651"/>
        <path d="M19.4531 23.4961C19.4531 23.4961 19.3125 23.4375 19.248 23.4844C19.1895 23.5312 19.1895 23.5957 19.1367 23.5898C19.1367 23.5898 19.3477 23.6367 19.3945 23.584L19.4531 23.5137M19.4766 23.5605C19.4766 23.5605 19.3828 23.6777 19.418 23.748C19.4473 23.8184 19.5117 23.8242 19.5 23.877C19.5 23.877 19.5879 23.6836 19.5469 23.6309L19.4883 23.5605M19.3242 23.2207C19.3242 23.2207 19.1777 23.2676 19.1602 23.3379C19.1426 23.4199 19.1953 23.4609 19.1543 23.4961C19.1543 23.4961 19.3359 23.3906 19.3359 23.3203C19.3365 23.2909 19.3345 23.2615 19.3301 23.2324M19.4063 23.2734C19.4063 23.2734 19.4766 23.1387 19.4297 23.0742C19.3887 23.0098 19.3184 23.0156 19.3301 22.957C19.3301 22.957 19.2715 23.168 19.3301 23.2148L19.3887 23.2734M19.2656 23.2207C19.2656 23.2207 19.2656 23.0742 19.2012 23.0332C19.1367 22.9922 19.0781 23.0273 19.0605 22.9746C19.0605 22.9746 19.0957 23.1855 19.166 23.209L19.2539 23.2266M19.5117 23.4727C19.5117 23.4727 19.6699 23.4199 19.6875 23.5898C19.6934 23.7656 19.6758 23.707 19.6758 23.707C19.6758 23.707 19.5937 23.5195 19.5 23.4902L19.5117 23.4727Z" stroke="black" stroke-width="0.0625" stroke-miterlimit="4.8"/>
        <path d="M19.4707 23.5605L19.4883 23.6953H19.5117L19.4941 23.5605L19.5527 23.2734H19.5234L19.4707 23.5605Z" fill="black"/>
        <path d="M19.3301 23.5195L19.3184 23.5371C19.3945 23.5664 19.5 23.4785 19.5059 23.4785L19.4941 23.4609C19.4941 23.4609 19.3887 23.543 19.3301 23.5195ZM19.5234 23.3496L19.1719 23.1738L19.1836 23.1445L19.5352 23.3203L19.5234 23.3496Z" fill="black"/>
        <path d="M19.2715 23.3086L19.248 23.291L19.3184 23.2148L19.3418 23.2383L19.2715 23.3086ZM19.3887 23.2734L19.3184 23.1152L19.3477 23.0977L19.4238 23.2617L19.3887 23.2734ZM19.5 23.4727V23.5078C19.5937 23.502 19.6172 23.5664 19.6172 23.5664L19.6523 23.5547C19.6523 23.5371 19.6113 23.4668 19.5 23.4727Z" fill="black"/>
        <path d="M21.123 23.5488C21.2402 23.4844 21.2637 23.25 21.2637 23.25C21.2402 23.332 21.0234 23.4199 21.0234 23.4199C21.1816 23.3203 21.375 22.8691 21.375 22.8691C21.3223 23.0332 20.9063 23.1621 20.6309 23.3145C20.3613 23.4668 20.502 23.9004 20.502 23.9004C20.3736 23.7662 20.2879 23.597 20.2559 23.4141C20.2266 23.209 20.1445 23.1328 19.9629 23.1094C19.7754 23.0859 19.6699 23.291 19.6699 23.291L19.3945 23.4375L19.6699 23.4492C19.6699 23.4492 19.8691 23.5137 19.8691 23.6719C19.8691 23.8301 19.6934 24.4512 19.9863 24.8027C20.1855 25.043 20.9238 25.1836 20.9238 25.1836" fill="white"/>
        <path d="M21.123 23.5488C21.2402 23.4844 21.2637 23.25 21.2637 23.25C21.2402 23.332 21.0234 23.4199 21.0234 23.4199C21.1816 23.3203 21.375 22.8691 21.375 22.8691C21.3223 23.0332 20.9063 23.1621 20.6309 23.3145C20.3613 23.4668 20.502 23.9004 20.502 23.9004C20.3736 23.7662 20.2879 23.597 20.2559 23.4141C20.2266 23.209 20.1445 23.1328 19.9629 23.1094C19.7754 23.0859 19.6699 23.291 19.6699 23.291L19.3945 23.4375L19.6699 23.4492C19.6699 23.4492 19.8691 23.5137 19.8691 23.6719C19.8691 23.8301 19.6934 24.4512 19.9863 24.8027C20.1855 25.043 20.9238 25.1836 20.9238 25.1836" stroke="black" stroke-width="0.0875" stroke-miterlimit="4.8"/>
        <path d="M20.584 24.0293C20.584 24.0293 20.6426 23.748 20.8184 23.7598C21.0059 23.7715 21.0586 23.5547 21.1699 23.5195C21.2754 23.4844 21.8379 23.3379 21.9023 23.0625C21.9023 23.0625 21.8438 23.5078 21.334 23.7305C21.334 23.7305 21.7441 23.5957 21.7969 23.502C21.7969 23.502 21.6094 23.9004 21.1641 23.9648C21.1641 23.9648 21.5859 23.9297 21.6445 23.8184C21.6445 23.8184 21.457 24.0703 21.1465 24.0996C21.1465 24.0996 21.4336 24.2168 21.5098 24.1172C21.5098 24.1172 21.3516 24.3047 21.1582 24.3164L21.2109 24.334C21.2109 24.334 21.0234 24.5508 20.8242 24.4043C20.6191 24.2578 20.6133 24.4395 20.6133 24.4395" fill="white"/>
        <path d="M20.584 24.0293C20.584 24.0293 20.6426 23.748 20.8184 23.7598C21.0059 23.7715 21.0586 23.5547 21.1699 23.5195C21.2754 23.4844 21.8379 23.3379 21.9023 23.0625C21.9023 23.0625 21.8438 23.5078 21.334 23.7305C21.334 23.7305 21.7441 23.5957 21.7969 23.502C21.7969 23.502 21.6094 23.9004 21.1641 23.9648C21.1641 23.9648 21.5859 23.9297 21.6445 23.8184C21.6445 23.8184 21.457 24.0703 21.1465 24.0996C21.1465 24.0996 21.4336 24.2168 21.5098 24.1172C21.5098 24.1172 21.3516 24.3047 21.1582 24.3164L21.2109 24.334C21.2109 24.334 21.0234 24.5508 20.8242 24.4043C20.6191 24.2578 20.6133 24.4395 20.6133 24.4395" stroke="black" stroke-width="0.0875" stroke-miterlimit="4.8"/>
        <path d="M21 24.4512C21 24.4512 21.2344 24.8496 21.2637 25.0605C21.2637 25.0605 21.7148 25.5645 21.8848 25.5879C21.8848 25.5879 21.8086 25.623 21.6621 25.5C21.6621 25.5 21.7793 25.6289 21.8086 25.6348C21.832 25.6348 21.709 25.623 21.6914 25.5879C21.6914 25.5879 21.7383 25.6641 21.7734 25.6758L21.7383 25.6641C21.7383 25.6641 21.6797 25.6582 21.6504 25.6348C21.6211 25.6113 21.6387 25.6934 21.6387 25.6934C21.6387 25.6934 21.5684 25.6758 21.5449 25.6523C21.5215 25.6289 21.5566 25.7051 21.5566 25.7051L21.498 25.6875L21.4512 25.7168C21.4512 25.7168 21.4512 25.7461 21.416 25.7227C21.3926 25.6992 21.3398 25.7227 21.3398 25.7227C21.3398 25.7227 21.2988 25.7578 21.2813 25.7344C21.2637 25.7109 21.1934 25.8223 21.1934 25.8223L20.8945 25.1016" fill="white"/>
        <path d="M21 24.4512C21 24.4512 21.2344 24.8496 21.2637 25.0605C21.2637 25.0605 21.7148 25.5645 21.8848 25.5879C21.8848 25.5879 21.8086 25.623 21.6621 25.5C21.6621 25.5 21.7793 25.6289 21.8086 25.6348C21.832 25.6348 21.709 25.623 21.6914 25.5879C21.6914 25.5879 21.7383 25.6641 21.7734 25.6758L21.7383 25.6641C21.7383 25.6641 21.6797 25.6582 21.6504 25.6348C21.6211 25.6113 21.6387 25.6934 21.6387 25.6934C21.6387 25.6934 21.5684 25.6758 21.5449 25.6523C21.5215 25.6289 21.5566 25.7051 21.5566 25.7051L21.498 25.6875L21.4512 25.7168C21.4512 25.7168 21.4512 25.7461 21.416 25.7227C21.3926 25.6992 21.3398 25.7227 21.3398 25.7227C21.3398 25.7227 21.2988 25.7578 21.2813 25.7344C21.2637 25.7109 21.1934 25.8223 21.1934 25.8223L20.8945 25.1016" stroke="black" stroke-width="0.0875" stroke-miterlimit="4.8"/>
        <path d="M21.2813 25.7578L20.9062 25.0371L20.9473 25.0195L21.3223 25.7344L21.2813 25.7578ZM21.6094 25.7051L20.9648 24.9844L21 24.9551L21.6445 25.6758L21.6094 25.7051ZM21.7617 25.6465L21.0234 24.9609L21.0527 24.9258L21.7969 25.6055L21.7617 25.6465Z" fill="black"/>
        <path d="M19.9129 23.3369C19.9129 23.3369 19.8661 23.2512 19.8233 23.2863C19.7843 23.3174 19.7609 23.3252 19.7531 23.3213C19.7531 23.3213 19.7921 23.3213 19.8194 23.3018C19.8427 23.2785 19.8817 23.2902 19.9129 23.3408V23.3369ZM19.6558 23.2979L19.683 23.3525L19.6519 23.4421L19.6752 23.4499L19.7025 23.3525L19.6752 23.2902L19.6558 23.2979Z" fill="black"/>
        <path d="M19.9051 23.3252C19.9051 23.3252 19.8662 23.3642 19.8194 23.3564L19.7688 23.3447H19.8389C19.8662 23.3447 19.9013 23.333 19.9051 23.3252Z" fill="black"/>
        <path d="M19.8933 23.333C19.8933 23.333 19.8466 23.2863 19.8154 23.3019C19.8154 23.3019 19.87 23.2824 19.9011 23.3291L19.8933 23.333Z" fill="black"/>
        <path d="M19.8857 23.3252C19.8857 23.3252 19.835 23.3602 19.7805 23.3252L19.7766 23.3174H19.7844C19.7844 23.3174 19.8506 23.3447 19.8857 23.3252Z" fill="black"/>
        <path d="M19.8427 23.3329C19.8513 23.3329 19.8583 23.3259 19.8583 23.3173C19.8583 23.3087 19.8513 23.3018 19.8427 23.3018C19.8341 23.3018 19.8271 23.3087 19.8271 23.3173C19.8271 23.3259 19.8341 23.3329 19.8427 23.3329Z" fill="black"/>
        <path d="M19.8866 24.6328C19.8866 24.6328 19.8456 24.709 19.8691 24.75C19.8866 24.791 19.9804 24.8145 19.9862 24.873C20.0038 24.9316 20.0331 24.9316 20.0741 24.9199L20.1327 24.9141C20.1327 24.9141 19.9511 24.8145 19.8983 24.6621L19.8866 24.6328Z" fill="black"/>
        <path d="M25.7111 23.1798C25.7111 23.1798 26.0334 22.7462 26.3263 22.8634C26.6193 22.9805 26.8068 23.0333 26.8068 23.0333C26.8068 23.0333 26.8126 23.3262 26.6603 23.3262C26.5021 23.3262 26.3556 23.0333 26.215 23.1153C26.0744 23.2032 25.9572 23.3204 25.9513 23.3614C25.9396 23.4024 25.5763 23.4141 25.7111 23.1856V23.1798Z" fill="#964B36" stroke="black" stroke-width="0.0375" stroke-miterlimit="4.8"/>
        <path d="M24.4631 25.2657C24.4631 25.2657 24.3752 25.3594 24.4162 25.3829C24.4572 25.4063 24.5334 25.3829 24.5334 25.3477C24.5334 25.3126 24.4806 25.254 24.4631 25.2657Z" fill="#964B36" stroke="black" stroke-width="0.0625" stroke-miterlimit="4.8"/>
        <path d="M24.3927 25.3595C24.3927 25.3595 24.2227 25.2599 24.0938 25.4884C23.9591 25.7169 23.8477 26.0861 23.7716 26.1329C23.6954 26.1798 24.5216 25.7697 24.5333 25.5997C24.5333 25.5997 24.5919 25.3771 24.4981 25.3771C24.4161 25.3829 24.4102 25.3947 24.3927 25.3536V25.3595Z" fill="#964B36" stroke="black" stroke-width="0.0625" stroke-miterlimit="4.8"/>
        <path d="M24.416 25.3828C24.416 25.3828 24.2402 25.4238 24.2051 25.6699C24.1699 25.916 23.9297 26.0391 23.9121 26.0508M26.8066 23.0273C26.8066 23.0273 26.543 23.1211 26.5898 23.3027L26.8066 23.0273Z" fill="#964B36"/>
        <path d="M24.416 25.3828C24.416 25.3828 24.2402 25.4238 24.2051 25.6699C24.1699 25.916 23.9297 26.0391 23.9121 26.0508M26.8066 23.0273C26.8066 23.0273 26.543 23.1211 26.5898 23.3027" stroke="black" stroke-width="0.0375" stroke-miterlimit="4.8"/>
        <path d="M24.791 23.5606C24.791 23.5606 24.7969 22.9395 25.3066 22.9688C25.4062 22.9746 25.3594 23.086 25.3594 23.086C25.3594 23.086 25.4707 23.0098 25.5176 23.1328C25.5176 23.1328 25.6816 23.0625 25.6934 23.2207C25.6934 23.2207 25.8691 23.1973 25.8516 23.3379C25.8516 23.3379 25.9688 23.3145 25.9688 23.4141C25.9688 23.4141 26.1035 23.3555 26.0859 23.4961C26.0859 23.4961 26.2383 23.3965 26.2148 23.5782C26.2148 23.5782 26.373 23.4727 26.4258 23.6543C26.4844 23.8301 26.2676 24.2227 26.0625 24.3223" fill="#FFF200"/>
        <path d="M24.791 23.5606C24.791 23.5606 24.7969 22.9395 25.3066 22.9688C25.4062 22.9746 25.3594 23.086 25.3594 23.086C25.3594 23.086 25.4707 23.0098 25.5176 23.1328C25.5176 23.1328 25.6816 23.0625 25.6934 23.2207C25.6934 23.2207 25.8691 23.1973 25.8516 23.3379C25.8516 23.3379 25.9688 23.3145 25.9688 23.4141C25.9688 23.4141 26.1035 23.3555 26.0859 23.4961C26.0859 23.4961 26.2383 23.3965 26.2148 23.5782C26.2148 23.5782 26.373 23.4727 26.4258 23.6543C26.4844 23.8301 26.2676 24.2227 26.0625 24.3223" stroke="black" stroke-width="0.0375" stroke-miterlimit="4.8"/>
        <path d="M26.2031 23.6016C26.2031 23.6016 26.2734 24.0879 25.998 24.2637L26.0098 24.2754C26.291 24.0996 26.2207 23.6016 26.2207 23.5957H26.2031V23.6016ZM25.875 24.1289L25.8867 24.1406C26.0625 23.9707 26.0977 23.5195 26.0977 23.4961H26.0801C26.0801 23.502 26.0449 23.9648 25.875 24.1289ZM25.7109 24.0176H25.7285C25.752 23.7422 25.9746 23.4199 25.9746 23.4199L25.957 23.4082C25.957 23.4082 25.7344 23.7363 25.7109 24.0176ZM25.5879 23.9355H25.6055C25.6348 23.6016 25.8574 23.3496 25.8574 23.3496L25.8457 23.332C25.8457 23.332 25.6172 23.5957 25.5879 23.9355ZM25.4121 23.8242H25.4238C25.4414 23.4258 25.7051 23.2324 25.7109 23.2266L25.6992 23.2148C25.6992 23.2148 25.4238 23.4141 25.4063 23.8242H25.4121ZM25.2422 23.7246H25.2656C25.248 23.3613 25.5293 23.1387 25.5293 23.1387L25.5234 23.127C25.5234 23.127 25.2305 23.3555 25.2422 23.7246ZM24.9492 23.5957H24.9668C24.9799 23.4828 25.0249 23.3761 25.0965 23.2878C25.1681 23.1996 25.2633 23.1337 25.3711 23.0977L25.3652 23.0801C25.255 23.1183 25.1579 23.1871 25.0853 23.2784C25.0127 23.3697 24.9675 23.4797 24.9551 23.5957H24.9492Z" fill="black"/>
        <path d="M24.4922 24.3165C24.4922 24.3165 24.4043 23.7423 24.75 23.5548C24.75 23.5548 24.8086 23.5431 24.8496 23.6251C24.8496 23.6251 25.0312 23.5489 25.0371 23.7013C25.0371 23.7013 25.125 23.6309 25.1543 23.7306C25.1543 23.7306 25.3476 23.6895 25.3066 23.836C25.3066 23.836 25.4707 23.7892 25.459 23.9298C25.459 23.9298 25.623 23.8712 25.5937 23.9884C25.5937 23.9884 25.7695 23.9532 25.7285 24.0938C25.7285 24.0938 25.9394 24.0704 25.875 24.2227C25.875 24.2227 26.0332 24.1817 25.998 24.3048C25.998 24.3048 26.209 24.3399 26.1152 24.4688C25.9632 24.6564 25.7654 24.8017 25.541 24.8907" fill="#00A651"/>
        <path d="M24.4922 24.3165C24.4922 24.3165 24.4043 23.7423 24.75 23.5548C24.75 23.5548 24.8086 23.5431 24.8496 23.6251C24.8496 23.6251 25.0312 23.5489 25.0371 23.7013C25.0371 23.7013 25.125 23.6309 25.1543 23.7306C25.1543 23.7306 25.3476 23.6895 25.3066 23.836C25.3066 23.836 25.4707 23.7892 25.459 23.9298C25.459 23.9298 25.623 23.8712 25.5937 23.9884C25.5937 23.9884 25.7695 23.9532 25.7285 24.0938C25.7285 24.0938 25.9394 24.0704 25.875 24.2227C25.875 24.2227 26.0332 24.1817 25.998 24.3048C25.998 24.3048 26.209 24.3399 26.1152 24.4688C25.9632 24.6564 25.7654 24.8017 25.541 24.8907" stroke="black" stroke-width="0.0375" stroke-miterlimit="4.8"/>
        <path d="M24.3047 24.9024C24.3047 24.9024 24.1641 24.4161 24.4336 24.2931C24.4336 24.2931 24.4805 24.2813 24.4922 24.3282C24.4922 24.3282 24.5508 24.252 24.5977 24.3223C24.5977 24.3223 24.7325 24.2579 24.7618 24.3575C24.7618 24.3575 24.8555 24.2813 24.9024 24.3927C24.9024 24.3927 24.9844 24.3575 24.9844 24.4513C24.9844 24.4513 25.1016 24.3927 25.1016 24.5098C25.1016 24.5098 25.2188 24.463 25.1954 24.586C25.1954 24.586 25.3711 24.6095 25.3125 24.6915C25.3125 24.6915 25.4708 24.7325 25.4122 24.797C25.4122 24.797 25.5821 24.7794 25.4883 24.8907C25.4883 24.8907 25.6172 24.8497 25.5469 24.9903C25.4708 25.1309 25.2481 25.2833 25.084 25.3067" fill="#00A651"/>
        <path d="M24.3047 24.9024C24.3047 24.9024 24.1641 24.4161 24.4336 24.2931C24.4336 24.2931 24.4805 24.2813 24.4922 24.3282C24.4922 24.3282 24.5508 24.252 24.5977 24.3223C24.5977 24.3223 24.7325 24.2579 24.7618 24.3575C24.7618 24.3575 24.8555 24.2813 24.9024 24.3927C24.9024 24.3927 24.9844 24.3575 24.9844 24.4513C24.9844 24.4513 25.1016 24.3927 25.1016 24.5098C25.1016 24.5098 25.2188 24.463 25.1954 24.586C25.1954 24.586 25.3711 24.6095 25.3125 24.6915C25.3125 24.6915 25.4708 24.7325 25.4122 24.797C25.4122 24.797 25.5821 24.7794 25.4883 24.8907C25.4883 24.8907 25.6172 24.8497 25.5469 24.9903C25.4708 25.1309 25.2481 25.2833 25.084 25.3067" stroke="black" stroke-width="0.0375" stroke-miterlimit="4.8"/>
        <path d="M24.4746 25.2773C24.4746 25.2773 24.1758 24.9844 24.3164 24.9023C24.3164 24.9023 24.375 24.9199 24.3985 24.9844C24.3985 24.9844 24.4746 24.8789 24.5157 24.9844C24.5157 24.9844 24.6211 24.9492 24.6211 25.0254L24.709 25.084C24.709 25.084 24.8086 25.084 24.791 25.1426C24.791 25.1426 24.9024 25.1309 24.8965 25.1895C24.8965 25.1895 24.9903 25.1895 24.9844 25.2539C24.9844 25.2539 25.1426 25.2832 25.0723 25.3652C25.0723 25.3652 24.7852 25.4238 24.586 25.3418C24.586 25.3418 24.4805 25.3066 24.4688 25.2832L24.4746 25.2773Z" fill="#00A651" stroke="black" stroke-width="0.0375" stroke-miterlimit="4.8"/>
        <path d="M25.5 24.7969L25.5059 24.8145C25.6817 24.7441 25.9922 24.3281 26.0039 24.3047L25.9922 24.2988C25.9922 24.2988 25.6758 24.7324 25.5 24.7969ZM25.4004 24.7207L25.4063 24.7383C25.5854 24.5891 25.7449 24.4178 25.8809 24.2285L25.8692 24.2168C25.8692 24.2168 25.5528 24.6387 25.4004 24.7207ZM25.3125 24.6855L25.3243 24.6973C25.4883 24.5625 25.7227 24.1113 25.7344 24.0996L25.7168 24.0879C25.7168 24.0938 25.4707 24.5566 25.3067 24.6855H25.3125ZM25.2305 24.5801H25.2481C25.2832 24.3574 25.5997 24.0059 25.5997 23.9941L25.5879 23.9883C25.5762 24 25.2657 24.3516 25.2364 24.5801H25.2305ZM24.5977 24.3105H24.6153C24.586 23.9883 24.8497 23.6367 24.8555 23.6309L24.8438 23.6191C24.8438 23.6191 24.5684 23.9824 24.5977 24.3105ZM24.7618 24.334H24.7793C24.7383 24.0762 25.0372 23.7129 25.043 23.707L25.0313 23.6953C25.0137 23.7129 24.7207 24.0703 24.7618 24.3398V24.334ZM25.0196 24.4277H25.0372C25.0372 24.1348 25.3125 23.8418 25.3125 23.8418L25.3008 23.8301C25.3008 23.8301 25.0137 24.1289 25.0196 24.4277ZM24.4043 24.9551H24.4219C24.3223 24.6855 24.4981 24.3398 24.4981 24.334L24.4805 24.3281C24.4805 24.3281 24.3047 24.6797 24.4043 24.9609V24.9551ZM24.5215 24.9785L24.5391 24.9727C24.4512 24.6973 24.5977 24.3281 24.6036 24.3281L24.586 24.3164C24.586 24.3164 24.4336 24.6973 24.5274 24.9785H24.5215ZM25.0079 25.2539L25.0137 25.2715C25.3067 25.166 25.4942 24.9023 25.5 24.8965L25.4825 24.8906C25.4825 24.8906 25.295 25.1484 25.0137 25.2539H25.0079ZM24.9493 25.1895L24.9551 25.207C25.1895 25.1016 25.4063 24.8086 25.4063 24.8086L25.3946 24.7969C25.3946 24.7969 25.1778 25.0898 24.9493 25.1895ZM24.8907 25.166L24.9024 25.1836C25.084 25.0488 25.3125 24.7148 25.3184 24.7148L25.3067 24.7031C25.3067 24.7031 25.0723 25.0371 24.8965 25.1719L24.8907 25.166ZM24.6036 24.9961H24.6211C24.6142 24.7753 24.6668 24.5567 24.7735 24.3633L24.7559 24.3516C24.7559 24.3516 24.5625 24.7031 24.6036 24.9961ZM24.7325 25.0781L24.7442 25.0898C24.9317 24.9199 24.9903 24.4688 24.9961 24.4453H24.9786C24.9786 24.4512 24.9141 24.9141 24.7325 25.0781Z" fill="black"/>
        <path d="M24.8613 25.1309L24.8672 25.1484C25.1309 24.9551 25.2012 24.5859 25.207 24.5859H25.1895C25.1895 24.5859 25.1191 24.9434 24.8613 25.1309ZM24.8906 24.3457V24.3926L24.6914 25.0371L24.709 25.043L24.9082 24.3984C24.8789 24.082 25.1543 23.7363 25.1543 23.7363L25.1426 23.7246C25.1426 23.7246 24.8906 24.041 24.8906 24.3457Z" fill="black"/>
        <path d="M25.0957 24.498C25.0957 24.5098 25.0371 24.9551 24.7969 25.1191L24.8027 25.1309C25.0488 24.9609 25.1133 24.5273 25.1133 24.5098C25.2188 24.3809 25.4648 23.9355 25.4648 23.9355L25.4531 23.9238C25.4531 23.9297 25.207 24.3691 25.1016 24.498H25.0957ZM24.3926 24.9844C24.3926 24.9961 24.4336 25.2188 24.4805 25.2949L24.4922 25.2832C24.4512 25.207 24.4102 24.9902 24.4102 24.9844H24.3926ZM24.5098 24.9844C24.5098 25.1016 24.5098 25.2773 24.498 25.2949H24.5156C24.5273 25.2773 24.5215 25.0371 24.5215 24.9902H24.5039L24.5098 24.9844Z" fill="black"/>
        <path d="M24.5156 25.3008L24.5332 25.3125C24.6094 25.1426 24.6328 25.0254 24.6328 25.0254H24.6152C24.6152 25.0254 24.5918 25.1426 24.5156 25.3008Z" fill="black"/>
        <path d="M24.5332 25.3125L24.5391 25.3242C24.6261 25.2722 24.6893 25.188 24.7148 25.0898H24.6973C24.6973 25.0898 24.668 25.2305 24.5332 25.3066V25.3125ZM24.5566 25.3184V25.3359C24.6973 25.3242 24.791 25.1543 24.7969 25.1484L24.7852 25.1367C24.7852 25.1367 24.6855 25.3125 24.5566 25.3184Z" fill="black"/>
        <path d="M24.5742 25.3301V25.3477C24.6365 25.3466 24.6979 25.3325 24.7544 25.3063C24.811 25.2801 24.8614 25.2423 24.9023 25.1953L24.8906 25.1836C24.8906 25.1836 24.7852 25.3184 24.5742 25.3301Z" fill="black"/>
        <path d="M24.5859 25.3359V25.3535C24.5977 25.3535 24.8789 25.4121 24.9785 25.2656L24.9668 25.2539C24.873 25.3945 24.5918 25.3359 24.5859 25.3359Z" fill="black"/>
        <path d="M18.1758 14.8828V22.875C18.1758 25.4883 22.8984 27.041 22.8984 27.041C22.8984 27.041 27.6211 25.4883 27.6211 22.8809V14.8828H18.1758Z" stroke="black" stroke-width="0.35" stroke-miterlimit="4.8"/>
        <path d="M0 0H15V15H0V0Z" fill="#012169"/>
        <path d="M15 0V1.875L9.43359 7.5L15 12.9785V15H13.0371L7.44141 9.49219L1.99219 15H0V13.0078L5.44922 7.5293L0 2.16797V0H1.81641L7.44141 5.50781L12.8906 0H15Z" fill="white"/>
        <path d="M5.39062 9.49219L5.71289 10.4883L1.23047 15H0V14.9121L5.39062 9.49219ZM9.02344 9.14062L10.6055 9.375L15 13.6816V15L9.02344 9.14062ZM15 0L9.375 5.74219L9.25781 4.45312L13.6523 0H15ZM0 0.0292969L5.6543 5.56641L3.92578 5.33203L0 1.43555V0.0292969Z" fill="#C8102E"/>
        <path d="M5.15625 0V15H9.84375V0H5.15625ZM0 5.15625V9.84375H15V5.15625H0Z" fill="white"/>
        <path d="M0 6.09375V8.90625H15V6.09375H0ZM6.09375 0V15H8.90625V0H6.09375Z" fill="#C8102E"/>
    </g>
    <defs>
        <clipPath id="clip0_530_1531">
            <rect width="30" height="30" rx="15" fill="white"/>
        </clipPath>
    </defs>
</svg>
