<svg width="30" height="30" viewBox="0 0 30 30" fill="none" xmlns="http://www.w3.org/2000/svg">
    <g clip-path="url(#clip0_530_6515)">
        <path d="M0 0H30V30H0V0Z" fill="white"/>
        <path d="M12.0117 0H17.9883V30H12.0117V0Z" fill="#FF0000"/>
        <path d="M0 12.0117H30V17.9883H0V12.0117Z" fill="#FF0000"/>
        <g style="mix-blend-mode:multiply">
            <path fill-rule="evenodd" clip-rule="evenodd" d="M6.68555 23.3145C6.75 22.2598 6.9375 21.3574 6.9375 21.3574C6.9375 21.3574 6.31641 21.416 6.00586 21.416C5.69531 21.416 5.07422 21.3574 5.07422 21.3574C5.07422 21.3574 5.26172 22.2539 5.32617 23.3145C4.27148 23.25 3.36914 23.0625 3.36914 23.0625C3.36914 23.0625 3.42773 23.5312 3.42773 23.9941C3.42773 24.457 3.36914 24.9258 3.36914 24.9258C3.36914 24.9258 4.26563 24.7383 5.32617 24.6738C5.26172 25.7285 5.07422 26.6309 5.07422 26.6309C5.07422 26.6309 5.54297 26.5723 6.00586 26.5723C6.47461 26.5723 6.9375 26.6309 6.9375 26.6309C6.9375 26.6309 6.75 25.7344 6.68555 24.6738C7.74023 24.7383 8.64258 24.9258 8.64258 24.9258C8.64258 24.9258 8.58398 24.3047 8.58398 23.9941C8.58398 23.6836 8.64258 23.0625 8.64258 23.0625C8.64258 23.0625 7.74609 23.25 6.68555 23.3145ZM24.6738 5.32617C24.7383 4.27148 24.9258 3.36914 24.9258 3.36914C24.9258 3.36914 24.3047 3.42773 23.9941 3.42773C23.6836 3.42773 23.0625 3.36914 23.0625 3.36914C23.0625 3.36914 23.25 4.27148 23.3145 5.32617C22.2598 5.26172 21.3574 5.07422 21.3574 5.07422C21.3574 5.07422 21.416 5.54297 21.416 6.00586C21.416 6.47461 21.3574 6.9375 21.3574 6.9375C21.3574 6.9375 22.2539 6.75 23.3145 6.68555C23.25 7.74023 23.0625 8.64258 23.0625 8.64258C23.0625 8.64258 23.5312 8.58398 23.9941 8.58398C24.457 8.58398 24.9258 8.64258 24.9258 8.64258C24.9258 8.64258 24.7383 7.74609 24.6738 6.68555C25.7285 6.75 26.6309 6.9375 26.6309 6.9375C26.6309 6.9375 26.5723 6.31641 26.5723 6.00586C26.5723 5.70117 26.6309 5.07422 26.6309 5.07422C26.6309 5.07422 25.7285 5.26172 24.6738 5.32617ZM6.68555 5.32617C6.75 4.27148 6.9375 3.36914 6.9375 3.36914C6.9375 3.36914 6.31641 3.42773 6.00586 3.42773C5.69531 3.42773 5.07422 3.36914 5.07422 3.36914C5.07422 3.36914 5.26172 4.27148 5.32617 5.32617C4.27148 5.26172 3.36914 5.07422 3.36914 5.07422C3.36914 5.07422 3.42773 5.54297 3.42773 6.00586C3.42773 6.47461 3.36914 6.9375 3.36914 6.9375C3.36914 6.9375 4.26563 6.75 5.32617 6.68555C5.26172 7.74023 5.07422 8.64258 5.07422 8.64258C5.07422 8.64258 5.54297 8.58398 6.00586 8.58398C6.47461 8.58398 6.9375 8.64258 6.9375 8.64258C6.9375 8.64258 6.75 7.74609 6.68555 6.68555C7.74023 6.75 8.64258 6.9375 8.64258 6.9375C8.64258 6.9375 8.58398 6.31641 8.58398 6.00586C8.58398 5.70117 8.64258 5.07422 8.64258 5.07422C8.64258 5.07422 7.74609 5.26172 6.68555 5.32617ZM24.6738 23.3145C24.7383 22.2598 24.9258 21.3574 24.9258 21.3574C24.9258 21.3574 24.3047 21.416 23.9941 21.416C23.6836 21.416 23.0625 21.3574 23.0625 21.3574C23.0625 21.3574 23.25 22.2539 23.3145 23.3145C22.2598 23.25 21.3574 23.0625 21.3574 23.0625C21.3574 23.0625 21.416 23.5312 21.416 23.9941C21.416 24.457 21.3574 24.9258 21.3574 24.9258C21.3574 24.9258 22.2539 24.7383 23.3145 24.6738C23.25 25.7285 23.0625 26.6309 23.0625 26.6309C23.0625 26.6309 23.5312 26.5723 23.9941 26.5723C24.457 26.5723 24.9258 26.6309 24.9258 26.6309C24.9258 26.6309 24.7383 25.7344 24.6738 24.6738C25.7285 24.7383 26.6309 24.9258 26.6309 24.9258C26.6309 24.9258 26.5723 24.3047 26.5723 23.9941C26.5723 23.6836 26.6309 23.0625 26.6309 23.0625C26.6309 23.0625 25.7285 23.25 24.6738 23.3145Z" fill="#FF0000"/>
        </g>
    </g>
    <defs>
        <clipPath id="clip0_530_6515">
            <rect width="30" height="30" rx="15" fill="white"/>
        </clipPath>
    </defs>
</svg>
