<svg width="30" height="30" viewBox="0 0 30 30" fill="none" xmlns="http://www.w3.org/2000/svg">
    <g clip-path="url(#clip0_530_43584)">
        <mask id="mask0_530_43584" style="mask-type:luminance" maskUnits="userSpaceOnUse" x="0" y="0" width="30" height="30">
            <path d="M0 0H30V30H0V0Z" fill="white"/>
        </mask>
        <g mask="url(#mask0_530_43584)">
            <path fill-rule="evenodd" clip-rule="evenodd" d="M0 0H30V30H0V0Z" fill="white"/>
            <path fill-rule="evenodd" clip-rule="evenodd" d="M-6.33984 0.0117188L-6.29297 21.6094L27.3398 0L-6.33984 0.0117188Z" fill="#3662A2"/>
            <path fill-rule="evenodd" clip-rule="evenodd" d="M36.9551 29.9707L36.8731 7.51758L2.94727 29.9883L36.9551 29.9707Z" fill="#38A100"/>
            <path fill-rule="evenodd" clip-rule="evenodd" d="M-6.32227 23.2383L-6.29297 30L1.04883 29.9883L36.8906 5.95898L36.8555 0.0820312L29.6016 0.0117188L-6.31641 23.2383H-6.32227Z" fill="#C70000"/>
            <path fill-rule="evenodd" clip-rule="evenodd" d="M9.02344 10.7461L7.66992 9.92578L6.88477 11.3086L6.12305 9.91406L4.74609 10.7227L4.78125 9.13477L3.19922 9.14648L4.01953 7.78711L2.63672 7.00195L4.03125 6.24023L3.22266 4.86328L4.80469 4.89844L4.79883 3.31055L6.1582 4.13086L6.94336 2.74805L7.70508 4.13672L9.09375 3.33984L9.05859 4.92188L10.6406 4.91602L9.82031 6.27539L11.2031 7.05469L9.80859 7.82227L10.6113 9.19336L9.0293 9.16406L9.02344 10.7461Z" fill="#FFE700"/>
            <path fill-rule="evenodd" clip-rule="evenodd" d="M9.83203 7.03125C9.83203 8.625 8.52539 9.91992 6.91406 9.91992C5.30273 9.91992 4.00195 8.625 4.00195 7.02539C4.00195 5.42578 5.30859 4.13672 6.91992 4.13672C8.53125 4.13672 9.83203 5.42578 9.83203 7.02539V7.03125Z" fill="#3662A2"/>
            <path fill-rule="evenodd" clip-rule="evenodd" d="M9.19922 7.0313C9.2149 7.34073 9.1675 7.65012 9.05989 7.94067C8.95227 8.23121 8.7867 8.49683 8.57324 8.72139C8.35977 8.94595 8.10287 9.12476 7.81814 9.24694C7.53342 9.36912 7.22682 9.43213 6.91699 9.43213C6.60716 9.43213 6.30057 9.36912 6.01584 9.24694C5.73112 9.12476 5.47422 8.94595 5.26075 8.72139C5.04728 8.49683 4.88171 8.23121 4.7741 7.94067C4.66649 7.65012 4.61908 7.34073 4.63477 7.0313C4.66443 6.44601 4.91782 5.8945 5.34257 5.49073C5.76732 5.08697 6.33096 4.86182 6.91699 4.86182C7.50303 4.86182 8.06666 5.08697 8.49141 5.49073C8.91616 5.8945 9.16955 6.44601 9.19922 7.0313Z" fill="#FFE700"/>
        </g>
    </g>
    <defs>
        <clipPath id="clip0_530_43584">
            <rect width="30" height="30" rx="15" fill="white"/>
        </clipPath>
    </defs>
</svg>
