<svg width="30" height="30" viewBox="0 0 30 30" fill="none" xmlns="http://www.w3.org/2000/svg">
    <g clip-path="url(#clip0_530_40089)">
        <path fill-rule="evenodd" clip-rule="evenodd" d="M0 0H30V30H0V0Z" fill="#00247D"/>
        <path d="M23.2263 9.07788V9.88346L24.8375 9.07788H23.2263Z" fill="white"/>
        <path d="M23.5695 9.97326L23.0959 9.32153L24.8729 9.02625L23.5695 9.97326Z" fill="white"/>
        <path d="M23.2261 9.07788V9.88346L21.6149 9.07788H23.2261Z" fill="white"/>
        <path d="M22.8829 9.97326L23.3564 9.32153L21.5795 9.02625L22.8829 9.97326Z" fill="white"/>
        <path d="M23.6804 9.41211L22.9197 9.66521L24.1838 10.9402L23.6804 9.41211Z" fill="white"/>
        <path d="M22.9405 10.024L23.406 9.36353L24.2519 10.9623L22.9405 10.024Z" fill="white"/>
        <path d="M22.7666 9.40796L23.5273 9.66106L23.2699 7.87983L22.7666 9.40796Z" fill="white"/>
        <path d="M23.724 9.37139L22.9438 9.61108L23.2402 7.82985L23.724 9.37139Z" fill="white"/>
        <path d="M22.772 9.41211L23.5326 9.66521L22.2686 10.9402L22.772 9.41211Z" fill="white"/>
        <path d="M23.5119 10.024L23.0464 9.36353L22.2005 10.9623L23.5119 10.024Z" fill="white"/>
        <path d="M23.2263 9.24194V9.77426L24.291 9.24194H23.2263Z" fill="#CC142B"/>
        <path d="M23.453 9.83349L23.1401 9.40283L24.3143 9.20771L23.453 9.83349Z" fill="#CC142B"/>
        <path d="M23.2263 9.24194V9.77426L22.1617 9.24194H23.2263Z" fill="#CC142B"/>
        <path d="M22.9996 9.83349L23.3125 9.40283L22.1383 9.20771L22.9996 9.83349Z" fill="#CC142B"/>
        <path d="M23.5266 9.46265L23.024 9.62989L23.8592 10.4724L23.5266 9.46265Z" fill="#CC142B"/>
        <path d="M23.0376 9.86708L23.3452 9.43066L23.9042 10.4871L23.0376 9.86708Z" fill="#CC142B"/>
        <path d="M22.9226 9.45972L23.4253 9.62696L23.2552 8.44994L22.9226 9.45972Z" fill="#CC142B"/>
        <path d="M23.5553 9.4356L23.0398 9.59399L23.2356 8.41697L23.5553 9.4356Z" fill="#CC142B"/>
        <path d="M22.926 9.46265L23.4287 9.62989L22.5934 10.4724L22.926 9.46265Z" fill="#CC142B"/>
        <path d="M23.415 9.86708L23.1074 9.43066L22.5485 10.4871L23.415 9.86708Z" fill="#CC142B"/>
        <path d="M27.447 12.825L27.4605 13.5149L28.8673 12.798L27.447 12.825Z" fill="white"/>
        <path d="M27.7666 13.5947L27.3311 13.0305L28.9123 12.7363L27.7666 13.5947Z" fill="white"/>
        <path d="M27.4333 12.7979L27.4468 13.4878L26.0131 12.8248L27.4333 12.7979Z" fill="white"/>
        <path d="M27.1569 13.5946L27.5627 12.9973L25.9815 12.7693L27.1569 13.5946Z" fill="white"/>
        <path d="M27.8384 13.0952L27.1742 13.3303L28.299 14.4452L27.8384 13.0952Z" fill="white"/>
        <path d="M27.1927 13.6541L27.5942 13.052L28.3724 14.4747L27.1927 13.6541Z" fill="white"/>
        <path d="M27.0378 13.1042L27.7324 13.3168L27.4681 11.7317L27.0378 13.1042Z" fill="white"/>
        <path d="M27.89 13.0434L27.2188 13.2725L27.4364 11.6874L27.89 13.0434Z" fill="white"/>
        <path d="M27.0249 13.0952L27.7195 13.3078L26.5947 14.4677L27.0249 13.0952Z" fill="white"/>
        <path d="M27.7011 13.6229L27.2715 13.052L26.5495 14.4747L27.7011 13.6229Z" fill="white"/>
        <path d="M27.447 12.9785L27.4553 13.4055L28.3259 12.9619L27.447 12.9785Z" fill="#CC142B"/>
        <path d="M27.6448 13.4549L27.3752 13.1057L28.3537 12.9236L27.6448 13.4549Z" fill="#CC142B"/>
        <path d="M27.4387 12.9617L27.447 13.3886L26.5599 12.9783L27.4387 12.9617Z" fill="#CC142B"/>
        <path d="M27.2674 13.4546L27.5186 13.085L26.5401 12.9439L27.2674 13.4546Z" fill="#CC142B"/>
        <path d="M27.6892 13.1455L27.2782 13.291L27.9743 13.9809L27.6892 13.1455Z" fill="#CC142B"/>
        <path d="M27.2896 13.4912L27.5381 13.1187L28.0196 13.999L27.2896 13.4912Z" fill="#CC142B"/>
        <path d="M27.1938 13.1511L27.6237 13.2826L27.4601 12.3018L27.1938 13.1511Z" fill="#CC142B"/>
        <path d="M27.7213 13.1137L27.3059 13.2554L27.4406 12.2745L27.7213 13.1137Z" fill="#CC142B"/>
        <path d="M27.186 13.1455L27.6158 13.277L26.9198 13.9948L27.186 13.1455Z" fill="#CC142B"/>
        <path d="M27.6045 13.4722L27.3386 13.1189L26.8919 13.9993L27.6045 13.4722Z" fill="#CC142B"/>
        <path d="M18.3083 14.0608L18.3235 14.8361L19.9044 14.0305L18.3083 14.0608Z" fill="white"/>
        <path d="M18.6674 14.9258L18.178 14.2917L19.9549 13.9611L18.6674 14.9258Z" fill="white"/>
        <path d="M18.2932 14.0305L18.3083 14.8059L16.6972 14.0607L18.2932 14.0305Z" fill="white"/>
        <path d="M17.9824 14.9259L18.4385 14.2546L16.6615 13.9984L17.9824 14.9259Z" fill="white"/>
        <path d="M18.7483 14.3645L18.0019 14.6286L19.266 15.8816L18.7483 14.3645Z" fill="white"/>
        <path d="M18.0226 14.9925L18.4739 14.3159L19.3483 15.9147L18.0226 14.9925Z" fill="white"/>
        <path d="M17.8486 14.3745L18.6292 14.6134L18.3321 12.8321L17.8486 14.3745Z" fill="white"/>
        <path d="M18.8063 14.3064L18.052 14.5637L18.2966 12.7825L18.8063 14.3064Z" fill="white"/>
        <path d="M17.8342 14.3645L18.6148 14.6033L17.3507 15.9069L17.8342 14.3645Z" fill="white"/>
        <path d="M18.5941 14.9575L18.1113 14.3159L17.3 15.9147L18.5941 14.9575Z" fill="white"/>
        <path d="M18.3083 14.2146L18.3183 14.7269L19.363 14.1946L18.3083 14.2146Z" fill="#CC142B"/>
        <path d="M18.5456 14.7864L18.2222 14.3674L19.3964 14.1489L18.5456 14.7864Z" fill="#CC142B"/>
        <path d="M18.2983 14.1946L18.3083 14.7069L17.2437 14.2146L18.2983 14.1946Z" fill="#CC142B"/>
        <path d="M18.0932 14.7861L18.3945 14.3425L17.2203 14.1732L18.0932 14.7861Z" fill="#CC142B"/>
        <path d="M18.5991 14.4153L18.1059 14.5898L18.9412 15.4178L18.5991 14.4153Z" fill="#CC142B"/>
        <path d="M18.1195 14.8301L18.4177 14.3831L18.9956 15.4395L18.1195 14.8301Z" fill="#CC142B"/>
        <path d="M18.0046 14.4219L18.5204 14.5797L18.3241 13.4027L18.0046 14.4219Z" fill="#CC142B"/>
        <path d="M18.6374 14.3768L18.1389 14.5469L18.3005 13.3699L18.6374 14.3768Z" fill="#CC142B"/>
        <path d="M17.9951 14.4153L18.5109 14.5731L17.6756 15.4345L17.9951 14.4153Z" fill="#CC142B"/>
        <path d="M18.4973 14.807L18.1782 14.3831L17.6421 15.4395L18.4973 14.807Z" fill="#CC142B"/>
        <path d="M23.2261 21.8003V22.6946L25.0147 21.8003H23.2261Z" fill="white"/>
        <path d="M23.6072 22.7941L23.0815 22.0706L25.0542 21.7428L23.6072 22.7941Z" fill="white"/>
        <path d="M23.2263 21.8003V22.6946L21.4377 21.8003H23.2263Z" fill="white"/>
        <path d="M22.8452 22.7941L23.3708 22.0706L21.3982 21.7428L22.8452 22.7941Z" fill="white"/>
        <path d="M23.7305 22.1709L22.886 22.4519L24.2892 23.8673L23.7305 22.1709Z" fill="white"/>
        <path d="M22.909 22.8501L23.4258 22.1169L24.3649 23.8918L22.909 22.8501Z" fill="white"/>
        <path d="M22.7158 22.1663L23.5603 22.4472L23.2746 20.4698L22.7158 22.1663Z" fill="white"/>
        <path d="M23.779 22.126L22.9128 22.3921L23.2419 20.4147L23.779 22.126Z" fill="white"/>
        <path d="M22.7219 22.1709L23.5664 22.4519L22.1631 23.8673L22.7219 22.1709Z" fill="white"/>
        <path d="M23.5434 22.8501L23.0266 22.1169L22.0875 23.8918L23.5434 22.8501Z" fill="white"/>
        <path d="M23.2263 21.9641V22.5851L24.4684 21.9641H23.2263Z" fill="#CC142B"/>
        <path d="M23.491 22.6543L23.126 22.1519L24.4959 21.9242L23.491 22.6543Z" fill="#CC142B"/>
        <path d="M23.2263 21.9641V22.5851L21.9842 21.9641H23.2263Z" fill="#CC142B"/>
        <path d="M22.9616 22.6543L23.3267 22.1519L21.9568 21.9242L22.9616 22.6543Z" fill="#CC142B"/>
        <path d="M23.5764 22.2217L22.99 22.4168L23.9645 23.3998L23.5764 22.2217Z" fill="#CC142B"/>
        <path d="M23.0059 22.6932L23.3647 22.1841L24.0169 23.4166L23.0059 22.6932Z" fill="#CC142B"/>
        <path d="M22.8718 22.2185L23.4582 22.4136L23.2599 21.0404L22.8718 22.2185Z" fill="#CC142B"/>
        <path d="M23.61 22.1905L23.0085 22.3752L23.237 21.002L23.61 22.1905Z" fill="#CC142B"/>
        <path d="M22.876 22.2217L23.4624 22.4168L22.4879 23.3998L22.876 22.2217Z" fill="#CC142B"/>
        <path d="M23.4465 22.6932L23.0876 22.1841L22.4355 23.4166L23.4465 22.6932Z" fill="#CC142B"/>
        <path d="M0 0H15V15H0V0Z" fill="#012169"/>
        <path d="M15 0V1.875L9.43359 7.5L15 12.9785V15H13.0371L7.44141 9.49219L1.99219 15H0V13.0078L5.44922 7.5293L0 2.16797V0H1.81641L7.44141 5.50781L12.8906 0H15Z" fill="white"/>
        <path d="M5.39062 9.49219L5.71289 10.4883L1.23047 15H0V14.9121L5.39062 9.49219ZM9.02344 9.14062L10.6055 9.375L15 13.6816V15L9.02344 9.14062ZM15 0L9.375 5.74219L9.25781 4.45312L13.6523 0H15ZM0 0.0292969L5.6543 5.56641L3.92578 5.33203L0 1.43555V0.0292969Z" fill="#C8102E"/>
        <path d="M5.15625 0V15H9.84375V0H5.15625ZM0 5.15625V9.84375H15V5.15625H0Z" fill="white"/>
        <path d="M0 6.09375V8.90625H15V6.09375H0ZM6.09375 0V15H8.90625V0H6.09375Z" fill="#C8102E"/>
    </g>
    <defs>
        <clipPath id="clip0_530_40089">
            <rect width="30" height="30" rx="15" fill="white"/>
        </clipPath>
    </defs>
</svg>
