<svg width="30" height="30" viewBox="0 0 30 30" fill="none" xmlns="http://www.w3.org/2000/svg">
    <g clip-path="url(#clip0_530_1205)">
        <path d="M12 0H30V30H11.9941L12 0Z" fill="#FF0000"/>
        <path d="M-4.65661e-10 0H12V30H-0.00585938L-4.65661e-10 0Z" fill="#006600"/>
        <path fill-rule="evenodd" clip-rule="evenodd" d="M17.2148 19.1367C15.1992 19.0781 5.96484 13.3125 5.90625 12.3926L6.41016 11.543C7.32422 12.873 16.7695 18.4805 17.6953 18.2812L17.2148 19.1367Z" fill="#FFFF00" stroke="black" stroke-width="0.0875" stroke-linecap="round" stroke-linejoin="round"/>
        <path fill-rule="evenodd" clip-rule="evenodd" d="M6.30466 11.4258C6.12302 11.9121 8.71286 13.5117 11.83 15.4102C14.9472 17.3027 17.6308 18.4746 17.8359 18.3105L17.9238 18.1406C17.8886 18.1992 17.7949 18.2168 17.6543 18.1758C16.8105 17.9297 14.6133 16.9219 11.8945 15.2754C9.17575 13.6289 6.80856 12.1055 6.44528 11.4609C6.41534 11.401 6.40122 11.3345 6.40427 11.2676H6.39255L6.31638 11.4023L6.30466 11.4258ZM17.2617 19.1602C17.2265 19.2246 17.1621 19.2246 17.0449 19.2188C16.289 19.1309 13.998 18.0176 11.3027 16.4004C8.15036 14.5137 5.5488 12.7969 5.83591 12.3516L5.91208 12.2109L5.9238 12.2168C5.67184 12.9785 11.0566 16.0547 11.373 16.2539C14.4843 18.1875 17.1152 19.3125 17.3496 19.0195L17.2617 19.1602Z" fill="#FFFF00" stroke="black" stroke-width="0.0875" stroke-linecap="round" stroke-linejoin="round"/>
        <path fill-rule="evenodd" clip-rule="evenodd" d="M12.0117 12.9492C14.0215 12.9316 16.5117 12.6738 17.9414 12.1055L17.6367 11.6016C16.7871 12.0703 14.291 12.3809 11.9941 12.4219C9.27539 12.3984 7.35938 12.1465 6.39844 11.502L6.10547 12.0352C7.875 12.7793 9.67969 12.9434 12.0117 12.9492Z" fill="#FFFF00" stroke="black" stroke-width="0.0875" stroke-linecap="round" stroke-linejoin="round"/>
        <path fill-rule="evenodd" clip-rule="evenodd" d="M18.0293 12.1172C17.9766 12.1934 17.0449 12.5156 15.668 12.75C14.4538 12.9321 13.2277 13.0222 12 13.0195C10.8244 13.0248 9.64988 12.9504 8.48438 12.7969C7.04883 12.5684 6.29883 12.252 6.02344 12.1406L6.09375 12.0059C6.87295 12.313 7.68495 12.5292 8.51367 12.6504C9.66953 12.8016 10.8343 12.874 12 12.8672C13.2179 12.868 14.4342 12.7779 15.6387 12.5977C17.0449 12.3691 17.8184 12.0762 17.9238 11.9414L18.0293 12.1172ZM17.7539 11.6016C17.6016 11.7188 16.8398 11.9941 15.5039 12.2051C14.3492 12.3708 13.1841 12.4531 12.0176 12.4512C10.8927 12.4597 9.76874 12.3873 8.6543 12.2344C7.28906 12.0586 6.56836 11.7363 6.31055 11.6426L6.38672 11.5078C6.58594 11.6133 7.28906 11.8945 8.67188 12.0937C9.7812 12.2375 10.899 12.306 12.0176 12.2988C13.1744 12.3004 14.3297 12.2182 15.4746 12.0527C16.8223 11.8652 17.5488 11.5254 17.6602 11.4375L17.7539 11.6016ZM5.39062 15.375C6.63281 16.043 9.38086 16.3828 11.9883 16.4062C14.3613 16.4062 17.4551 16.0371 18.6094 15.4219L18.5742 14.7539C18.2168 15.3223 14.9062 15.8672 11.9648 15.8437C9.02344 15.8203 6.29297 15.3633 5.38477 14.7773V15.375" fill="#FFFF00"/>
        <path d="M5.39062 15.375C6.63281 16.043 9.38086 16.3828 11.9883 16.4062C14.3613 16.4062 17.4551 16.0371 18.6094 15.4219L18.5742 14.7539C18.2168 15.3223 14.9063 15.8672 11.9648 15.8437C9.02344 15.8203 6.29297 15.3633 5.38477 14.7773V15.375M18.0293 12.1172C17.9766 12.1934 17.0449 12.5156 15.668 12.75C14.4538 12.9321 13.2277 13.0222 12 13.0195C10.8244 13.0248 9.64988 12.9504 8.48438 12.7969C7.04883 12.5684 6.29883 12.252 6.02344 12.1406L6.09375 12.0059C6.87295 12.313 7.68495 12.5292 8.51367 12.6504C9.66952 12.8016 10.8343 12.874 12 12.8672C13.2179 12.868 14.4342 12.7779 15.6387 12.5977C17.0449 12.3691 17.8184 12.0762 17.9238 11.9414L18.0293 12.1172ZM17.7539 11.6016C17.6016 11.7188 16.8398 11.9941 15.5039 12.2051C14.3492 12.3708 13.1841 12.4531 12.0176 12.4512C10.8927 12.4597 9.76874 12.3873 8.6543 12.2344C7.28906 12.0586 6.56836 11.7363 6.31055 11.6426L6.38672 11.5078C6.58594 11.6133 7.28906 11.8945 8.67188 12.0937C9.7812 12.2375 10.899 12.306 12.0176 12.2988C13.1744 12.3004 14.3297 12.2182 15.4746 12.0527C16.8223 11.8652 17.5488 11.5254 17.6602 11.4375L17.7539 11.6016Z" stroke="black" stroke-width="0.0875" stroke-linecap="round" stroke-linejoin="round"/>
        <path fill-rule="evenodd" clip-rule="evenodd" d="M18.6738 15.2812V15.4395C18.498 15.6504 17.4082 15.9668 16.043 16.1836C14.6907 16.38 13.3255 16.474 11.959 16.4648C10.3535 16.4648 9.07617 16.3477 8.08008 16.1953C7.12434 16.0867 6.1902 15.8359 5.30859 15.4512V15.2637C5.91797 15.668 7.55273 15.9609 8.10352 16.0488C9.08789 16.2012 10.3594 16.3125 11.959 16.3125C13.6406 16.3125 14.9883 16.1953 16.0195 16.0371C17.0039 15.8965 18.3984 15.5273 18.6738 15.2812ZM18.6738 14.7129V14.877C18.498 15.082 17.4082 15.3984 16.043 15.6152C14.6907 15.8117 13.3255 15.9057 11.959 15.8965C10.3535 15.8965 9.07617 15.7793 8.08594 15.6328C7.12793 15.5227 6.19179 15.2699 5.30859 14.8828V14.6953C5.91797 15.0996 7.55273 15.3984 8.10352 15.4805C9.09375 15.6328 10.3652 15.75 11.959 15.75C13.6406 15.75 14.9883 15.6328 16.0195 15.4687C17.0039 15.3281 18.3984 14.959 18.6738 14.7129ZM11.9824 19.0195C9.13477 19.002 6.69141 18.2461 6.17578 18.1172L6.55078 18.7031C7.45898 19.0898 9.84375 19.6641 12.0117 19.5996C14.1797 19.5352 16.0723 19.3652 17.4023 18.7207L17.7891 18.1055C16.8809 18.5332 13.7871 19.0195 11.9883 19.0195" fill="#FFFF00"/>
        <path d="M11.9824 19.0195C9.13477 19.002 6.69141 18.2461 6.17578 18.1172L6.55078 18.7031C7.45898 19.0898 9.84375 19.6641 12.0117 19.5996C14.1797 19.5352 16.0723 19.3652 17.4023 18.7207L17.7891 18.1055C16.8809 18.5332 13.7871 19.0195 11.9883 19.0195M18.6738 15.2812V15.4395C18.498 15.6504 17.4082 15.9668 16.043 16.1836C14.6907 16.38 13.3255 16.474 11.959 16.4648C10.3535 16.4648 9.07617 16.3477 8.08008 16.1953C7.12434 16.0867 6.1902 15.8359 5.30859 15.4512V15.2637C5.91797 15.668 7.55273 15.9609 8.10352 16.0488C9.08789 16.2012 10.3594 16.3125 11.959 16.3125C13.6406 16.3125 14.9883 16.1953 16.0195 16.0371C17.0039 15.8965 18.3984 15.5273 18.6738 15.2812ZM18.6738 14.7129V14.877C18.498 15.082 17.4082 15.3984 16.043 15.6152C14.6907 15.8117 13.3255 15.9057 11.959 15.8965C10.3535 15.8965 9.07617 15.7793 8.08594 15.6328C7.12793 15.5227 6.19179 15.2699 5.30859 14.8828V14.6953C5.91797 15.0996 7.55273 15.3984 8.10352 15.4805C9.09375 15.6328 10.3652 15.75 11.959 15.75C13.6406 15.75 14.9883 15.6328 16.0195 15.4687C17.0039 15.3281 18.3984 14.959 18.6738 14.7129Z" stroke="black" stroke-width="0.0875" stroke-linecap="round" stroke-linejoin="round"/>
        <path fill-rule="evenodd" clip-rule="evenodd" d="M17.5488 18.5801C17.4917 18.667 17.4331 18.753 17.373 18.8379C16.7082 19.0585 16.0288 19.2327 15.3398 19.3594C14.2343 19.5628 13.1124 19.6648 11.9883 19.6641C9.46289 19.6289 7.39453 19.1367 6.42187 18.7148L6.33984 18.5801L6.35742 18.5566L6.48633 18.6094C8.26534 19.1989 10.1259 19.5053 12 19.5176C13.1719 19.5234 14.3438 19.3828 15.2871 19.2187C16.7402 18.9258 17.3262 18.709 17.5078 18.6094L17.5488 18.5801ZM17.8828 18.0293H17.8887C17.8462 18.1038 17.8033 18.178 17.7598 18.252C17.4258 18.3691 16.5117 18.6387 15.1816 18.8262C14.3027 18.9434 13.7578 19.0605 12.0176 19.0957C10.0237 19.0742 8.0422 18.7785 6.12891 18.2168L6.05859 18.0703C8.00197 18.6037 10.003 18.8988 12.0176 18.9492C13.6113 18.9141 14.291 18.7969 15.1582 18.6738C16.7109 18.4395 17.4902 18.1816 17.7246 18.1055C17.7228 18.1015 17.7208 18.0976 17.7188 18.0937L17.8828 18.0293Z" fill="#FFFF00" stroke="black" stroke-width="0.075" stroke-linecap="round" stroke-linejoin="round"/>
        <path fill-rule="evenodd" clip-rule="evenodd" d="M17.918 14.8477C17.9297 16.7227 16.9688 18.4102 16.1953 19.1543C15.0592 20.2593 13.5436 20.8881 11.959 20.9121C10.0664 20.9473 8.28516 19.7109 7.80469 19.1719C6.86719 18.1113 6.10547 16.7695 6.08203 14.9531C6.19922 12.9023 7.00195 11.4785 8.16797 10.5C9.29627 9.57194 10.7149 9.07003 12.1758 9.08203C13.6641 9.12305 15.4102 9.85547 16.6113 11.3086C17.3965 12.2578 17.7422 13.2891 17.918 14.8535V14.8477ZM11.9766 8.42578C15.6094 8.42578 18.5977 11.3848 18.5977 15.0059C18.5868 16.7548 17.8845 18.4283 16.6439 19.6612C15.4034 20.894 13.7255 21.586 11.9766 21.5859C8.34375 21.5859 5.37891 18.6328 5.37891 15.0059C5.37891 11.3789 8.34375 8.42578 11.9766 8.42578Z" fill="#FFFF00" stroke="black" stroke-width="0.0875" stroke-linecap="round" stroke-linejoin="round"/>
        <path fill-rule="evenodd" clip-rule="evenodd" d="M11.9941 8.40234C15.627 8.40234 18.5918 11.373 18.5918 15.0059C18.5918 18.6387 15.627 21.6094 11.9941 21.6094C10.2432 21.6047 8.56537 20.9067 7.32781 19.668C6.09025 18.4294 5.39372 16.7509 5.39062 15C5.39526 13.2501 6.09248 11.5731 7.32987 10.3357C8.56727 9.09834 10.2442 8.40112 11.9941 8.39648V8.40234ZM5.53711 15.0059C5.53711 18.5566 8.45508 21.4629 11.9941 21.4629C15.5332 21.4629 18.4453 18.5566 18.4453 15.0059C18.4453 11.4551 15.5332 8.55469 11.9941 8.55469C10.2845 8.56085 8.64663 9.24232 7.43721 10.4507C6.22778 11.659 5.54483 13.2963 5.53711 15.0059Z" fill="#FFFF00" stroke="black" stroke-width="0.0875" stroke-linecap="round" stroke-linejoin="round"/>
        <path fill-rule="evenodd" clip-rule="evenodd" d="M12 8.95312C15.3105 8.95312 18.041 11.6777 18.041 15C18.041 18.3281 15.3105 21.0469 12 21.0469C10.3972 21.0422 8.86119 20.4039 7.72725 19.271C6.59332 18.1382 5.95345 16.6028 5.94727 15C5.94727 11.6777 8.67773 8.95312 11.9941 8.95312H12ZM6.09375 15C6.09375 18.2461 8.75977 20.9004 12 20.9004C15.2344 20.9004 17.9004 18.2461 17.9004 15C17.9004 11.7539 15.2344 9.09961 11.9941 9.09961C8.75391 9.09961 6.09375 11.7539 6.09375 15Z" fill="#FFFF00" stroke="black" stroke-width="0.0875" stroke-linecap="round" stroke-linejoin="round"/>
        <path fill-rule="evenodd" clip-rule="evenodd" d="M12.2637 8.37891H11.6953V21.6445H12.2637V8.37891Z" fill="#FFFF00" stroke="black" stroke-width="0.0875" stroke-linecap="round" stroke-linejoin="round"/>
        <path fill-rule="evenodd" clip-rule="evenodd" d="M12.2051 8.30273H12.3516V21.7207H12.2051V8.30273ZM11.6426 8.30273H11.7891V21.7207H11.6426V8.30273Z" fill="#FFFF00" stroke="black" stroke-width="0.0875" stroke-linecap="round" stroke-linejoin="round"/>
        <path fill-rule="evenodd" clip-rule="evenodd" d="M18.5977 15.2637V14.7656L18.1992 14.3965L15.9316 13.793L12.6621 13.459L8.73633 13.6582L5.92969 14.3262L5.36719 14.748V15.2344L6.79688 14.5898L10.1953 14.0625H13.4648L15.8672 14.3262L17.5312 14.7305L18.5977 15.2637Z" fill="#FFFF00" stroke="black" stroke-width="0.0875" stroke-linecap="round" stroke-linejoin="round"/>
        <path fill-rule="evenodd" clip-rule="evenodd" d="M11.9941 13.9864C13.4267 13.9805 14.8567 14.108 16.2656 14.3672C17.502 14.6133 18.375 14.9239 18.668 15.2696V15.4453C18.3164 15.0118 17.1445 14.6953 16.2363 14.5078C15.0469 14.2793 13.541 14.1328 11.9941 14.1328C10.3535 14.1328 8.83008 14.2911 7.6582 14.5196C6.7207 14.7071 5.4668 15.0762 5.30859 15.4453V15.2696C5.39648 15.0118 6.32812 14.6309 7.64062 14.3672C9.07699 14.1066 10.5343 13.9791 11.9941 13.9864ZM11.9941 13.418C13.4286 13.4125 14.8605 13.54 16.2715 13.7989C17.502 14.045 18.3809 14.3555 18.6738 14.7071V14.877C18.3164 14.4434 17.1387 14.127 16.2363 13.9453C15.0469 13.711 13.541 13.5645 11.9941 13.5645C10.5439 13.56 9.09635 13.6895 7.66992 13.9512C6.76172 14.127 5.45508 14.5137 5.30859 14.877V14.7012C5.39648 14.4493 6.35156 14.0567 7.64062 13.8047C9.07681 13.5422 10.5342 13.4127 11.9941 13.418ZM11.9648 10.5293C14.4199 10.5176 16.5645 10.875 17.543 11.3789L17.9004 11.9942C17.0508 11.5371 14.7363 11.0567 11.9648 11.1328C9.70898 11.1446 7.30078 11.3789 6.08789 12.0235L6.51562 11.3086C7.51172 10.793 9.85547 10.5352 11.9648 10.5293Z" fill="#FFFF00" stroke="black" stroke-width="0.0875" stroke-linecap="round" stroke-linejoin="round"/>
        <path fill-rule="evenodd" clip-rule="evenodd" d="M11.9941 11.0391C13.4004 11.0391 14.748 11.1152 15.8262 11.3086C16.8281 11.4961 17.7891 11.7773 17.9238 11.9297L18.0293 12.1172C17.6953 11.9004 16.8691 11.6543 15.8027 11.4551C14.5435 11.2545 13.269 11.1663 11.9941 11.1914C10.4121 11.1914 9.18164 11.2676 8.12695 11.4551C7.01367 11.6602 6.24023 11.959 6.04688 12.0996L6.15234 11.9063C6.52148 11.7129 7.11328 11.4844 8.10352 11.3086C9.19336 11.1094 10.4297 11.0508 11.9941 11.0391ZM11.9941 10.4766C13.2317 10.4571 14.4686 10.5433 15.6914 10.7344C16.5059 10.8926 17.3086 11.1387 17.6074 11.3555L17.7598 11.6016C17.4961 11.3086 16.5059 11.0332 15.627 10.8809C14.6074 10.7051 13.3359 10.6348 11.9941 10.6231C10.5879 10.6231 9.28711 10.7109 8.2793 10.8926C7.31836 11.0801 6.69727 11.2969 6.43359 11.4668L6.56836 11.2559C6.93164 11.0684 7.51758 10.8926 8.25586 10.7461C9.26953 10.5645 10.582 10.4766 11.9941 10.4766ZM15.2754 17.7481C14.192 17.5613 13.0932 17.4789 11.9941 17.502C7.89844 17.5488 6.58008 18.3398 6.41602 18.5801L6.11133 18.082C7.14844 17.3262 9.375 16.9043 12.0117 16.9453C13.377 16.9688 14.5547 17.0625 15.5508 17.25L15.2695 17.7481" fill="#FFFF00"/>
        <path d="M15.2754 17.7481C14.192 17.5613 13.0932 17.4789 11.9941 17.502C7.89844 17.5488 6.58008 18.3398 6.41602 18.5801L6.11133 18.082C7.14844 17.3262 9.375 16.9043 12.0117 16.9453C13.377 16.9688 14.5547 17.0625 15.5508 17.25L15.2695 17.7481M11.9941 11.0391C13.4004 11.0391 14.748 11.1152 15.8262 11.3086C16.8281 11.4961 17.7891 11.7773 17.9238 11.9297L18.0293 12.1172C17.6953 11.9004 16.8691 11.6543 15.8027 11.4551C14.5435 11.2545 13.269 11.1663 11.9941 11.1914C10.4121 11.1914 9.18164 11.2676 8.12695 11.4551C7.01367 11.6602 6.24023 11.959 6.04688 12.0996L6.15234 11.9063C6.52148 11.7129 7.11328 11.4844 8.10352 11.3086C9.19336 11.1094 10.4297 11.0508 11.9941 11.0391ZM11.9941 10.4766C13.2317 10.4571 14.4686 10.5433 15.6914 10.7344C16.5059 10.8926 17.3086 11.1387 17.6074 11.3555L17.7598 11.6016C17.4961 11.3086 16.5059 11.0332 15.627 10.8809C14.6074 10.7051 13.3359 10.6348 11.9941 10.6231C10.5879 10.6231 9.28711 10.7109 8.2793 10.8926C7.31836 11.0801 6.69727 11.2969 6.43359 11.4668L6.56836 11.2559C6.93164 11.0684 7.51758 10.8926 8.25586 10.7461C9.26953 10.5645 10.582 10.4766 11.9941 10.4766Z" stroke="black" stroke-width="0.0875" stroke-linecap="round" stroke-linejoin="round"/>
        <path fill-rule="evenodd" clip-rule="evenodd" d="M11.9707 17.4317C13.1074 17.4493 14.2266 17.4903 15.3105 17.6954L15.2285 17.836C14.1548 17.6506 13.066 17.5662 11.9766 17.584C10.4648 17.5723 8.92969 17.7129 7.60547 18.0938C7.18359 18.211 6.49219 18.4805 6.41602 18.7032L6.33984 18.5743C6.36328 18.4454 6.78516 18.17 7.57031 17.9532C9.09375 17.5137 10.5176 17.4434 11.9648 17.4258L11.9707 17.4317ZM12.0234 16.8575C13.2236 16.8563 14.4215 16.9603 15.6035 17.168L15.5215 17.3145C14.3695 17.1038 13.2003 17.0018 12.0293 17.0098C10.5117 17.0098 8.90625 17.1211 7.44141 17.543C6.97266 17.6836 6.15234 17.9766 6.12891 18.211L6.05273 18.0762C6.07031 17.8653 6.77344 17.584 7.41211 17.3965C8.91662 17.003 10.4687 16.8216 12.0234 16.8575Z" fill="#FFFF00" stroke="black" stroke-width="0.075" stroke-linecap="round" stroke-linejoin="round"/>
        <path fill-rule="evenodd" clip-rule="evenodd" d="M17.8359 18.1582L17.3437 18.9199L15.9316 17.666L12.2637 15.2051L8.13281 12.9316L5.98242 12.1992L6.43945 11.3496L6.59766 11.2676L7.93359 11.6016L12.3281 13.8691L14.8652 15.4688L16.9922 16.9922L17.8594 17.9941L17.8359 18.1582Z" fill="#FFFF00" stroke="black" stroke-width="0.0875" stroke-linecap="round" stroke-linejoin="round"/>
        <path fill-rule="evenodd" clip-rule="evenodd" d="M5.90625 12.2168C6.28711 11.9648 9.05273 13.1953 11.9414 14.9414C14.8301 16.6934 17.5898 18.668 17.3438 19.043L17.2617 19.166L17.2207 19.1953C17.2324 19.1953 17.2734 19.1367 17.2207 19.002C17.0918 18.5977 15.1406 17.0391 11.8887 15.0762C8.72461 13.1895 6.08789 12.0527 5.82422 12.3809L5.90625 12.2168ZM17.9355 18.1465C18.1699 17.6777 15.6094 15.7441 12.4277 13.8633C9.17578 12.0176 6.82617 10.9336 6.39844 11.2559L6.30469 11.4316C6.30469 11.4375 6.30469 11.4199 6.32812 11.4023C6.4043 11.3379 6.5332 11.3438 6.5918 11.3438C7.33008 11.3496 9.43945 12.3164 12.3926 14.0156C13.6875 14.7656 17.8652 17.4492 17.8477 18.1992C17.8477 18.2637 17.8535 18.2754 17.8301 18.3105L17.9355 18.1465Z" fill="#FFFF00" stroke="black" stroke-width="0.0875" stroke-linecap="round" stroke-linejoin="round"/>
        <path d="M8.03809 15.7308C8.03907 16.2483 8.1427 16.7604 8.34296 17.2376C8.54322 17.7148 8.83613 18.1476 9.20475 18.5108C9.56888 18.8805 10.0026 19.1745 10.4808 19.3759C10.9591 19.5773 11.4725 19.682 11.9914 19.6841C13.0417 19.684 14.0488 19.2668 14.7914 18.5241C15.1588 18.1589 15.4503 17.7247 15.6494 17.2465C15.8485 16.7683 15.9511 16.2554 15.9514 15.7374V10.4574L8.03809 10.4441V15.7308Z" fill="white" stroke="black" stroke-width="0.0995558"/>
        <path d="M8.18481 15.7374C8.18622 16.2339 8.28592 16.7251 8.47815 17.1828C8.67038 17.6405 8.95134 18.0556 9.30482 18.4041C10.0146 19.1176 10.9784 19.5204 11.9848 19.5241C12.9895 19.5247 13.9533 19.1267 14.6648 18.4174C15.0171 18.0683 15.2968 17.653 15.4879 17.1953C15.679 16.7377 15.7776 16.2467 15.7782 15.7508V10.6174H8.19815V15.7374M14.2648 12.1574V15.4174L14.2582 15.7574C14.2604 16.0553 14.2025 16.3505 14.088 16.6254C13.9734 16.9003 13.8046 17.1493 13.5915 17.3574C13.1675 17.7829 12.5921 18.0226 11.9915 18.0241C11.3648 18.0241 10.8115 17.7574 10.3982 17.3441C9.97273 16.9202 9.73296 16.3447 9.73148 15.7441V12.1441L14.2648 12.1574Z" fill="#FF0000"/>
        <path d="M8.18481 15.7374C8.18622 16.2339 8.28592 16.7251 8.47815 17.1828C8.67038 17.6405 8.95134 18.0556 9.30482 18.4041C10.0146 19.1176 10.9784 19.5204 11.9848 19.5241C12.9895 19.5247 13.9533 19.1267 14.6648 18.4174C15.0171 18.0683 15.2968 17.653 15.4879 17.1953C15.679 16.7377 15.7776 16.2467 15.7782 15.7508V10.6174H8.19815V15.7374M14.2648 12.1574V15.4174L14.2582 15.7574C14.2604 16.0553 14.2025 16.3505 14.088 16.6254C13.9734 16.9003 13.8046 17.1493 13.5915 17.3574C13.1675 17.7829 12.5921 18.0226 11.9915 18.0241C11.3648 18.0241 10.8115 17.7574 10.3982 17.3441C9.97273 16.9202 9.73296 16.3447 9.73148 15.7441V12.1441L14.2648 12.1574Z" stroke="black" stroke-width="0.0711113"/>
        <path d="M8.67798 11.9575C8.68465 11.5908 8.94465 11.5042 8.94465 11.5042C8.95131 11.5042 9.23131 11.5975 9.23131 11.9642H8.67798" fill="#FFFF00"/>
        <path d="M8.45139 11.5108L8.40473 11.9308H8.68473C8.68473 11.5842 8.95139 11.5308 8.95139 11.5308C8.95806 11.5308 9.21806 11.6042 9.22473 11.9308H9.50473L9.4514 11.5042H8.45139V11.5108ZM8.38473 11.9375H9.51806C9.53806 11.9375 9.55806 11.9575 9.55806 11.9842C9.55806 12.0175 9.53806 12.0375 9.51806 12.0375H8.38473C8.36473 12.0375 8.34473 12.0175 8.34473 11.9842C8.34473 11.9575 8.36473 11.9375 8.39139 11.9375H8.38473Z" fill="#FFFF00" stroke="black" stroke-width="0.0711113"/>
        <path d="M8.798 11.9309C8.798 11.7109 8.95134 11.6509 8.95134 11.6509C8.95134 11.6509 9.10467 11.7175 9.10467 11.9309H8.798ZM8.41134 11.3309H9.49801C9.51801 11.3309 9.53801 11.3575 9.53801 11.3842C9.53801 11.4042 9.51801 11.4242 9.49801 11.4242H8.41134C8.39134 11.4242 8.37134 11.4042 8.37134 11.3775C8.37134 11.3575 8.39134 11.3375 8.41134 11.3375V11.3309ZM8.438 11.4309H9.46467C9.48467 11.4309 9.50467 11.4509 9.50467 11.4775C9.50467 11.5042 9.48467 11.5242 9.46467 11.5242H8.43134C8.40467 11.5242 8.39134 11.5042 8.39134 11.4775C8.39134 11.4509 8.40467 11.4309 8.43134 11.4309H8.438ZM8.77134 10.7242H8.85134V10.7775H8.91134V10.7242H8.99801V10.7842H9.05801V10.7175H9.13801V10.8509C9.13801 10.8775 9.12467 10.8909 9.10467 10.8909H8.81134C8.79134 10.8909 8.77134 10.8775 8.77134 10.8575V10.7242ZM9.07801 10.9042L9.09801 11.3309H8.81134L8.83134 10.8975H9.07801" fill="#FFFF00"/>
        <path d="M9.07801 10.9042L9.09801 11.3309H8.81134L8.83134 10.8975H9.07801M8.798 11.9309C8.798 11.7109 8.95134 11.6509 8.95134 11.6509C8.95134 11.6509 9.10467 11.7175 9.10467 11.9309H8.798ZM8.41134 11.3309H9.49801C9.51801 11.3309 9.53801 11.3575 9.53801 11.3842C9.53801 11.4042 9.51801 11.4242 9.49801 11.4242H8.41134C8.39134 11.4242 8.37134 11.4042 8.37134 11.3775C8.37134 11.3575 8.39134 11.3375 8.41134 11.3375V11.3309ZM8.438 11.4309H9.46467C9.48467 11.4309 9.50467 11.4509 9.50467 11.4775C9.50467 11.5042 9.48467 11.5242 9.46467 11.5242H8.43134C8.40467 11.5242 8.39134 11.5042 8.39134 11.4775C8.39134 11.4509 8.40467 11.4309 8.43134 11.4309H8.438ZM8.77134 10.7242H8.85134V10.7775H8.91134V10.7242H8.99801V10.7842H9.05801V10.7175H9.13801V10.8509C9.13801 10.8775 9.12467 10.8909 9.10467 10.8909H8.81134C8.79134 10.8909 8.77134 10.8775 8.77134 10.8575V10.7242Z" stroke="black" stroke-width="0.0711113"/>
        <path d="M8.73151 11.1042V11.3309H8.46484V11.1042H8.73151Z" fill="#FFFF00" stroke="black" stroke-width="0.0711113"/>
        <path d="M8.73151 11.1042V11.3309H8.46484V11.1042H8.73151Z" fill="#FFFF00" stroke="black" stroke-width="0.0711113"/>
        <path d="M8.41797 10.9309H8.49797V10.9976H8.55797V10.9309H8.63797V10.9976H8.69797V10.9309H8.77797V11.0642C8.77797 11.0909 8.76464 11.1042 8.74464 11.1042H8.45797C8.44736 11.1042 8.43719 11.1 8.42968 11.0925C8.42218 11.085 8.41797 11.0749 8.41797 11.0642V10.9309Z" fill="#FFFF00" stroke="black" stroke-width="0.0711113"/>
        <path d="M8.41797 10.9309H8.49797V10.9976H8.55797V10.9309H8.63797V10.9976H8.69797V10.9309H8.77797V11.0642C8.77797 11.0909 8.76464 11.1042 8.74464 11.1042H8.45797C8.44736 11.1042 8.43719 11.1 8.42968 11.0925C8.42218 11.085 8.41797 11.0749 8.41797 11.0642V10.9309Z" fill="#FFFF00" stroke="black" stroke-width="0.0711113"/>
        <path d="M8.9248 11.0376C8.9248 10.9976 8.98481 10.9976 8.98481 11.0376V11.1442H8.9248V11.0376Z" fill="black"/>
        <path d="M8.57129 11.1843C8.57129 11.1443 8.62462 11.1443 8.62462 11.1843V11.2643H8.57129V11.1843Z" fill="black"/>
        <path d="M8.57129 11.1843C8.57129 11.1443 8.62462 11.1443 8.62462 11.1843V11.2643H8.57129V11.1843Z" fill="black"/>
        <path d="M8.67798 11.9575C8.68465 11.5908 8.94465 11.5042 8.94465 11.5042C8.95131 11.5042 9.23131 11.5975 9.23131 11.9642H8.67798" fill="#FFFF00"/>
        <path d="M8.45139 11.5108L8.40473 11.9308H8.68473C8.68473 11.5842 8.95139 11.5308 8.95139 11.5308C8.95806 11.5308 9.21806 11.6042 9.22473 11.9308H9.50473L9.4514 11.5042H8.45139V11.5108ZM8.38473 11.9375H9.51806C9.53806 11.9375 9.55806 11.9575 9.55806 11.9842C9.55806 12.0175 9.53806 12.0375 9.51806 12.0375H8.38473C8.36473 12.0375 8.34473 12.0175 8.34473 11.9842C8.34473 11.9575 8.36473 11.9375 8.39139 11.9375H8.38473Z" fill="#FFFF00" stroke="black" stroke-width="0.0711113"/>
        <path d="M8.798 11.9309C8.798 11.7109 8.95134 11.6509 8.95134 11.6509C8.95134 11.6509 9.10467 11.7175 9.10467 11.9309H8.798ZM8.41134 11.3309H9.49801C9.51801 11.3309 9.53801 11.3575 9.53801 11.3842C9.53801 11.4042 9.51801 11.4242 9.49801 11.4242H8.41134C8.39134 11.4242 8.37134 11.4042 8.37134 11.3775C8.37134 11.3575 8.39134 11.3375 8.41134 11.3375V11.3309ZM8.438 11.4309H9.46467C9.48467 11.4309 9.50467 11.4509 9.50467 11.4775C9.50467 11.5042 9.48467 11.5242 9.46467 11.5242H8.43134C8.40467 11.5242 8.39134 11.5042 8.39134 11.4775C8.39134 11.4509 8.40467 11.4309 8.43134 11.4309H8.438ZM8.77134 10.7242H8.85134V10.7775H8.91134V10.7242H8.99801V10.7842H9.05801V10.7175H9.13801V10.8509C9.13801 10.8775 9.12467 10.8909 9.10467 10.8909H8.81134C8.79134 10.8909 8.77134 10.8775 8.77134 10.8575V10.7242ZM9.07801 10.9042L9.09801 11.3309H8.81134L8.83134 10.8975H9.07801" fill="#FFFF00"/>
        <path d="M9.07801 10.9042L9.09801 11.3309H8.81134L8.83134 10.8975H9.07801M8.798 11.9309C8.798 11.7109 8.95134 11.6509 8.95134 11.6509C8.95134 11.6509 9.10467 11.7175 9.10467 11.9309H8.798ZM8.41134 11.3309H9.49801C9.51801 11.3309 9.53801 11.3575 9.53801 11.3842C9.53801 11.4042 9.51801 11.4242 9.49801 11.4242H8.41134C8.39134 11.4242 8.37134 11.4042 8.37134 11.3775C8.37134 11.3575 8.39134 11.3375 8.41134 11.3375V11.3309ZM8.438 11.4309H9.46467C9.48467 11.4309 9.50467 11.4509 9.50467 11.4775C9.50467 11.5042 9.48467 11.5242 9.46467 11.5242H8.43134C8.40467 11.5242 8.39134 11.5042 8.39134 11.4775C8.39134 11.4509 8.40467 11.4309 8.43134 11.4309H8.438ZM8.77134 10.7242H8.85134V10.7775H8.91134V10.7242H8.99801V10.7842H9.05801V10.7175H9.13801V10.8509C9.13801 10.8775 9.12467 10.8909 9.10467 10.8909H8.81134C8.79134 10.8909 8.77134 10.8775 8.77134 10.8575V10.7242Z" stroke="black" stroke-width="0.0711113"/>
        <path d="M8.73151 11.1042V11.3309H8.46484V11.1042H8.73151Z" fill="#FFFF00" stroke="black" stroke-width="0.0711113"/>
        <path d="M8.73151 11.1042V11.3309H8.46484V11.1042H8.73151Z" fill="#FFFF00" stroke="black" stroke-width="0.0711113"/>
        <path d="M8.41797 10.9309H8.49797V10.9976H8.55797V10.9309H8.63797V10.9976H8.69797V10.9309H8.77797V11.0642C8.77797 11.0909 8.76464 11.1042 8.74464 11.1042H8.45797C8.44736 11.1042 8.43719 11.1 8.42968 11.0925C8.42218 11.085 8.41797 11.0749 8.41797 11.0642V10.9309Z" fill="#FFFF00" stroke="black" stroke-width="0.0711113"/>
        <path d="M8.41797 10.9309H8.49797V10.9976H8.55797V10.9309H8.63797V10.9976H8.69797V10.9309H8.77797V11.0642C8.77797 11.0909 8.76464 11.1042 8.74464 11.1042H8.45797C8.44736 11.1042 8.43719 11.1 8.42968 11.0925C8.42218 11.085 8.41797 11.0749 8.41797 11.0642V10.9309Z" fill="#FFFF00" stroke="black" stroke-width="0.0711113"/>
        <path d="M8.9248 11.0376C8.9248 10.9976 8.98481 10.9976 8.98481 11.0376V11.1442H8.9248V11.0376Z" fill="black"/>
        <path d="M8.57129 11.1843C8.57129 11.1443 8.62462 11.1443 8.62462 11.1843V11.2643H8.57129V11.1843Z" fill="black"/>
        <path d="M8.57129 11.1843C8.57129 11.1443 8.62462 11.1443 8.62462 11.1843V11.2643H8.57129V11.1843Z" fill="black"/>
        <path d="M9.881 18.2613C9.62552 17.9982 9.74723 17.7527 9.74723 17.7527C9.75193 17.7479 10.0155 17.615 10.2756 17.8734L9.88573 18.266" fill="#FFFF00"/>
        <path d="M9.40435 18.1072L9.66949 18.4363L9.86679 18.2376C9.6208 17.9933 9.77086 17.7665 9.77086 17.7665C9.77556 17.7618 10.0108 17.629 10.2473 17.8544L10.4446 17.6558L10.1043 17.393L9.39962 18.1025L9.40435 18.1072ZM9.66013 18.4552L10.4587 17.651C10.4728 17.6368 10.5011 17.6367 10.52 17.6555C10.5437 17.679 10.5438 17.7073 10.5297 17.7215L9.73109 18.5256C9.71699 18.5398 9.68871 18.5399 9.66506 18.5164C9.64614 18.4977 9.64604 18.4694 9.66483 18.4505L9.66013 18.4552Z" fill="#FFFF00" stroke="black" stroke-width="0.0711113"/>
        <path d="M9.94675 18.1572C9.79064 18.0022 9.85611 17.8511 9.85611 17.8511C9.85611 17.8511 10.0115 17.7893 10.1628 17.9396L9.94675 18.1572ZM9.24855 18.0088L10.0142 17.2377C10.0283 17.2235 10.0614 17.2281 10.0803 17.2469C10.0945 17.261 10.0946 17.2893 10.0805 17.3035L9.31477 18.0745C9.30068 18.0887 9.2724 18.0888 9.25347 18.07C9.23928 18.0559 9.23918 18.0277 9.25328 18.0135L9.24855 18.0088ZM9.33829 18.0603L10.0617 17.3318C10.0758 17.3176 10.1041 17.3175 10.123 17.3363C10.1419 17.3551 10.142 17.3834 10.1279 17.3976L9.39982 18.1308C9.38103 18.1497 9.35744 18.1451 9.33852 18.1263C9.3196 18.1075 9.31481 18.084 9.3336 18.065L9.33829 18.0603ZM9.07174 17.3258L9.12811 17.2691L9.16596 17.3067L9.20823 17.2641L9.17039 17.2265L9.23146 17.165L9.27403 17.2073L9.31631 17.1647L9.26901 17.1177L9.32538 17.061L9.41999 17.1549C9.43891 17.1737 9.43897 17.1926 9.42488 17.2068L9.21819 17.4149C9.20409 17.4291 9.18054 17.4339 9.16635 17.4198L9.07174 17.3258ZM9.41555 17.2351L9.7324 17.5215L9.5304 17.7249L9.23701 17.4054L9.41082 17.2304" fill="#FFFF00"/>
        <path d="M9.41555 17.2351L9.7324 17.5215L9.5304 17.7249L9.23701 17.4054L9.41082 17.2304M9.94675 18.1572C9.79064 18.0022 9.85611 17.8511 9.85611 17.8511C9.85611 17.8511 10.0115 17.7893 10.1628 17.9396L9.94675 18.1572ZM9.24855 18.0088L10.0142 17.2377C10.0283 17.2235 10.0614 17.2281 10.0803 17.2469C10.0945 17.261 10.0946 17.2893 10.0805 17.3035L9.31477 18.0745C9.30068 18.0887 9.2724 18.0888 9.25347 18.07C9.23928 18.0559 9.23918 18.0277 9.25328 18.0135L9.24855 18.0088ZM9.33829 18.0603L10.0617 17.3318C10.0758 17.3176 10.1041 17.3175 10.123 17.3363C10.1419 17.3551 10.142 17.3834 10.1279 17.3976L9.39982 18.1308C9.38103 18.1497 9.35744 18.1451 9.33852 18.1263C9.3196 18.1075 9.31481 18.084 9.3336 18.065L9.33829 18.0603ZM9.07174 17.3258L9.12811 17.2691L9.16596 17.3067L9.20823 17.2641L9.17039 17.2265L9.23146 17.165L9.27403 17.2073L9.31631 17.1647L9.26901 17.1177L9.32538 17.061L9.41999 17.1549C9.43891 17.1737 9.43897 17.1926 9.42488 17.2068L9.21819 17.4149C9.20409 17.4291 9.18054 17.4339 9.16635 17.4198L9.07174 17.3258Z" stroke="black" stroke-width="0.0711113"/>
        <path d="M9.31315 17.6221L9.47398 17.7818L9.28608 17.971L9.12524 17.8113L9.31315 17.6221Z" fill="#FFFF00" stroke="black" stroke-width="0.0711113"/>
        <path d="M9.31315 17.6221L9.47398 17.7818L9.28608 17.971L9.12524 17.8113L9.31315 17.6221Z" fill="#FFFF00" stroke="black" stroke-width="0.0711113"/>
        <path d="M8.96948 17.7224L9.02585 17.6656L9.07316 17.7126L9.11544 17.67L9.06813 17.6231L9.1245 17.5663L9.17181 17.6133L9.21409 17.5707L9.16678 17.5237L9.22315 17.467L9.31776 17.5609C9.33668 17.5797 9.33675 17.5986 9.32266 17.6128L9.12066 17.8162C9.11318 17.8237 9.10303 17.8279 9.09242 17.828C9.08181 17.828 9.07162 17.8238 9.06409 17.8164L8.96948 17.7224Z" fill="#FFFF00" stroke="black" stroke-width="0.0711113"/>
        <path d="M8.96948 17.7224L9.02585 17.6656L9.07316 17.7126L9.11544 17.67L9.06813 17.6231L9.1245 17.5663L9.17181 17.6133L9.21409 17.5707L9.16678 17.5237L9.22315 17.467L9.31776 17.5609C9.33668 17.5797 9.33675 17.5986 9.32266 17.6128L9.12066 17.8162C9.11318 17.8237 9.10303 17.8279 9.09242 17.828C9.08181 17.828 9.07162 17.8238 9.06409 17.8164L8.96948 17.7224Z" fill="#FFFF00" stroke="black" stroke-width="0.0711113"/>
        <path d="M9.40215 17.4379C9.37376 17.4097 9.41604 17.3671 9.44442 17.3953L9.52011 17.4705L9.47783 17.513L9.40215 17.4379Z" fill="black"/>
        <path d="M9.25713 17.7921C9.22874 17.7639 9.26632 17.7261 9.29471 17.7543L9.35147 17.8107L9.31389 17.8485L9.25713 17.7921Z" fill="black"/>
        <path d="M9.25713 17.7921C9.22874 17.7639 9.26632 17.7261 9.29471 17.7543L9.35147 17.8107L9.31389 17.8485L9.25713 17.7921Z" fill="black"/>
        <path d="M8.67798 11.9575C8.68465 11.5908 8.94465 11.5042 8.94465 11.5042C8.95131 11.5042 9.23131 11.5975 9.23131 11.9642H8.67798" fill="#FFFF00"/>
        <path d="M8.45139 11.5108L8.40473 11.9308H8.68473C8.68473 11.5842 8.95139 11.5308 8.95139 11.5308C8.95806 11.5308 9.21806 11.6042 9.22473 11.9308H9.50473L9.4514 11.5042H8.45139V11.5108ZM8.38473 11.9375H9.51806C9.53806 11.9375 9.55806 11.9575 9.55806 11.9842C9.55806 12.0175 9.53806 12.0375 9.51806 12.0375H8.38473C8.36473 12.0375 8.34473 12.0175 8.34473 11.9842C8.34473 11.9575 8.36473 11.9375 8.39139 11.9375H8.38473Z" fill="#FFFF00" stroke="black" stroke-width="0.0711113"/>
        <path d="M8.798 11.9309C8.798 11.7109 8.95134 11.6509 8.95134 11.6509C8.95134 11.6509 9.10467 11.7175 9.10467 11.9309H8.798ZM8.41134 11.3309H9.49801C9.51801 11.3309 9.53801 11.3575 9.53801 11.3842C9.53801 11.4042 9.51801 11.4242 9.49801 11.4242H8.41134C8.39134 11.4242 8.37134 11.4042 8.37134 11.3775C8.37134 11.3575 8.39134 11.3375 8.41134 11.3375V11.3309ZM8.438 11.4309H9.46467C9.48467 11.4309 9.50467 11.4509 9.50467 11.4775C9.50467 11.5042 9.48467 11.5242 9.46467 11.5242H8.43134C8.40467 11.5242 8.39134 11.5042 8.39134 11.4775C8.39134 11.4509 8.40467 11.4309 8.43134 11.4309H8.438ZM8.77134 10.7242H8.85134V10.7775H8.91134V10.7242H8.99801V10.7842H9.05801V10.7175H9.13801V10.8509C9.13801 10.8775 9.12467 10.8909 9.10467 10.8909H8.81134C8.79134 10.8909 8.77134 10.8775 8.77134 10.8575V10.7242ZM9.07801 10.9042L9.09801 11.3309H8.81134L8.83134 10.8975H9.07801" fill="#FFFF00"/>
        <path d="M9.07801 10.9042L9.09801 11.3309H8.81134L8.83134 10.8975H9.07801M8.798 11.9309C8.798 11.7109 8.95134 11.6509 8.95134 11.6509C8.95134 11.6509 9.10467 11.7175 9.10467 11.9309H8.798ZM8.41134 11.3309H9.49801C9.51801 11.3309 9.53801 11.3575 9.53801 11.3842C9.53801 11.4042 9.51801 11.4242 9.49801 11.4242H8.41134C8.39134 11.4242 8.37134 11.4042 8.37134 11.3775C8.37134 11.3575 8.39134 11.3375 8.41134 11.3375V11.3309ZM8.438 11.4309H9.46467C9.48467 11.4309 9.50467 11.4509 9.50467 11.4775C9.50467 11.5042 9.48467 11.5242 9.46467 11.5242H8.43134C8.40467 11.5242 8.39134 11.5042 8.39134 11.4775C8.39134 11.4509 8.40467 11.4309 8.43134 11.4309H8.438ZM8.77134 10.7242H8.85134V10.7775H8.91134V10.7242H8.99801V10.7842H9.05801V10.7175H9.13801V10.8509C9.13801 10.8775 9.12467 10.8909 9.10467 10.8909H8.81134C8.79134 10.8909 8.77134 10.8775 8.77134 10.8575V10.7242Z" stroke="black" stroke-width="0.0711113"/>
        <path d="M8.73151 11.1042V11.3309H8.46484V11.1042H8.73151Z" fill="#FFFF00" stroke="black" stroke-width="0.0711113"/>
        <path d="M8.73151 11.1042V11.3309H8.46484V11.1042H8.73151Z" fill="#FFFF00" stroke="black" stroke-width="0.0711113"/>
        <path d="M8.41797 10.9309H8.49797V10.9976H8.55797V10.9309H8.63797V10.9976H8.69797V10.9309H8.77797V11.0642C8.77797 11.0909 8.76464 11.1042 8.74464 11.1042H8.45797C8.44736 11.1042 8.43719 11.1 8.42968 11.0925C8.42218 11.085 8.41797 11.0749 8.41797 11.0642V10.9309Z" fill="#FFFF00" stroke="black" stroke-width="0.0711113"/>
        <path d="M8.41797 10.9309H8.49797V10.9976H8.55797V10.9309H8.63797V10.9976H8.69797V10.9309H8.77797V11.0642C8.77797 11.0909 8.76464 11.1042 8.74464 11.1042H8.45797C8.44736 11.1042 8.43719 11.1 8.42968 11.0925C8.42218 11.085 8.41797 11.0749 8.41797 11.0642V10.9309Z" fill="#FFFF00" stroke="black" stroke-width="0.0711113"/>
        <path d="M8.9248 11.0376C8.9248 10.9976 8.98481 10.9976 8.98481 11.0376V11.1442H8.9248V11.0376Z" fill="black"/>
        <path d="M8.57129 11.1843C8.57129 11.1443 8.62462 11.1443 8.62462 11.1843V11.2643H8.57129V11.1843Z" fill="black"/>
        <path d="M8.57129 11.1843C8.57129 11.1443 8.62462 11.1443 8.62462 11.1843V11.2643H8.57129V11.1843Z" fill="black"/>
        <path d="M15.3049 11.9575C15.2983 11.5908 15.0383 11.5042 15.0383 11.5042C15.0316 11.5042 14.7516 11.5975 14.7516 11.9642H15.3049" fill="#FFFF00"/>
        <path d="M15.5315 11.5108L15.5782 11.9308H15.2982C15.2982 11.5842 15.0315 11.5308 15.0315 11.5308C15.0248 11.5308 14.7648 11.6042 14.7582 11.9308H14.4782L14.5315 11.5042H15.5315V11.5108ZM15.5982 11.9375H14.4648C14.4448 11.9375 14.4248 11.9575 14.4248 11.9842C14.4248 12.0175 14.4448 12.0375 14.4648 12.0375H15.5982C15.6182 12.0375 15.6382 12.0175 15.6382 11.9842C15.6382 11.9575 15.6182 11.9375 15.5915 11.9375H15.5982Z" fill="#FFFF00" stroke="black" stroke-width="0.0711113"/>
        <path d="M15.1849 11.9309C15.1849 11.7109 15.0316 11.6509 15.0316 11.6509C15.0316 11.6509 14.8782 11.7175 14.8782 11.9309H15.1849ZM15.5716 11.3309H14.4849C14.4649 11.3309 14.4449 11.3575 14.4449 11.3842C14.4449 11.4042 14.4649 11.4242 14.4849 11.4242H15.5716C15.5916 11.4242 15.6116 11.4042 15.6116 11.3775C15.6116 11.3575 15.5916 11.3375 15.5716 11.3375V11.3309ZM15.5449 11.4309H14.5182C14.4982 11.4309 14.4782 11.4509 14.4782 11.4775C14.4782 11.5042 14.4982 11.5242 14.5182 11.5242H15.5516C15.5782 11.5242 15.5916 11.5042 15.5916 11.4775C15.5916 11.4509 15.5782 11.4309 15.5516 11.4309H15.5449ZM15.2116 10.7242H15.1316V10.7775H15.0716V10.7242H14.9849V10.7842H14.9249V10.7175H14.8449V10.8509C14.8449 10.8775 14.8582 10.8909 14.8782 10.8909H15.1716C15.1916 10.8909 15.2116 10.8775 15.2116 10.8575V10.7242ZM14.9049 10.9042L14.8849 11.3309H15.1716L15.1516 10.8975H14.9049" fill="#FFFF00"/>
        <path d="M14.9049 10.9042L14.8849 11.3309H15.1716L15.1516 10.8975H14.9049M15.1849 11.9309C15.1849 11.7109 15.0316 11.6509 15.0316 11.6509C15.0316 11.6509 14.8782 11.7175 14.8782 11.9309H15.1849ZM15.5716 11.3309H14.4849C14.4649 11.3309 14.4449 11.3575 14.4449 11.3842C14.4449 11.4042 14.4649 11.4242 14.4849 11.4242H15.5716C15.5916 11.4242 15.6116 11.4042 15.6116 11.3775C15.6116 11.3575 15.5916 11.3375 15.5716 11.3375V11.3309ZM15.5449 11.4309H14.5182C14.4982 11.4309 14.4782 11.4509 14.4782 11.4775C14.4782 11.5042 14.4982 11.5242 14.5182 11.5242H15.5516C15.5782 11.5242 15.5916 11.5042 15.5916 11.4775C15.5916 11.4509 15.5782 11.4309 15.5516 11.4309H15.5449ZM15.2116 10.7242H15.1316V10.7775H15.0716V10.7242H14.9849V10.7842H14.9249V10.7175H14.8449V10.8509C14.8449 10.8775 14.8582 10.8909 14.8782 10.8909H15.1716C15.1916 10.8909 15.2116 10.8775 15.2116 10.8575V10.7242Z" stroke="black" stroke-width="0.0711113"/>
        <path d="M15.2514 11.1042V11.3309H15.5181V11.1042H15.2514Z" fill="#FFFF00" stroke="black" stroke-width="0.0711113"/>
        <path d="M15.2514 11.1042V11.3309H15.5181V11.1042H15.2514Z" fill="#FFFF00" stroke="black" stroke-width="0.0711113"/>
        <path d="M15.5649 10.9309H15.4849V10.9976H15.4249V10.9309H15.3449V10.9976H15.2849V10.9309H15.2049V11.0642C15.2049 11.0909 15.2183 11.1042 15.2383 11.1042H15.5249C15.5356 11.1042 15.5457 11.1 15.5532 11.0925C15.5607 11.085 15.5649 11.0749 15.5649 11.0642V10.9309Z" fill="#FFFF00" stroke="black" stroke-width="0.0711113"/>
        <path d="M15.5649 10.9309H15.4849V10.9976H15.4249V10.9309H15.3449V10.9976H15.2849V10.9309H15.2049V11.0642C15.2049 11.0909 15.2183 11.1042 15.2383 11.1042H15.5249C15.5356 11.1042 15.5457 11.1 15.5532 11.0925C15.5607 11.085 15.5649 11.0749 15.5649 11.0642V10.9309Z" fill="#FFFF00" stroke="black" stroke-width="0.0711113"/>
        <path d="M15.0581 11.0376C15.0581 10.9976 14.9981 10.9976 14.9981 11.0376V11.1442H15.0581V11.0376Z" fill="black"/>
        <path d="M15.4116 11.1843C15.4116 11.1443 15.3583 11.1443 15.3583 11.1843V11.2643H15.4116V11.1843Z" fill="black"/>
        <path d="M15.4116 11.1843C15.4116 11.1443 15.3583 11.1443 15.3583 11.1843V11.2643H15.4116V11.1843Z" fill="black"/>
        <path d="M15.3049 11.9575C15.2983 11.5908 15.0383 11.5042 15.0383 11.5042C15.0316 11.5042 14.7516 11.5975 14.7516 11.9642H15.3049" fill="#FFFF00"/>
        <path d="M15.5315 11.5108L15.5782 11.9308H15.2982C15.2982 11.5842 15.0315 11.5308 15.0315 11.5308C15.0248 11.5308 14.7648 11.6042 14.7582 11.9308H14.4782L14.5315 11.5042H15.5315V11.5108ZM15.5982 11.9375H14.4648C14.4448 11.9375 14.4248 11.9575 14.4248 11.9842C14.4248 12.0175 14.4448 12.0375 14.4648 12.0375H15.5982C15.6182 12.0375 15.6382 12.0175 15.6382 11.9842C15.6382 11.9575 15.6182 11.9375 15.5915 11.9375H15.5982Z" fill="#FFFF00" stroke="black" stroke-width="0.0711113"/>
        <path d="M15.1849 11.9309C15.1849 11.7109 15.0316 11.6509 15.0316 11.6509C15.0316 11.6509 14.8782 11.7175 14.8782 11.9309H15.1849ZM15.5716 11.3309H14.4849C14.4649 11.3309 14.4449 11.3575 14.4449 11.3842C14.4449 11.4042 14.4649 11.4242 14.4849 11.4242H15.5716C15.5916 11.4242 15.6116 11.4042 15.6116 11.3775C15.6116 11.3575 15.5916 11.3375 15.5716 11.3375V11.3309ZM15.5449 11.4309H14.5182C14.4982 11.4309 14.4782 11.4509 14.4782 11.4775C14.4782 11.5042 14.4982 11.5242 14.5182 11.5242H15.5516C15.5782 11.5242 15.5916 11.5042 15.5916 11.4775C15.5916 11.4509 15.5782 11.4309 15.5516 11.4309H15.5449ZM15.2116 10.7242H15.1316V10.7775H15.0716V10.7242H14.9849V10.7842H14.9249V10.7175H14.8449V10.8509C14.8449 10.8775 14.8582 10.8909 14.8782 10.8909H15.1716C15.1916 10.8909 15.2116 10.8775 15.2116 10.8575V10.7242ZM14.9049 10.9042L14.8849 11.3309H15.1716L15.1516 10.8975H14.9049" fill="#FFFF00"/>
        <path d="M14.9049 10.9042L14.8849 11.3309H15.1716L15.1516 10.8975H14.9049M15.1849 11.9309C15.1849 11.7109 15.0316 11.6509 15.0316 11.6509C15.0316 11.6509 14.8782 11.7175 14.8782 11.9309H15.1849ZM15.5716 11.3309H14.4849C14.4649 11.3309 14.4449 11.3575 14.4449 11.3842C14.4449 11.4042 14.4649 11.4242 14.4849 11.4242H15.5716C15.5916 11.4242 15.6116 11.4042 15.6116 11.3775C15.6116 11.3575 15.5916 11.3375 15.5716 11.3375V11.3309ZM15.5449 11.4309H14.5182C14.4982 11.4309 14.4782 11.4509 14.4782 11.4775C14.4782 11.5042 14.4982 11.5242 14.5182 11.5242H15.5516C15.5782 11.5242 15.5916 11.5042 15.5916 11.4775C15.5916 11.4509 15.5782 11.4309 15.5516 11.4309H15.5449ZM15.2116 10.7242H15.1316V10.7775H15.0716V10.7242H14.9849V10.7842H14.9249V10.7175H14.8449V10.8509C14.8449 10.8775 14.8582 10.8909 14.8782 10.8909H15.1716C15.1916 10.8909 15.2116 10.8775 15.2116 10.8575V10.7242Z" stroke="black" stroke-width="0.0711113"/>
        <path d="M15.2514 11.1042V11.3309H15.5181V11.1042H15.2514Z" fill="#FFFF00" stroke="black" stroke-width="0.0711113"/>
        <path d="M15.2514 11.1042V11.3309H15.5181V11.1042H15.2514Z" fill="#FFFF00" stroke="black" stroke-width="0.0711113"/>
        <path d="M15.5649 10.9309H15.4849V10.9976H15.4249V10.9309H15.3449V10.9976H15.2849V10.9309H15.2049V11.0642C15.2049 11.0909 15.2183 11.1042 15.2383 11.1042H15.5249C15.5356 11.1042 15.5457 11.1 15.5532 11.0925C15.5607 11.085 15.5649 11.0749 15.5649 11.0642V10.9309Z" fill="#FFFF00" stroke="black" stroke-width="0.0711113"/>
        <path d="M15.5649 10.9309H15.4849V10.9976H15.4249V10.9309H15.3449V10.9976H15.2849V10.9309H15.2049V11.0642C15.2049 11.0909 15.2183 11.1042 15.2383 11.1042H15.5249C15.5356 11.1042 15.5457 11.1 15.5532 11.0925C15.5607 11.085 15.5649 11.0749 15.5649 11.0642V10.9309Z" fill="#FFFF00" stroke="black" stroke-width="0.0711113"/>
        <path d="M15.0581 11.0376C15.0581 10.9976 14.9981 10.9976 14.9981 11.0376V11.1442H15.0581V11.0376Z" fill="black"/>
        <path d="M15.4116 11.1843C15.4116 11.1443 15.3583 11.1443 15.3583 11.1843V11.2643H15.4116V11.1843Z" fill="black"/>
        <path d="M15.4116 11.1843C15.4116 11.1443 15.3583 11.1443 15.3583 11.1843V11.2643H15.4116V11.1843Z" fill="black"/>
        <path d="M14.1019 18.2613C14.3574 17.9982 14.2357 17.7527 14.2357 17.7527C14.231 17.7479 13.9675 17.615 13.7073 17.8734L14.0972 18.266" fill="#FFFF00"/>
        <path d="M14.5786 18.1072L14.3134 18.4363L14.1161 18.2376C14.3621 17.9933 14.212 17.7665 14.212 17.7665C14.2073 17.7618 13.9721 17.629 13.7356 17.8544L13.5383 17.6558L13.8786 17.393L14.5833 18.1025L14.5786 18.1072ZM14.3228 18.4552L13.5242 17.651C13.5101 17.6368 13.4818 17.6367 13.4629 17.6555C13.4392 17.679 13.4391 17.7073 13.4532 17.7215L14.2518 18.5256C14.2659 18.5398 14.2942 18.5399 14.3179 18.5164C14.3368 18.4977 14.3369 18.4694 14.3181 18.4505L14.3228 18.4552Z" fill="#FFFF00" stroke="black" stroke-width="0.0711113"/>
        <path d="M14.0362 18.1572C14.1923 18.0022 14.1268 17.8511 14.1268 17.8511C14.1268 17.8511 13.9714 17.7893 13.8201 17.9396L14.0362 18.1572ZM14.7344 18.0088L13.9687 17.2377C13.9546 17.2235 13.9216 17.2281 13.9026 17.2469C13.8884 17.261 13.8883 17.2893 13.9024 17.3035L14.6681 18.0745C14.6822 18.0887 14.7105 18.0888 14.7294 18.07C14.7436 18.0559 14.7437 18.0277 14.7296 18.0135L14.7344 18.0088ZM14.6446 18.0603L13.9212 17.3318C13.9071 17.3176 13.8788 17.3175 13.8599 17.3363C13.841 17.3551 13.8409 17.3834 13.855 17.3976L14.5831 18.1308C14.6019 18.1497 14.6255 18.1451 14.6444 18.1263C14.6633 18.1075 14.6681 18.084 14.6493 18.065L14.6446 18.0603ZM14.9112 17.3258L14.8548 17.2691L14.817 17.3067L14.7747 17.2641L14.8125 17.2265L14.7515 17.165L14.7089 17.2073L14.6666 17.1647L14.7139 17.1177L14.6575 17.061L14.5629 17.1549C14.544 17.1737 14.5439 17.1926 14.558 17.2068L14.7647 17.4149C14.7788 17.4291 14.8024 17.4339 14.8166 17.4198L14.9112 17.3258ZM14.5674 17.2351L14.2505 17.5215L14.4525 17.7249L14.7459 17.4054L14.5721 17.2304" fill="#FFFF00"/>
        <path d="M14.5674 17.2351L14.2505 17.5215L14.4525 17.7249L14.7459 17.4054L14.5721 17.2304M14.0362 18.1572C14.1923 18.0022 14.1268 17.8511 14.1268 17.8511C14.1268 17.8511 13.9714 17.7893 13.8201 17.9396L14.0362 18.1572ZM14.7344 18.0088L13.9687 17.2377C13.9546 17.2235 13.9216 17.2281 13.9026 17.2469C13.8884 17.261 13.8883 17.2893 13.9024 17.3035L14.6681 18.0745C14.6822 18.0887 14.7105 18.0888 14.7294 18.07C14.7436 18.0559 14.7437 18.0277 14.7296 18.0135L14.7344 18.0088ZM14.6446 18.0603L13.9212 17.3318C13.9071 17.3176 13.8788 17.3175 13.8599 17.3363C13.841 17.3551 13.8409 17.3834 13.855 17.3976L14.5831 18.1308C14.6019 18.1497 14.6255 18.1451 14.6444 18.1263C14.6633 18.1075 14.6681 18.084 14.6493 18.065L14.6446 18.0603ZM14.9112 17.3258L14.8548 17.2691L14.817 17.3067L14.7747 17.2641L14.8125 17.2265L14.7515 17.165L14.7089 17.2073L14.6666 17.1647L14.7139 17.1177L14.6575 17.061L14.5629 17.1549C14.544 17.1737 14.5439 17.1926 14.558 17.2068L14.7647 17.4149C14.7788 17.4291 14.8024 17.4339 14.8166 17.4198L14.9112 17.3258Z" stroke="black" stroke-width="0.0711113"/>
        <path d="M14.6698 17.6221L14.5089 17.7818L14.6968 17.971L14.8577 17.8113L14.6698 17.6221Z" fill="#FFFF00" stroke="black" stroke-width="0.0711113"/>
        <path d="M14.6698 17.6221L14.5089 17.7818L14.6968 17.971L14.8577 17.8113L14.6698 17.6221Z" fill="#FFFF00" stroke="black" stroke-width="0.0711113"/>
        <path d="M15.0134 17.7224L14.9571 17.6656L14.9098 17.7126L14.8675 17.67L14.9148 17.6231L14.8584 17.5663L14.8111 17.6133L14.7688 17.5707L14.8161 17.5237L14.7598 17.467L14.6651 17.5609C14.6462 17.5797 14.6462 17.5986 14.6603 17.6128L14.8622 17.8162C14.8697 17.8237 14.8799 17.8279 14.8905 17.828C14.9011 17.828 14.9113 17.8238 14.9188 17.8164L15.0134 17.7224Z" fill="#FFFF00" stroke="black" stroke-width="0.0711113"/>
        <path d="M15.0134 17.7224L14.9571 17.6656L14.9098 17.7126L14.8675 17.67L14.9148 17.6231L14.8584 17.5663L14.8111 17.6133L14.7688 17.5707L14.8161 17.5237L14.7598 17.467L14.6651 17.5609C14.6462 17.5797 14.6462 17.5986 14.6603 17.6128L14.8622 17.8162C14.8697 17.8237 14.8799 17.8279 14.8905 17.828C14.9011 17.828 14.9113 17.8238 14.9188 17.8164L15.0134 17.7224Z" fill="#FFFF00" stroke="black" stroke-width="0.0711113"/>
        <path d="M14.5808 17.4379C14.6091 17.4097 14.5669 17.3671 14.5385 17.3953L14.4628 17.4705L14.5051 17.513L14.5808 17.4379Z" fill="black"/>
        <path d="M14.7258 17.7921C14.7542 17.7639 14.7166 17.7261 14.6882 17.7543L14.6314 17.8107L14.669 17.8485L14.7258 17.7921Z" fill="black"/>
        <path d="M14.7258 17.7921C14.7542 17.7639 14.7166 17.7261 14.6882 17.7543L14.6314 17.8107L14.669 17.8485L14.7258 17.7921Z" fill="black"/>
        <path d="M11.5047 15.1575C11.5035 15.2982 11.5559 15.4341 11.6513 15.5375C11.6958 15.5873 11.7503 15.6272 11.8111 15.6548C11.872 15.6823 11.9379 15.6969 12.0047 15.6975C12.1447 15.6975 12.2713 15.6308 12.358 15.5375C12.4534 15.4341 12.5059 15.2982 12.5047 15.1575V14.4375H11.5047V15.1575Z" fill="#003399"/>
        <path d="M11.7379 14.8108C11.7932 14.8108 11.8379 14.7661 11.8379 14.7108C11.8379 14.6556 11.7932 14.6108 11.7379 14.6108C11.6827 14.6108 11.6379 14.6556 11.6379 14.7108C11.6379 14.7661 11.6827 14.8108 11.7379 14.8108Z" fill="white"/>
        <path d="M12.2914 14.8108C12.3466 14.8108 12.3914 14.7661 12.3914 14.7108C12.3914 14.6556 12.3466 14.6108 12.2914 14.6108C12.2362 14.6108 12.1914 14.6556 12.1914 14.7108C12.1914 14.7661 12.2362 14.8108 12.2914 14.8108Z" fill="white"/>
        <path d="M12.0114 15.0774C12.0666 15.0774 12.1114 15.0327 12.1114 14.9774C12.1114 14.9222 12.0666 14.8774 12.0114 14.8774C11.9561 14.8774 11.9114 14.9222 11.9114 14.9774C11.9114 15.0327 11.9561 15.0774 12.0114 15.0774Z" fill="white"/>
        <path d="M11.7379 15.3575C11.7932 15.3575 11.8379 15.3127 11.8379 15.2575C11.8379 15.2022 11.7932 15.1575 11.7379 15.1575C11.6827 15.1575 11.6379 15.2022 11.6379 15.2575C11.6379 15.3127 11.6827 15.3575 11.7379 15.3575Z" fill="white"/>
        <path d="M12.2914 15.3575C12.3466 15.3575 12.3914 15.3127 12.3914 15.2575C12.3914 15.2022 12.3466 15.1575 12.2914 15.1575C12.2362 15.1575 12.1914 15.2022 12.1914 15.2575C12.1914 15.3127 12.2362 15.3575 12.2914 15.3575Z" fill="white"/>
        <path d="M11.5047 15.1575C11.5035 15.2982 11.5559 15.4341 11.6513 15.5375C11.6958 15.5873 11.7503 15.6272 11.8111 15.6548C11.872 15.6823 11.9379 15.6969 12.0047 15.6975C12.1447 15.6975 12.2713 15.6308 12.358 15.5375C12.4534 15.4341 12.5059 15.2982 12.5047 15.1575V14.4375H11.5047V15.1575Z" fill="#003399"/>
        <path d="M11.7379 14.8108C11.7932 14.8108 11.8379 14.7661 11.8379 14.7108C11.8379 14.6556 11.7932 14.6108 11.7379 14.6108C11.6827 14.6108 11.6379 14.6556 11.6379 14.7108C11.6379 14.7661 11.6827 14.8108 11.7379 14.8108Z" fill="white"/>
        <path d="M12.2914 14.8108C12.3466 14.8108 12.3914 14.7661 12.3914 14.7108C12.3914 14.6556 12.3466 14.6108 12.2914 14.6108C12.2362 14.6108 12.1914 14.6556 12.1914 14.7108C12.1914 14.7661 12.2362 14.8108 12.2914 14.8108Z" fill="white"/>
        <path d="M12.0114 15.0774C12.0666 15.0774 12.1114 15.0327 12.1114 14.9774C12.1114 14.9222 12.0666 14.8774 12.0114 14.8774C11.9561 14.8774 11.9114 14.9222 11.9114 14.9774C11.9114 15.0327 11.9561 15.0774 12.0114 15.0774Z" fill="white"/>
        <path d="M11.7379 15.3575C11.7932 15.3575 11.8379 15.3127 11.8379 15.2575C11.8379 15.2022 11.7932 15.1575 11.7379 15.1575C11.6827 15.1575 11.6379 15.2022 11.6379 15.2575C11.6379 15.3127 11.6827 15.3575 11.7379 15.3575Z" fill="white"/>
        <path d="M12.2914 15.3575C12.3466 15.3575 12.3914 15.3127 12.3914 15.2575C12.3914 15.2022 12.3466 15.1575 12.2914 15.1575C12.2362 15.1575 12.1914 15.2022 12.1914 15.2575C12.1914 15.3127 12.2362 15.3575 12.2914 15.3575Z" fill="white"/>
        <path d="M11.5047 15.1575C11.5035 15.2982 11.5559 15.4341 11.6513 15.5375C11.6958 15.5873 11.7503 15.6272 11.8111 15.6548C11.872 15.6823 11.9379 15.6969 12.0047 15.6975C12.1447 15.6975 12.2713 15.6308 12.358 15.5375C12.4534 15.4341 12.5059 15.2982 12.5047 15.1575V14.4375H11.5047V15.1575Z" fill="#003399"/>
        <path d="M11.7379 14.8108C11.7932 14.8108 11.8379 14.7661 11.8379 14.7108C11.8379 14.6556 11.7932 14.6108 11.7379 14.6108C11.6827 14.6108 11.6379 14.6556 11.6379 14.7108C11.6379 14.7661 11.6827 14.8108 11.7379 14.8108Z" fill="white"/>
        <path d="M12.2914 14.8108C12.3466 14.8108 12.3914 14.7661 12.3914 14.7108C12.3914 14.6556 12.3466 14.6108 12.2914 14.6108C12.2362 14.6108 12.1914 14.6556 12.1914 14.7108C12.1914 14.7661 12.2362 14.8108 12.2914 14.8108Z" fill="white"/>
        <path d="M12.0114 15.0774C12.0666 15.0774 12.1114 15.0327 12.1114 14.9774C12.1114 14.9222 12.0666 14.8774 12.0114 14.8774C11.9561 14.8774 11.9114 14.9222 11.9114 14.9774C11.9114 15.0327 11.9561 15.0774 12.0114 15.0774Z" fill="white"/>
        <path d="M11.7379 15.3575C11.7932 15.3575 11.8379 15.3127 11.8379 15.2575C11.8379 15.2022 11.7932 15.1575 11.7379 15.1575C11.6827 15.1575 11.6379 15.2022 11.6379 15.2575C11.6379 15.3127 11.6827 15.3575 11.7379 15.3575Z" fill="white"/>
        <path d="M12.2914 15.3575C12.3466 15.3575 12.3914 15.3127 12.3914 15.2575C12.3914 15.2022 12.3466 15.1575 12.2914 15.1575C12.2362 15.1575 12.1914 15.2022 12.1914 15.2575C12.1914 15.3127 12.2362 15.3575 12.2914 15.3575Z" fill="white"/>
        <path d="M11.5047 15.1575C11.5035 15.2982 11.5559 15.4341 11.6513 15.5375C11.6958 15.5873 11.7503 15.6272 11.8111 15.6548C11.872 15.6823 11.9379 15.6969 12.0047 15.6975C12.1447 15.6975 12.2713 15.6308 12.358 15.5375C12.4534 15.4341 12.5059 15.2982 12.5047 15.1575V14.4375H11.5047V15.1575Z" fill="#003399"/>
        <path d="M11.7379 14.8108C11.7932 14.8108 11.8379 14.7661 11.8379 14.7108C11.8379 14.6556 11.7932 14.6108 11.7379 14.6108C11.6827 14.6108 11.6379 14.6556 11.6379 14.7108C11.6379 14.7661 11.6827 14.8108 11.7379 14.8108Z" fill="white"/>
        <path d="M12.2914 14.8108C12.3466 14.8108 12.3914 14.7661 12.3914 14.7108C12.3914 14.6556 12.3466 14.6108 12.2914 14.6108C12.2362 14.6108 12.1914 14.6556 12.1914 14.7108C12.1914 14.7661 12.2362 14.8108 12.2914 14.8108Z" fill="white"/>
        <path d="M12.0114 15.0774C12.0666 15.0774 12.1114 15.0327 12.1114 14.9774C12.1114 14.9222 12.0666 14.8774 12.0114 14.8774C11.9561 14.8774 11.9114 14.9222 11.9114 14.9774C11.9114 15.0327 11.9561 15.0774 12.0114 15.0774Z" fill="white"/>
        <path d="M11.7379 15.3575C11.7932 15.3575 11.8379 15.3127 11.8379 15.2575C11.8379 15.2022 11.7932 15.1575 11.7379 15.1575C11.6827 15.1575 11.6379 15.2022 11.6379 15.2575C11.6379 15.3127 11.6827 15.3575 11.7379 15.3575Z" fill="white"/>
        <path d="M12.2914 15.3575C12.3466 15.3575 12.3914 15.3127 12.3914 15.2575C12.3914 15.2022 12.3466 15.1575 12.2914 15.1575C12.2362 15.1575 12.1914 15.2022 12.1914 15.2575C12.1914 15.3127 12.2362 15.3575 12.2914 15.3575Z" fill="white"/>
        <path d="M11.5047 15.1575C11.5035 15.2982 11.5559 15.4341 11.6513 15.5375C11.6958 15.5873 11.7503 15.6272 11.8111 15.6548C11.872 15.6823 11.9379 15.6969 12.0047 15.6975C12.1447 15.6975 12.2713 15.6308 12.358 15.5375C12.4534 15.4341 12.5059 15.2982 12.5047 15.1575V14.4375H11.5047V15.1575Z" fill="#003399"/>
        <path d="M11.7379 14.8108C11.7932 14.8108 11.8379 14.7661 11.8379 14.7108C11.8379 14.6556 11.7932 14.6108 11.7379 14.6108C11.6827 14.6108 11.6379 14.6556 11.6379 14.7108C11.6379 14.7661 11.6827 14.8108 11.7379 14.8108Z" fill="white"/>
        <path d="M12.2914 14.8108C12.3466 14.8108 12.3914 14.7661 12.3914 14.7108C12.3914 14.6556 12.3466 14.6108 12.2914 14.6108C12.2362 14.6108 12.1914 14.6556 12.1914 14.7108C12.1914 14.7661 12.2362 14.8108 12.2914 14.8108Z" fill="white"/>
        <path d="M12.0114 15.0774C12.0666 15.0774 12.1114 15.0327 12.1114 14.9774C12.1114 14.9222 12.0666 14.8774 12.0114 14.8774C11.9561 14.8774 11.9114 14.9222 11.9114 14.9774C11.9114 15.0327 11.9561 15.0774 12.0114 15.0774Z" fill="white"/>
        <path d="M11.7379 15.3575C11.7932 15.3575 11.8379 15.3127 11.8379 15.2575C11.8379 15.2022 11.7932 15.1575 11.7379 15.1575C11.6827 15.1575 11.6379 15.2022 11.6379 15.2575C11.6379 15.3127 11.6827 15.3575 11.7379 15.3575Z" fill="white"/>
        <path d="M12.2914 15.3575C12.3466 15.3575 12.3914 15.3127 12.3914 15.2575C12.3914 15.2022 12.3466 15.1575 12.2914 15.1575C12.2362 15.1575 12.1914 15.2022 12.1914 15.2575C12.1914 15.3127 12.2362 15.3575 12.2914 15.3575Z" fill="white"/>
    </g>
    <defs>
        <clipPath id="clip0_530_1205">
            <rect width="30" height="30" rx="15" fill="white"/>
        </clipPath>
    </defs>
</svg>
