<svg width="30" height="30" viewBox="0 0 30 30" fill="none" xmlns="http://www.w3.org/2000/svg">
    <g clip-path="url(#clip0_530_381)">
        <path fill-rule="evenodd" clip-rule="evenodd" d="M0 0H30V30H0V0Z" fill="#CE1126"/>
        <path fill-rule="evenodd" clip-rule="evenodd" d="M0 0H15V15H0V0Z" fill="#002B7F"/>
        <path fill-rule="evenodd" clip-rule="evenodd" d="M8.61328 13.5586L7.46484 12.7793L6.35742 13.5703L6.70898 12.1934L5.6543 11.332L7.01367 11.2559L7.46484 9.94336L7.96289 11.2793L9.29883 11.3086L8.23242 12.2168L8.61328 13.5586ZM8.41406 4.37109L7.5 3.78516L6.59766 4.37109L6.84375 3.25781L6.04102 2.54883L7.11328 2.45508L7.51172 1.42969L7.92773 2.4668L8.98242 2.54883L8.16211 3.28125L8.41406 4.37109ZM4.35352 7.67578L3.46289 7.04297L2.56055 7.65234L2.83008 6.58008L1.99219 5.87109L3.05859 5.82422L3.45117 4.76367L3.83789 5.80664L4.91016 5.87109L4.07227 6.57422L4.35352 7.67578ZM12.498 6.93164L11.6367 6.375L10.7988 6.94336L11.0332 5.92383L10.2715 5.26758L11.2852 5.18555L11.6367 4.22461L12.0234 5.19727L13.0078 5.25586L12.2344 5.93555L12.498 6.93164ZM10.0898 9.35156L9.52148 8.98828L8.95898 9.35156L9.10547 8.67188L8.5957 8.2207L9.26367 8.16211L9.52148 7.51758L9.78516 8.16211L10.4414 8.2207L9.94336 8.67188L10.0898 9.35156Z" fill="white"/>
    </g>
    <defs>
        <clipPath id="clip0_530_381">
            <rect width="30" height="30" rx="15" fill="white"/>
        </clipPath>
    </defs>
</svg>
