<svg width="30" height="30" viewBox="0 0 30 30" fill="none" xmlns="http://www.w3.org/2000/svg">
    <g clip-path="url(#clip0_530_41751)">
        <path d="M0 0H30V30H0V0Z" fill="white"/>
        <path d="M16.6406 3.33398H30V6.66797H16.6406V3.33398ZM16.6406 10.002H30V13.3359H16.6406V10.002ZM0 16.6641H30V20.0039H0V16.6641ZM0 23.332H30V26.6719H0V23.332Z" fill="#0038A8"/>
        <path d="M7.95483 9.96171L8.50655 10.7856C6.23947 12.4262 7.62355 13.3964 6.01695 13.9215C7.0162 12.9464 5.85961 12.8642 6.70152 10.8316" fill="#FCD116"/>
        <path d="M7.95483 9.96171L8.50655 10.7856C6.23947 12.4262 7.62355 13.3964 6.01695 13.9215C7.0162 12.9464 5.85961 12.8642 6.70152 10.8316" stroke="black" stroke-width="0.234667" stroke-miterlimit="20" stroke-linecap="square"/>
        <path d="M7.56034 10.1951C6.30952 12.2567 7.12984 13.3902 6.01685 13.9214" stroke="black" stroke-width="0.234667" stroke-miterlimit="20"/>
        <path d="M8.33218 8.33203H9.43218L8.33218 14.382L7.23218 8.33203H8.33218V14.382V8.33203Z" fill="#FCD116"/>
        <path d="M8.33218 8.33203H9.43218L8.33218 14.382M8.33218 8.33203H7.23218L8.33218 14.382M8.33218 8.33203V14.382" stroke="black" stroke-width="0.234667" stroke-miterlimit="20"/>
        <path d="M6.91288 9.21752L6.72046 10.1902C3.95728 9.74724 4.24995 11.412 2.74257 10.6473C4.13869 10.6643 3.37899 9.78834 5.41152 8.94643" fill="#FCD116"/>
        <path d="M6.91288 9.21752L6.72046 10.1902C3.95728 9.74724 4.24995 11.412 2.74257 10.6473C4.13869 10.6643 3.37899 9.78834 5.41152 8.94643" stroke="black" stroke-width="0.234667" stroke-miterlimit="20" stroke-linecap="square"/>
        <path d="M6.46903 9.10379C4.1268 9.6771 3.90532 11.0587 2.74271 10.6473" stroke="black" stroke-width="0.234667" stroke-miterlimit="20"/>
        <path d="M8.33202 8.33202L9.10983 9.10983L4.05402 12.61L7.5542 7.5542L8.33202 8.33202L4.05402 12.61L8.33202 8.33202Z" fill="#FCD116"/>
        <path d="M8.33202 8.33202L9.10983 9.10983L4.05402 12.61M8.33202 8.33202L7.5542 7.5542L4.05402 12.61M8.33202 8.33202L4.05402 12.61" stroke="black" stroke-width="0.234667" stroke-miterlimit="20"/>
        <path d="M6.70235 7.95483L5.8785 8.50655C4.23786 6.23947 3.26768 7.62355 2.74252 6.01695C3.71769 7.0162 3.79989 5.85961 5.83242 6.70152" fill="#FCD116"/>
        <path d="M6.70235 7.95483L5.8785 8.50655C4.23786 6.23947 3.26768 7.62355 2.74252 6.01695C3.71769 7.0162 3.79989 5.85961 5.83242 6.70152" stroke="black" stroke-width="0.234667" stroke-miterlimit="20" stroke-linecap="square"/>
        <path d="M6.46896 7.56034C4.40736 6.30952 3.27382 7.12984 2.74264 6.01685" stroke="black" stroke-width="0.234667" stroke-miterlimit="20"/>
        <path d="M8.33203 8.33218V9.43218L2.28203 8.33218L8.33203 7.23218V8.33218H2.28203H8.33203Z" fill="#FCD116"/>
        <path d="M8.33203 8.33218V9.43218L2.28203 8.33218M8.33203 8.33218V7.23218L2.28203 8.33218M8.33203 8.33218H2.28203" stroke="black" stroke-width="0.234667" stroke-miterlimit="20"/>
        <path d="M7.44654 6.91288L6.47386 6.72046C6.91682 3.95728 5.25211 4.24995 6.0168 2.74257C5.99978 4.13869 6.87573 3.37899 7.71763 5.41152" fill="#FCD116"/>
        <path d="M7.44654 6.91288L6.47386 6.72046C6.91682 3.95728 5.25211 4.24995 6.0168 2.74257C5.99978 4.13869 6.87573 3.37899 7.71763 5.41152" stroke="black" stroke-width="0.234667" stroke-miterlimit="20" stroke-linecap="square"/>
        <path d="M7.56027 6.46903C6.98696 4.1268 5.60537 3.90532 6.01678 2.74271" stroke="black" stroke-width="0.234667" stroke-miterlimit="20"/>
        <path d="M8.33205 8.33202L7.55423 9.10983L4.05405 4.05402L9.10986 7.5542L8.33205 8.33202L4.05405 4.05402L8.33205 8.33202Z" fill="#FCD116"/>
        <path d="M8.33205 8.33202L7.55423 9.10983L4.05405 4.05402M8.33205 8.33202L9.10986 7.5542L4.05405 4.05402M8.33205 8.33202L4.05405 4.05402" stroke="black" stroke-width="0.234667" stroke-miterlimit="20"/>
        <path d="M8.70923 6.70235L8.15751 5.8785C10.4246 4.23786 9.04051 3.26768 10.6471 2.74252C9.64786 3.71769 10.8044 3.79989 9.96255 5.83242" fill="#FCD116"/>
        <path d="M8.70923 6.70235L8.15751 5.8785C10.4246 4.23786 9.04051 3.26768 10.6471 2.74252C9.64786 3.71769 10.8044 3.79989 9.96255 5.83242" stroke="black" stroke-width="0.234667" stroke-miterlimit="20" stroke-linecap="square"/>
        <path d="M9.10372 6.46896C10.3545 4.40736 9.53422 3.27382 10.6472 2.74264" stroke="black" stroke-width="0.234667" stroke-miterlimit="20"/>
        <path d="M8.33188 8.33203H7.23188L8.33188 2.28203L9.43188 8.33203H8.33188V2.28203V8.33203Z" fill="#FCD116"/>
        <path d="M8.33188 8.33203H7.23188L8.33188 2.28203M8.33188 8.33203H9.43188L8.33188 2.28203M8.33188 8.33203V2.28203" stroke="black" stroke-width="0.234667" stroke-miterlimit="20"/>
        <path d="M9.75118 7.44654L9.9436 6.47386C12.7068 6.91682 12.4141 5.25211 13.9215 6.0168C12.5254 5.99978 13.2851 6.87573 11.2525 7.71763" fill="#FCD116"/>
        <path d="M9.75118 7.44654L9.9436 6.47386C12.7068 6.91682 12.4141 5.25211 13.9215 6.0168C12.5254 5.99978 13.2851 6.87573 11.2525 7.71763" stroke="black" stroke-width="0.234667" stroke-miterlimit="20" stroke-linecap="square"/>
        <path d="M10.195 7.56027C12.5373 6.98696 12.7587 5.60537 13.9213 6.01678" stroke="black" stroke-width="0.234667" stroke-miterlimit="20"/>
        <path d="M8.33205 8.33205L7.55423 7.55423L12.61 4.05405L9.10986 9.10986L8.33205 8.33205L12.61 4.05405L8.33205 8.33205Z" fill="#FCD116"/>
        <path d="M8.33205 8.33205L7.55423 7.55423L12.61 4.05405M8.33205 8.33205L9.10986 9.10986L12.61 4.05405M8.33205 8.33205L12.61 4.05405" stroke="black" stroke-width="0.234667" stroke-miterlimit="20"/>
        <path d="M9.96171 8.70923L10.7856 8.15751C12.4262 10.4246 13.3964 9.04051 13.9215 10.6471C12.9464 9.64786 12.8642 10.8044 10.8316 9.96255" fill="#FCD116"/>
        <path d="M9.96171 8.70923L10.7856 8.15751C12.4262 10.4246 13.3964 9.04051 13.9215 10.6471C12.9464 9.64786 12.8642 10.8044 10.8316 9.96255" stroke="black" stroke-width="0.234667" stroke-miterlimit="20" stroke-linecap="square"/>
        <path d="M10.1951 9.10372C12.2567 10.3545 13.3902 9.53422 13.9214 10.6472" stroke="black" stroke-width="0.234667" stroke-miterlimit="20"/>
        <path d="M8.33203 8.33188V7.23188L14.382 8.33188L8.33203 9.43188V8.33188H14.382H8.33203Z" fill="#FCD116"/>
        <path d="M8.33203 8.33188V7.23188L14.382 8.33188M8.33203 8.33188V9.43188L14.382 8.33188M8.33203 8.33188H14.382" stroke="black" stroke-width="0.234667" stroke-miterlimit="20"/>
        <path d="M9.21752 9.75118L10.1902 9.9436C9.74724 12.7068 11.412 12.4141 10.6473 13.9215C10.6643 12.5254 9.78834 13.2851 8.94643 11.2525" fill="#FCD116"/>
        <path d="M9.21752 9.75118L10.1902 9.9436C9.74724 12.7068 11.412 12.4141 10.6473 13.9215C10.6643 12.5254 9.78834 13.2851 8.94643 11.2525" stroke="black" stroke-width="0.234667" stroke-miterlimit="20" stroke-linecap="square"/>
        <path d="M9.10379 10.195C9.6771 12.5373 11.0587 12.7587 10.6473 13.9213" stroke="black" stroke-width="0.234667" stroke-miterlimit="20"/>
        <path d="M8.33202 8.33205L9.10983 7.55423L12.61 12.61L7.5542 9.10986L8.33202 8.33205L12.61 12.61L8.33202 8.33205Z" fill="#FCD116"/>
        <path d="M8.33202 8.33205L9.10983 7.55423L12.61 12.61M8.33202 8.33205L7.5542 9.10986L12.61 12.61M8.33202 8.33205L12.61 12.61" stroke="black" stroke-width="0.234667" stroke-miterlimit="20"/>
        <path d="M8.3321 10.3488C9.44587 10.3488 10.3488 9.44587 10.3488 8.3321C10.3488 7.21832 9.44587 6.31543 8.3321 6.31543C7.21832 6.31543 6.31543 7.21832 6.31543 8.3321C6.31543 9.44587 7.21832 10.3488 8.3321 10.3488Z" fill="#FCD116" stroke="black" stroke-width="0.234667" stroke-miterlimit="20"/>
        <path d="M9.81684 7.52536C9.6885 7.67202 9.61517 7.41536 9.15684 7.41536C8.6985 7.41536 8.62517 7.69036 8.55183 7.63536C8.4785 7.58036 8.93684 7.25036 9.0835 7.23202C9.23017 7.21369 9.65184 7.36036 9.81684 7.52536ZM9.28517 7.69036C9.4135 7.80036 9.3035 8.03869 9.17517 8.03869C9.04684 8.03869 8.8085 7.81869 8.9185 7.67202" fill="black"/>
        <path d="M8.68018 7.8553C8.69851 7.6353 8.88184 7.59863 9.17518 7.59863C9.46851 7.59863 9.59685 7.81863 9.70685 7.87363C9.57851 7.87363 9.46851 7.6903 9.17518 7.6903C8.88184 7.6903 8.88184 7.6903 8.68018 7.87363M8.73518 7.9103C8.80851 7.8003 8.90018 8.0203 9.10184 8.0203C9.30351 8.0203 9.41351 7.9653 9.54185 7.87363C9.67018 7.78197 9.35851 8.09364 9.15684 8.09364C8.95518 8.09364 8.68018 7.98363 8.73518 7.9103Z" fill="black"/>
        <path d="M9.35857 8.02045C9.59691 7.89212 9.45024 7.70879 9.35857 7.67212C9.39524 7.70879 9.54191 7.89212 9.35857 8.02045ZM8.3319 9.12046C8.4419 9.12046 8.47857 9.08379 8.62524 9.08379C8.7719 9.08379 9.12024 9.28546 9.3219 9.21212C8.90024 9.37712 9.06524 9.26712 8.3319 9.26712H8.24023M9.39524 9.37712C9.3219 9.24879 9.34024 9.28546 9.19357 9.08379C9.34024 9.19379 9.37691 9.24879 9.39524 9.37712ZM8.3319 9.56046C8.79024 9.56046 8.7169 9.46879 9.3219 9.21212C8.8819 9.26712 8.79024 9.41379 8.3319 9.41379H8.24023M8.3319 8.88212C8.46024 8.88212 8.4969 8.79046 8.64357 8.79046C8.79024 8.79046 8.9919 8.84546 9.08357 8.91879C9.1019 8.93712 9.02857 8.77212 8.8819 8.75379C8.73524 8.73546 8.79024 8.49712 8.62524 8.46046C8.62524 8.53379 8.68024 8.51546 8.69857 8.62546C8.69857 8.71712 8.53357 8.71712 8.4969 8.62546C8.53357 8.77212 8.42357 8.77212 8.3319 8.77212" fill="black"/>
        <path d="M6.84698 7.52536C6.97531 7.67202 7.04865 7.41536 7.50698 7.41536C7.96532 7.41536 8.03865 7.69036 8.11198 7.63536C8.18532 7.58036 7.72698 7.25036 7.58032 7.23202C7.43365 7.21369 7.01198 7.36036 6.84698 7.52536ZM7.37865 7.69036C7.25032 7.80036 7.36032 8.03869 7.48865 8.03869C7.61698 8.03869 7.85532 7.81869 7.74532 7.67202" fill="black"/>
        <path d="M7.98364 7.8553C7.96531 7.6353 7.78198 7.59863 7.48864 7.59863C7.19531 7.59863 7.06697 7.81863 6.95697 7.87363C7.08531 7.87363 7.19531 7.6903 7.48864 7.6903C7.78198 7.6903 7.78198 7.6903 7.98364 7.87363M7.92864 7.9103C7.85531 7.8003 7.76364 8.0203 7.56197 8.0203C7.36031 8.0203 7.25031 7.9653 7.12197 7.87363C6.99364 7.78197 7.30531 8.09364 7.50697 8.09364C7.70864 8.09364 7.98364 7.98363 7.92864 7.9103Z" fill="black"/>
        <path d="M7.30525 8.02045C7.06691 7.89212 7.21358 7.70879 7.30525 7.67212C7.26858 7.70879 7.12191 7.89212 7.30525 8.02045ZM8.33192 9.12046C8.22192 9.12046 8.18525 9.08379 8.03858 9.08379C7.89192 9.08379 7.54358 9.28546 7.34191 9.21212C7.76358 9.37712 7.59858 9.26712 8.33192 9.26712H8.42358M7.26858 9.37712C7.34191 9.24879 7.32358 9.28546 7.47025 9.08379C7.32358 9.19379 7.28691 9.24879 7.26858 9.37712ZM8.33192 9.56046C7.87358 9.56046 7.94692 9.46879 7.34191 9.21212C7.78192 9.26712 7.87358 9.41379 8.33192 9.41379H8.42358M8.33192 8.88212C8.20358 8.88212 8.16692 8.79046 8.02025 8.79046C7.87358 8.79046 7.67191 8.84546 7.58025 8.91879C7.56191 8.93712 7.63525 8.77212 7.78192 8.75379C7.92858 8.73546 7.87358 8.49712 8.03858 8.46046C8.03858 8.53379 7.98358 8.51546 7.96525 8.62546C7.96525 8.71712 8.13025 8.71712 8.16692 8.62546C8.13025 8.77212 8.24025 8.77212 8.33192 8.77212" fill="black"/>
        <path d="M8.33183 9.72534C8.24017 9.72534 8.00183 9.78034 8.33183 9.78034C8.66184 9.78034 8.4235 9.72534 8.33183 9.72534Z" fill="black"/>
    </g>
    <defs>
        <clipPath id="clip0_530_41751">
            <rect width="30" height="30" rx="15" fill="white"/>
        </clipPath>
    </defs>
</svg>
