<svg width="30" height="30" viewBox="0 0 30 30" fill="none" xmlns="http://www.w3.org/2000/svg">
    <g clip-path="url(#clip0_530_41576)">
        <path d="M0 15H30V30H0V15Z" fill="#00AB39"/>
        <path d="M0 0H30V15H0V0Z" fill="white"/>
        <path d="M19.8926 6.63281C17.9329 7.6868 16.0804 8.92899 14.3613 10.3418C13.5234 11.0801 13.7578 11.666 13.7285 12.3223C13.752 12.7676 13.6289 13.1777 13.3594 13.4238L11.4844 13.8047L11.3086 13.2891C11.3672 13.0254 11.584 12.8906 12.0469 13.0547C12.082 12.7207 11.8125 12.5859 11.4902 12.4629C11.373 12.375 11.2441 12.3105 11.2559 12.0176C11.2031 11.3496 12.2754 12.0645 12.2812 12.0645C12.293 12.0645 12.2461 11.3906 11.7539 11.2559C11.4902 11.1621 11.3789 10.8809 11.4785 10.6699C11.6895 10.2422 12.0937 10.7051 12.4043 10.7227C12.3926 10.4414 12.3105 10.2422 12.0703 10.0195C11.9414 9.9375 11.625 9.87891 11.6191 9.74414C11.6133 9.56836 11.9121 9.48633 12.334 9.53906C12.2461 9.28125 11.9648 9.11719 11.5781 9L11.3496 8.60156C11.2441 8.40234 11.1914 8.39648 11.4434 8.01563L12.1934 7.51758L11.9473 7.48828C11.9766 7.21875 11.9824 7.125 12.0469 6.67383C11.8008 7.00195 11.502 6.94336 11.2266 7.08398C11.2266 7.08398 10.4531 7.21875 10.207 7.55273L8.25586 7.44727C7.8457 7.50586 7.49414 7.62305 7.41797 8.02734C6.48047 8.12109 5.48438 8.03906 4.76367 8.94141C5.25586 8.91797 5.68359 8.80078 6.23437 8.87109C6.23437 8.87109 6.70312 8.88281 6.80273 9.38086C6.81445 9.39844 6.96094 9.39844 6.96094 9.39844L7.13672 9.53906L7.21289 9.3457L7.37109 9.46289L7.41797 9.25195L7.57617 9.35742L7.58789 9.11133L7.79883 9.25781V8.92969C7.79883 8.92969 8.56641 8.92969 8.80078 9.42188C8.8125 9.42773 6.64453 9.82031 4.54687 9.63867L5.15039 9.33984C4.38867 9.18164 3.66797 9.04688 2.99414 8.51367C3.25195 9.47461 4.56445 10.5996 4.83398 10.5938L4.57617 10.125L6.85547 10.2246C6.9375 10.4766 6.90234 10.7578 7.10156 10.9805C7.10156 10.9805 6.97852 11.3965 7.25391 11.5664C7.26562 11.5898 7.58789 10.7227 7.58789 10.7227C7.58789 10.7227 7.6875 10.957 7.78711 11.1094C7.93359 10.3652 8.74219 10.2422 8.74219 10.2422L8.91797 10.6406C8.66016 10.6816 8.34375 11.1973 8.51367 11.4785C8.34375 11.4785 8.04492 11.9824 8.13867 12.252C7.99219 12.3926 7.64062 12.5859 7.72851 13.1777C7.44726 13.2363 7.2832 13.752 7.37109 14.291C6.9375 14.6953 7.04297 15.4336 7.42969 15.7324C7.27148 15.8789 7.17187 15.9844 7.17187 16.1602C7.01953 16.1016 6.87891 16.1543 6.81445 16.2539C6.62695 16.0605 6.35742 15.8906 6.16992 16.0723C6.11719 15.8438 5.81836 15.5977 5.50195 15.627C5.51953 15.3867 5.39648 15.0938 5.05078 14.9883C5.05078 14.9883 4.98633 13.8691 4.64062 13.5059C4.61133 13.3008 4.66406 13.166 4.94531 13.002C5.2207 12.8496 5.28516 12.7324 5.26172 12.3105C5.37305 12.0293 5.45508 11.7422 5.11523 11.5488C5.12109 11.8828 5.02148 12.0469 4.88086 12.1934C4.72266 12.1699 4.66406 12.3574 4.55859 12.4453C4.40039 12.2344 4.88086 11.918 4.52344 11.4551C4.50586 11.4375 4.27734 10.8574 3.7207 10.8691C3.83929 10.9389 3.93678 11.0395 4.00281 11.1602C4.06883 11.2809 4.10094 11.4172 4.0957 11.5547C3.88969 12.012 3.85842 12.529 4.00781 13.0078C3.77344 12.6563 3.64453 12 3.45117 11.8828C3.28125 11.8535 3.19922 11.4551 2.54883 11.5664C2.83008 11.6426 2.91797 11.8594 2.99414 12.0527C2.81836 12.1465 2.90625 12.3809 3.03516 12.5391C3.01172 12.9258 3.24023 13.1484 3.58008 13.2891L3.41016 14.8477C3.27539 14.8301 3.06445 15.3633 2.98242 15.375C2.85352 15.457 2.61914 15.6797 2.88281 15.7441C2.80664 16.0313 2.73047 16.2012 2.30859 16.2598C2.30859 16.2598 2.75977 16.5293 3.12891 16.0723C3.52734 16.0605 3.39844 15.5859 3.5918 15.375C3.5918 15.3691 3.69727 15.2988 3.86133 14.877C3.93164 15.252 4.3125 16.4004 5.17969 16.9688C5.94141 17.7773 6.5625 18.5449 6.55664 19.623C6.84961 19.3477 7.02539 18.9141 7.16016 18.498C7.57031 18.3574 8.15625 18.3047 8.68359 18.3223C8.5957 18.5156 8.49609 18.6973 8.625 18.8203C8.25586 18.9434 8.17969 19.207 8.32617 19.4766C7.93945 19.7344 7.91602 19.9043 7.91016 20.3379C7.19531 21.252 6.75586 21.2227 6.04687 20.9824C5.8125 20.8477 5.46094 20.6543 5.29102 20.7598C4.98633 20.5547 4.54688 20.5254 4.4707 20.9883C4.70508 20.7949 4.83984 20.8359 5.02148 21.0176C4.98633 21.1113 4.95703 21.1992 5.0918 21.252L4.91602 21.4512C4.58789 21.4043 4.14258 21.4043 4.03125 21.8789C4.19531 21.7441 4.57031 21.7031 4.875 21.8438L5.04492 21.9023L5.0625 22.1309C5.0625 22.1309 4.61719 22.0605 4.49414 22.7871C4.91602 22.3418 5.21484 22.459 5.21484 22.459C5.37305 22.6934 5.9707 22.6582 6.39844 22.2715C6.99609 21.9316 7.17187 22.418 7.55859 22.0957C7.88086 21.8613 8.26172 22.0195 8.52539 22.3008C8.82422 22.4121 9.14062 22.5059 9.39258 22.3008C9.39258 22.3008 9.69141 22.1074 9.99609 22.418C9.99609 22.0664 9.75 21.8789 9.41016 21.873L9.31055 21.7734C8.99414 21.7031 8.63672 21.7324 8.35547 21.5742C8.46479 21.0748 8.70551 20.6136 9.05273 20.2383C9.50977 19.7461 9.84961 19.5234 10.4355 18.7617C10.4121 19.1895 10.7402 19.6641 10.9102 20.1035C10.9102 20.1035 11.2617 19.5469 11.3086 19.0957C11.3203 19.0957 11.7422 18.873 11.9238 18.6855C12.3105 18.9199 12.9316 18.498 13.3359 18.1406C13.5695 18.2321 13.8289 18.2321 14.0625 18.1406C13.8281 18.6094 14.1973 19.0488 14.7832 19.2363C14.8359 19.6523 15.252 19.7402 15.8965 19.7402C15.9199 19.9863 16.3066 20.0215 16.3066 20.0215C16.0605 20.1387 15.9375 20.2441 15.9434 20.502C15.6973 20.502 15.5098 20.5605 15.4453 20.8477C15.1095 20.8309 14.7749 20.8994 14.4727 21.0469C14.1234 21.0048 13.7958 20.8553 13.5352 20.6191C13.4121 20.5137 13.377 20.3613 13.1602 20.3027C13.0195 20.1328 12.8555 20.1738 12.8027 20.332C12.6562 20.2148 12.1172 20.1621 12.0234 20.6777C12.2754 20.4902 12.5039 20.4199 12.668 20.6484C12.5742 20.8066 12.873 20.8945 13.1309 20.959C13.3066 20.9707 13.6348 21.1348 13.7344 21.416C13.596 21.454 13.4511 21.4616 13.3095 21.4383C13.1679 21.415 13.033 21.3615 12.9141 21.2813C12.8248 21.2066 12.7138 21.1629 12.5976 21.1565C12.4815 21.1502 12.3664 21.1816 12.2695 21.2461C12.0469 21.1055 11.5371 21.3633 11.5195 21.7793C11.7305 21.5801 11.9297 21.4863 12.123 21.6152C12.0293 21.6387 12.0645 21.6445 12.0762 21.7031L12.5742 21.9902C12.3281 22.0547 12.0996 22.1543 12.2051 22.6055C12.2051 22.6055 12.4043 22.2129 12.8496 22.3594C12.8613 22.3477 12.9082 22.5 13.0371 22.4004C13.2305 22.1777 13.6816 22.0781 14.0625 22.043C14.3789 22.002 14.6895 21.9141 14.959 22.0898C15.1992 21.9668 15.4688 21.8789 15.7441 22.0781C16.0723 22.1836 16.3066 22.5586 16.7227 22.3887C16.9277 22.248 17.1797 22.2363 17.4375 22.5293C17.4375 22.166 17.168 22.043 16.7812 21.9609L16.5117 21.8027C16.2656 21.7617 16.0137 21.8086 15.7617 21.6914C16.354 21.5499 16.9121 21.2914 17.4032 20.9312C17.8942 20.571 18.3083 20.1163 18.6211 19.5938L19.2363 19.8105C19.3828 19.8223 19.3945 19.8691 19.6934 19.9629C19.7051 19.5176 19.5176 19.0605 18.7207 19.0195L17.6719 18.6211C17.4551 18.3867 17.3496 17.8887 17.6367 17.5957C17.9121 17.3496 17.959 17.3789 18.1406 17.0801C18.3633 17.0566 18.5742 17.2852 18.7793 17.2852C18.8789 17.5781 19.4355 17.8301 19.793 17.7422C20.0156 17.9414 20.4375 18.0527 20.9062 17.8945C21.1699 18.1289 21.5156 18.2227 21.9199 18.041C22.0312 18.1465 22.2539 18.2344 22.5176 18.1816C22.541 18.1816 22.6523 18.4688 22.9395 18.5684C22.8105 18.6855 22.8867 19.2129 23.0156 19.4063C22.9277 19.6055 22.8984 19.8164 22.9746 20.0332C22.6875 20.2148 22.6289 20.3555 22.7578 20.666C22.3828 21.2754 21.9316 21.3398 21.5039 21.1523L21.0469 20.8652L20.5605 20.3906C20.4785 20.3086 20.3086 20.2852 20.2676 20.4609C20.2676 20.4609 19.6465 20.3203 19.5937 20.8477C19.8516 20.5957 20.2207 20.8184 20.2207 20.8242C20.2207 20.8359 20.1328 20.8945 20.2031 21C20.2148 20.9824 20.6602 21.1641 21.0527 21.3281C20.8804 21.2508 20.6961 21.2032 20.5078 21.1875C20.2852 21.1641 20.0508 21.1348 19.9453 21.3047C19.7051 21.4043 19.3301 21.4863 19.3477 21.9316C19.5059 21.668 19.7285 21.6797 20.0098 21.6973C20.0098 21.7207 19.998 21.7441 19.9922 21.7617C20.2969 21.9023 20.2441 21.7207 20.5254 21.6973C20.7656 21.6738 21.1113 21.7617 21.2871 21.8203C21.0586 21.8848 20.7539 21.8613 20.6074 22.0195C20.584 22.0781 20.4902 22.0488 20.5312 22.1777C20.5312 22.1777 20.0918 22.166 19.9746 22.7754C20.4199 22.4883 20.7598 22.5 20.7656 22.5L20.9062 22.5293C20.9062 22.5293 21.4453 22.166 21.457 22.166C21.4629 22.166 21.9727 21.9434 22.2129 22.2012C22.4121 22.3008 22.6348 22.3066 22.8457 22.1777C23.2676 22.002 23.6543 21.9844 24.041 22.2363L24.3926 22.4473L24.5391 22.3477C24.5391 22.3477 24.9316 22.2363 25.2187 22.582C25.1016 21.9785 24.668 21.9609 24.668 21.9609L24.5684 21.873L23.9531 21.6328C23.8594 21.4102 23.6367 21.2344 23.8594 20.9648C24.0938 19.8223 24.3633 18.9727 23.918 17.8125C24.334 17.9883 24.6445 18.5449 25.166 18.3516C25.166 17.8828 23.4551 17.0039 22.1484 16.3008C24.2871 16.1836 26.8594 14.6074 25.8691 12.6035L26.3379 11.1504C26.5684 11.5788 26.9477 11.9081 27.4043 12.0762C27.0762 11.4434 26.8828 9.52148 27.0762 8.19727C26.2011 9.24665 25.2576 10.2371 24.252 11.1621C24.7441 11.2793 25.1836 11.1973 25.6582 11.1387L25.2598 11.9766C23.9414 11.2031 22.4004 11.7832 22.3887 12.8086C22.4355 14.0098 23.9121 14.1797 24.7676 13.7637C24.5977 14.8535 22.0898 14.4492 22.0898 14.4492C21.1992 14.1445 20.3496 14.1973 19.418 14.2031C19.6113 13.6055 20.6895 13.0723 21.5156 13.3066C20.3613 12.0176 21.6797 10.4121 23.2617 9.91406C21.5332 9.3457 23.0273 8.02734 24.3164 7.08398C24.3164 7.08398 20.5957 8.64844 20.2559 8.64258C19.2012 8.56641 19.4883 7.3125 19.8867 6.63867L19.8926 6.63281ZM8.20312 8.14453C8.29102 8.14453 8.39062 8.15625 8.47266 8.17383C8.64258 8.21484 8.84766 8.23828 8.8418 8.29102C8.76562 8.41992 8.57227 8.57813 8.38477 8.56641C8.19727 8.56055 8.0918 8.44922 8.02734 8.16211C8.04492 8.15039 8.11523 8.14453 8.20312 8.14453ZM23.877 12.5625C24.1172 12.5625 24.4102 12.6621 24.6973 12.9668C24.5566 13.3594 23.3672 13.5645 23.291 12.9785C23.2676 12.8027 23.5195 12.5684 23.877 12.5684V12.5625Z" fill="#D21034" stroke="black" stroke-width="0.15"/>
        <path d="M9.43359 11.5957L9.60938 11.8594M9.60938 11.8652C9.60938 11.8652 9.60937 12.2168 9.67969 12.2285M9.51562 12.416L9.70313 12.7266M9.1875 12.8086L9.42188 13.0664M9.60938 12.8672C9.60938 12.8789 9.82031 13.2715 9.83789 13.2715M9.33398 13.1367C9.33398 13.1367 9.41016 13.6172 9.47461 13.5996M9.02344 14.0098L9.23438 14.332M9.41602 13.6758C9.41602 13.6758 9.5332 14.127 9.62109 14.0859M9.71484 13.4004C9.7207 13.4121 9.92578 13.7051 9.98437 13.6641M9.9375 13.7812L10.1309 14.1738M9.60352 14.0859C9.61523 14.0977 9.76758 14.5547 9.76758 14.5547M9.22852 14.3203C9.22852 14.3203 9.375 14.8242 9.50977 14.7422M9.16992 14.9883C9.16992 14.9883 9.18164 15.252 9.31055 15.2637M9.39844 14.8535C9.39844 14.8652 9.5332 15.0469 9.5332 15.0469M9.77344 14.543L9.88477 14.7187M10.1191 14.2266L10.2891 14.4316M9.36328 11.8711C9.36914 12.0938 9.7207 11.7891 9.86133 11.6016M9.2168 12.6387C9.2168 12.6387 9.59766 12.3691 9.89648 11.959M9.08203 13.2891C9.35156 13.2129 9.84961 12.6094 9.94922 12.293M9.0293 13.8867C9.10547 13.9219 10.0371 13.248 10.0605 12.7559M9.00586 14.4023C9.00586 14.3965 9.85547 14.1855 10.2129 13.248M8.95898 15.1172C8.95898 15.1172 10.3184 14.3027 10.3945 13.7051M19.5703 16.4824C19.5703 16.4824 19.4824 17.1855 18.7793 17.291M19.793 17.7363C19.8047 17.7305 20.4668 16.998 20.2969 16.7754M21.3398 17.0332C21.3398 17.0332 21.3281 17.543 20.9121 17.8945M22.166 17.1797C22.166 17.1797 22.1836 17.7949 21.9199 18.041M22.9277 17.5488C22.9277 17.5488 22.6348 18.123 22.5293 18.1816M22.916 18.5684C22.916 18.5684 23.3027 18.668 23.4258 18.4102M23.0156 19.4063C23.0156 19.4063 23.3789 19.4707 23.543 19.125M22.9805 20.0508C22.9805 20.0508 23.2734 20.2969 23.4668 19.9746M18.8203 15.3105C18.8203 15.3105 18.7852 16.5586 20.543 16.8105C22.5059 17.3555 23.4316 17.0684 23.5488 19.2656C23.4727 20.1035 23.373 21.0469 22.7637 20.6895M16.957 16.459C16.957 16.459 17.2324 16.957 17.5723 16.9277C18.0117 16.793 18.1758 17.0684 18.1758 17.0684M15.7559 16.957C15.7559 16.957 16.4941 17.3203 17.127 16.7344M15.8379 16.4414C15.9023 17.3027 14.8418 17.7949 14.4258 17.7129M15.8906 19.7461C15.8965 19.7461 16.4648 19.4063 16.3477 19.166M14.7656 19.2422C14.7773 19.2246 15.7148 19.1367 15.8848 18.7969M14.3262 17.8594C14.3262 17.8535 15.6563 17.8652 15.7441 18.1113M16.0957 17.0742C16.0957 17.0742 14.7949 19.2891 17.1914 19.2891M14.7187 17.0391C14.7187 17.0391 14.4434 17.8711 14.0449 18.1523M13.3418 16.752C13.3418 16.752 13.8223 17.6895 13.3418 18.1465M12.0879 17.0156C12.0938 17.0332 12.2402 18.3398 11.9121 18.709M11.4609 17.0566C11.4609 17.0566 11.5137 17.8887 11.2676 18.1816C11.0215 18.4746 11.3262 19.0898 11.3262 19.0898M8.33203 19.4883C8.33203 19.4883 8.50781 19.7988 8.75391 19.6934M8.63086 18.8145C8.63086 18.8145 9.02344 18.9902 9.1582 18.9199M9.05859 17.4199C9.05859 17.4199 8.47266 17.584 8.69531 18.2695C9.0293 18.5449 9.36328 18.5039 9.36328 18.5039M7.91016 20.3496C7.89844 20.3496 7.96875 20.8887 8.34961 20.4785C8.61328 19.9277 9.44531 18.3809 9.63281 17.8418M10.0195 17.5898C10.0195 17.5898 9.61523 17.2793 9.63281 17.7129C9.62109 17.9824 9.75 18.0527 9.75 18.0527C9.77344 18.2461 9.94336 18.5215 10.084 18.2695C10.1426 18.0293 10.043 17.918 10.043 17.918M10.2773 17.4785C9.9082 17.4492 9.71484 18.2461 10.4121 17.748M10.6465 17.2031C10.6465 17.2031 10.5586 17.3262 10.418 17.1973C10.3477 17.0684 10.084 17.7832 10.541 17.8125C10.623 17.6016 10.8809 17.543 10.8809 17.543M11.0918 16.8633C11.0918 16.8633 10.8867 16.957 10.8164 16.9453C10.5703 17.0039 10.6172 17.5723 10.9336 17.543C11.0332 17.4199 11.1504 17.25 11.1504 17.25M9.1582 16.1074C9.14648 16.1074 8.33789 17.3789 9.60938 17.7129M19.3945 14.1973C19.3945 14.1973 18.9023 14.6191 19.3594 15.293C17.8359 15.2695 17.0156 15.9727 16.9453 16.4473C15 16.3125 15.3516 16.8867 14.7187 17.0742C13.875 16.3711 12.6328 16.7637 12.7148 17.4668C12.1523 16.6699 11.2793 17.0566 11.1738 17.2559C11.0684 17.4492 11.1094 16.2773 11.1094 16.2773C11.1094 16.2773 10.541 16.5293 10.1484 16.998V16.0137C9.67969 16.1074 9.2168 16.1133 8.73047 16.1074M7.44727 15.7441C7.44727 15.7441 8.15039 16.1367 9.0293 15.6035M7.38867 14.3203C7.38867 14.3203 7.93945 14.8184 8.9707 14.6602M7.73438 13.1836C7.73438 13.1836 7.85742 13.5879 9.04102 13.6113M8.13281 12.252C8.13281 12.252 8.57812 12.7969 9.18164 12.7207M8.51367 11.4727C8.51367 11.4727 8.68945 11.7715 9.3457 11.8242M8.90039 10.6113C8.90039 10.6113 9.24609 10.9922 9.63867 10.9277M10.9512 7.54688C10.9512 7.54688 11.1035 7.39453 11.3613 7.4707M10.8398 8.34961C10.8398 8.34961 10.3711 8.33203 10.4004 8.14453C10.4355 7.93359 10.8984 7.78125 10.8984 7.78125C10.8984 7.78125 11.5195 7.38281 11.6133 7.24805M8.8125 9.41602L9.41602 10.5703L9.70898 10.1367L9.85547 10.4355L10.1016 10.002L10.5293 10.2773L10.3652 9.75L10.7227 9.72656C10.7227 9.72656 10.6289 9.46875 10.3066 9.41602C10.4314 9.32683 10.5584 9.24087 10.6875 9.1582C10.6875 9.1582 10.5176 8.95898 10.2539 8.95312C10.3418 8.85937 10.459 8.63086 10.4531 8.63086L10.1895 8.57227C10.1895 8.57227 10.793 8.76562 11.2559 8.49609M10.1016 7.55859C10.1133 7.57031 10.0723 7.79883 9.94336 7.93359M7.77539 8.19727C7.77539 8.19727 8.15039 8.09766 8.43164 8.15039C8.70703 8.20898 9.07617 8.30859 9.07617 8.30859C9.07617 8.30859 9.52148 8.25 9.66211 8.14453M6.85547 8.44336C6.85547 8.44336 6.80273 8.61914 6.78516 8.73633C6.78516 8.82422 6.51562 8.93555 6.51562 8.93555M7.03125 8.08594C7.03125 8.08594 7.26562 8.37891 7.27734 8.55469C7.2832 8.72461 7.10156 8.84766 7.10156 8.84766M4.58203 10.1133L4.33594 9.71484L4.55273 9.63867M9.02344 15.6152C8.82422 15.3574 9.16992 11.4551 9.90234 10.4297C9.64453 12.2695 10.4883 14.1504 10.7051 14.1445M6.80273 9.33984C6.80273 9.33984 7.13086 9.46875 7.82227 8.92383M8.75977 10.2422L9.25195 10.248M24.0996 7.17773C24.0996 7.17773 15.8555 11.0332 15.7383 11.2324C17.127 10.8164 23.0273 9.82617 23.1738 9.91406C22.8223 10.002 15.6621 11.6426 15.3281 12.041C17.1152 11.9824 20.8594 12.6152 21.4453 13.2246C20.1738 12.9375 16.3711 12.375 15.2109 12.627C16.0605 12.832 19.3242 14.9414 19.3242 15.2812C18.832 14.8125 14.9063 13.1895 14.7539 13.3477C15.6504 13.8867 16.9219 15.8906 16.9219 16.3828C16.6582 15.9609 14.3906 13.5234 14.2617 13.6875C14.4961 14.0156 14.9766 16.8926 14.7305 17.0273C14.7305 16.6758 13.8516 14.1621 13.7812 14.0918C13.6055 14.1387 12.4805 17.1621 12.7031 17.4434C12.5566 16.4355 12.7266 14.332 12.9961 14.4141C12.5098 14.4844 10.9395 16.5527 11.1094 16.875C11.1563 16.3652 11.2266 16.0195 12.1113 14.3086C11.127 14.3672 9.08789 15.6504 8.74219 16.1074C9.01758 15.2871 10.7461 13.9102 11.4961 13.8164M15.0586 10.8105C15.9316 10.3301 18.6211 9.3457 20.4199 8.61914M13.3594 13.4121C13.3594 13.4121 13.9453 13.4062 14.543 11.7949C15.1289 9.58594 19.7695 7.13086 19.8633 6.66797M5.50781 15.6328C5.50781 15.6328 5.36719 15.9258 5.19727 16.0078M6.16992 16.0781C6.16992 16.0781 5.98242 16.4297 5.94141 16.6055M6.80273 16.2539C6.80273 16.2539 6.96094 16.7402 6.83203 16.9688M5.03906 14.9824C4.57031 15.2461 5.30273 16.9102 7.51758 17.0684M7.16602 16.1719C7.16602 16.1719 7.10156 16.4648 7.51758 17.0625C7.40039 17.7246 8.02148 18.2402 8.26758 18.3281M6.97852 10.207L7.04883 10.0312L7.125 10.2246H7.24219L7.32422 10.0254L7.39453 10.2246H7.51172L7.58789 10.002L7.70508 10.2129H7.79883L7.875 9.96094L8.02734 10.1426L8.08594 10.1191L8.13281 9.86719L8.28516 10.043L8.33203 10.0195L8.40234 9.77344L8.53125 9.95508L8.58984 9.9375L8.64844 9.72656L8.77148 9.91992M6.84375 10.2305L7.76953 10.2129C8.0625 10.2129 8.54883 9.80273 9.09375 9.93164M4.89258 12.2109C4.89258 12.2109 5.04492 12.5391 5.26172 12.3516M4.54102 12.4277C4.54102 12.4277 4.24219 13.2305 4.59961 13.4121M4.11328 11.5488C4.11328 11.5488 4.11328 11.7363 4.50586 11.4434M2.90039 15.7383C2.90039 15.7383 3.2168 15.832 3.16406 16.0723M3.01758 12.0703C3.01758 12.0703 3.2168 12.1699 3.4043 11.877M5.0918 21.252C5.39648 21.2344 5.46094 21.3691 5.73633 21.3691C6.05859 21.3809 6.36914 21.252 6.7793 21.1406M9.39844 21.8789C9.39258 21.8789 9.25195 22.1719 9.375 22.3125M5.04492 21.9023C5.04492 21.9023 5.53125 21.5098 5.7832 21.7559C6.0293 21.8379 6.16406 21.8203 6.16406 21.8203M5.30273 20.7656C5.30273 20.7656 5.41992 21.0762 5.02148 21.0352M4.9043 21.4746C4.9043 21.4746 5.15625 21.6328 4.86914 21.8438M5.05664 22.1367C5.05664 22.1367 5.4082 22.1836 5.20313 22.4648M15.9551 20.4902C16.3066 20.7773 16.1602 20.9473 17.2676 20.1973M15.4512 20.8418C15.4512 20.8418 15.9727 21.4043 16.3477 20.7246M14.4551 21.0469L13.752 21.416M12.4805 21.9375C12.4805 21.9375 12.9082 21.5684 13.1074 21.7617C13.3125 21.9609 14.1621 21.5977 14.1621 21.5977M12.8027 20.332C12.8027 20.332 12.9492 20.625 12.6621 20.6602M12.2402 21.2461C12.2402 21.2461 12.3926 21.5215 12.0996 21.5977M12.5684 21.9961C12.5684 21.9961 13.0195 22.0195 12.8613 22.3535M16.7344 21.9375C16.7344 21.9375 16.4883 22.1426 16.6758 22.377M20.2793 20.4551C20.2793 20.4551 20.5605 20.5898 20.2207 20.8242M19.9453 21.3105C19.9453 21.3105 20.1563 21.5332 20.0156 21.7207M20.5371 22.166C20.5371 22.166 20.8301 22.248 20.7949 22.4883M24.6387 21.9492C24.6387 21.9492 24.3926 22.125 24.5215 22.3594M20.2969 14.8242C20.8828 14.7539 21.7207 16.0547 22.1484 16.3125M24.7148 12.9785C24.7148 12.9785 25.0078 13.2363 24.75 13.8633M25.2656 11.9824C25.3477 12.0469 25.6699 12.2168 25.8809 12.6094M26.0801 10.0312L25.6699 11.1445M26.543 9.97266C26.543 9.97266 26.4609 10.9688 26.3438 11.168M16.2891 20.0215C16.2891 20.0215 17.2324 20.1211 17.2793 20.1914C17.3848 20.0742 18.2285 19.3945 17.1914 19.2949C17.1432 19.4991 17.0283 19.6814 16.8649 19.813C16.7015 19.9446 16.4988 20.018 16.2891 20.0215ZM24.7031 12.9668C24.5684 13.3652 23.373 13.5645 23.2969 12.9785C23.2559 12.6855 24 12.2168 24.7031 12.9668Z" stroke="black" stroke-width="0.15" stroke-linejoin="round"/>
        <path d="M8.19141 8.14453L8.6543 8.22656C8.6543 8.22656 8.33203 8.66016 8.19141 8.14453Z" fill="black" stroke="black" stroke-width="0.15" stroke-linejoin="round"/>
    </g>
    <defs>
        <clipPath id="clip0_530_41576">
            <rect width="30" height="30" rx="15" fill="white"/>
        </clipPath>
    </defs>
</svg>
