<svg width="664" height="240" viewBox="0 0 664 240" fill="none" xmlns="http://www.w3.org/2000/svg">
    <path d="M551.775 135.135C557.549 135.233 563.214 133.562 568.009 130.345L563.359 141.547C559.032 143.105 554.456 143.857 549.857 143.764C541.405 143.764 534.527 141.442 529.229 136.809C526.465 134.334 524.286 131.275 522.849 127.854C521.413 124.434 520.755 120.736 520.923 117.03C520.805 113.288 521.54 109.568 523.072 106.151C524.605 102.735 526.895 99.712 529.769 97.3112C535.544 92.4332 542.927 89.8768 550.483 90.1389C555.25 90.0859 559.985 90.9374 564.435 92.6482V102.487C560.485 100.054 555.888 98.8804 551.255 99.1239C548.942 99.0432 546.639 99.4534 544.497 100.327C542.355 101.202 540.423 102.52 538.828 104.195C535.604 107.632 533.876 112.208 534.025 116.918C533.897 119.339 534.251 121.762 535.066 124.046C535.882 126.329 537.142 128.428 538.775 130.221C540.474 131.909 542.51 133.219 544.75 134.066C546.991 134.913 549.385 135.277 551.775 135.135ZM339.187 74.7718C336.115 74.813 333.043 74.6707 329.986 74.3449V38.0303C333.661 37.7007 336.748 37.7906 339.24 37.7906C343.414 37.5878 347.575 38.4 351.367 40.1576C352.513 40.8921 353.441 41.9209 354.054 43.1364C354.667 44.3519 354.942 45.7096 354.851 47.0677C354.747 48.3043 354.347 49.4976 353.684 50.5471C353.022 51.5966 352.116 52.4714 351.045 53.0977C350.827 53.2288 350.606 53.3598 350.382 53.4834C350.172 53.5846 349.951 53.6707 349.73 53.7456C351.374 54.1006 352.931 54.7778 354.312 55.7381C355.299 56.4845 356.121 57.4285 356.723 58.5099C357.326 59.5914 357.696 60.7865 357.811 62.019C357.822 62.2924 357.83 62.5808 357.83 62.8805C357.83 67.9666 355.454 70.6782 351.281 72.6632C347.456 74.2528 343.325 74.9756 339.187 74.7718ZM337.835 51.9067H340.386C344.556 51.9441 347.294 50.446 347.294 47.4198C347.294 44.0265 344.162 42.9254 339.996 42.9254H337.835V51.9067ZM337.835 69.476C338.472 69.5134 340.48 69.5321 341.517 69.5321C347.534 69.5321 350.018 67.1838 350.018 63.3149C350.018 59.2025 346.467 57.1501 341.225 57.1501C340.188 57.1501 338.472 57.1688 337.835 57.2025V69.476ZM606.717 121.173C606.717 129.098 602.648 133.802 595.935 133.802C589.221 133.802 585.149 128.955 585.149 120.817V91.5958H573.516V121.101C573.516 135.809 582.365 143.307 595.792 143.307C609.216 143.307 618.35 135.877 618.35 120.742V91.5958H606.717V121.173ZM310.137 75.5509C315.158 75.6497 320.032 73.8492 323.782 70.5097V56.4722H315.922V68.0977C314.236 68.8393 312.411 69.2213 310.564 69.2213C308.873 69.2864 307.186 68.9994 305.611 68.3785C304.036 67.7576 302.607 66.8164 301.416 65.6145C300.221 64.3825 299.285 62.9248 298.661 61.3268C298.037 59.7287 297.738 58.0223 297.782 56.3074C297.737 54.5859 298.039 52.8729 298.668 51.2698C299.297 49.6667 300.242 48.206 301.446 46.9741C302.648 45.7443 304.096 44.7803 305.694 44.1442C307.292 43.5081 309.006 43.2141 310.725 43.2812C314.24 43.2015 317.705 44.1099 320.728 45.9029V39.4909C317.186 37.9685 313.349 37.2546 309.497 37.401C304.174 37.1304 298.961 38.9779 294.998 42.5396C293.204 44.289 291.79 46.389 290.844 48.7087C289.898 51.0285 289.439 53.5183 289.498 56.0228C289.498 62.1464 291.296 66.5434 294.844 69.7531C299.042 73.5224 304.495 75.5898 310.137 75.5509ZM370.83 74.2025H378.888V59.9928L392.78 38.3636H383.639L374.857 52.4535L366.075 38.3636H356.934L370.826 59.9928V74.1988L370.83 74.2025ZM663.989 108.113C664.073 110.211 663.68 112.302 662.839 114.227C661.998 116.152 660.731 117.861 659.133 119.225C655.896 121.935 651.765 123.345 647.546 123.18C644.608 123.262 641.705 122.525 639.161 121.053V142.611H627.431V91.5022C631.99 91.064 636.572 90.8655 641.154 90.9029C651.453 90.9029 658.377 93.9966 661.928 100.184C663.297 102.601 664.007 105.335 663.989 108.113ZM652.041 107.738C652.112 106.46 651.879 105.184 651.361 104.014C650.843 102.843 650.056 101.812 649.063 101.004C647.023 99.5027 644.527 98.7513 641.997 98.8767C641.023 98.8767 640.075 98.9441 639.161 98.9516V117.566C639.794 117.663 640.431 117.708 641.068 117.704C648.415 117.704 652.041 114.375 652.041 107.738ZM447.538 133.532C441.967 134.726 436.273 135.241 430.578 135.068C428.597 135.095 426.616 135.015 424.644 134.828V91.5921H412.921V142.6H443.882L447.538 133.532ZM391.978 94.1614C394.632 95.6825 396.732 98.0092 397.973 100.804C399.215 103.599 399.534 106.716 398.883 109.704C398.45 111.688 397.601 113.557 396.392 115.188C394.383 117.625 391.528 119.216 388.397 119.641L406.443 142.6H392.053L374.614 119.304V142.6H362.876V91.5883C367.048 91.0666 371.252 90.8363 375.457 90.8992C382.874 90.8992 388.382 91.9891 391.978 94.1614ZM386.958 106.708C386.958 101.495 383.657 98.8879 377.053 98.8842C376.239 98.8823 375.425 98.9123 374.614 98.9741V114.51C375.378 114.551 376.18 114.577 377.053 114.577C383.65 114.577 386.951 111.955 386.958 106.708ZM268.155 75.5471C277.805 75.5471 284.377 70.2063 284.377 59.3224V38.3673H276.007V59.637C276.007 65.3374 273.081 68.7194 268.252 68.7194C263.427 68.7194 260.497 65.2325 260.497 59.3823V38.3711H252.131V59.5846C252.131 70.1613 258.496 75.5509 268.151 75.5509L268.155 75.5471ZM305.387 97.446C310.662 92.5696 317.649 90.1351 326.341 90.1426C335.014 90.1426 341.993 92.5771 347.276 97.446C350.018 99.9143 352.189 102.951 353.637 106.345C355.084 109.738 355.774 113.407 355.657 117.094C355.768 120.79 355.077 124.467 353.63 127.871C352.183 131.275 350.015 134.324 347.276 136.809C342.001 141.633 335.025 144.045 326.341 144.045C317.656 144.045 310.673 141.633 305.387 136.813C302.646 134.329 300.477 131.279 299.03 127.874C297.584 124.469 296.895 120.791 297.01 117.094C296.889 113.406 297.577 109.736 299.024 106.342C300.471 102.947 302.643 99.9099 305.387 97.4422V97.446ZM310.265 117.161C310.063 121.779 311.52 126.316 314.375 129.952C315.801 131.733 317.629 133.151 319.708 134.092C321.788 135.032 324.061 135.468 326.341 135.364C328.628 135.46 330.907 135.021 332.995 134.081C335.083 133.142 336.922 131.728 338.367 129.952C341.162 126.289 342.589 121.765 342.402 117.161C342.588 112.561 341.163 108.04 338.37 104.379C336.869 102.673 335.02 101.308 332.948 100.375C330.876 99.4424 328.628 98.9635 326.355 98.9706C324.083 98.9777 321.838 99.4706 319.772 100.416C317.705 101.362 315.865 102.738 314.375 104.453C311.558 108.078 310.104 112.575 310.265 117.161ZM500.389 117.094C500.52 120.819 499.752 124.521 498.149 127.886C496.546 131.251 494.156 134.181 491.18 136.427C485.433 140.952 477.435 143.21 467.184 143.206C462.521 143.273 457.859 142.969 453.244 142.296V91.8093C457.861 91.1549 462.521 90.8519 467.184 90.9029C477.438 90.9029 485.437 93.1576 491.18 97.6707C494.151 99.9421 496.536 102.889 498.137 106.268C499.739 109.646 500.511 113.357 500.389 117.094ZM487.516 117.124C487.516 111.124 485.815 106.573 482.417 103.472C479.166 100.525 474.52 99.0527 468.484 99.0527C467.413 99.0527 466.248 99.0977 464.982 99.1988V134.907C466.248 135.012 467.413 135.064 468.484 135.064C481.17 135.064 487.516 129.086 487.516 117.124ZM257.035 111.008L264.802 133.914C265.382 135.776 266.225 137.547 267.308 139.169C268.634 140.607 270.268 141.731 272.092 142.446C274.827 143.412 276.914 144.124 278.326 144.581L296.227 91.5921H285.055L274.186 126.607L261.951 91.5921H253.645L242.169 126.502L230.016 91.5958H217.398L232.324 133.394C232.833 135.15 233.545 136.839 234.448 138.435C235.774 140.214 237.557 141.596 239.618 142.431C240.513 142.836 242.596 143.543 245.833 144.566L257.035 111.008ZM227.12 74.1988H218.878V38.3598C221.9 38.0005 224.942 37.8416 227.985 37.8842C232.048 37.6261 236.109 38.4153 239.779 40.1763C241.642 41.0327 243.173 42.4748 244.14 44.2824C245.106 46.0901 245.455 48.1642 245.132 50.1883C244.81 52.2125 243.834 54.0756 242.353 55.4935C240.872 56.9114 238.969 57.8062 236.932 58.0415L250.243 74.1988H240.127L227.116 57.8355V74.2025L227.12 74.1988ZM227.12 54.3823C227.78 54.4779 228.446 54.5229 229.113 54.5172C233.747 54.5172 237.055 52.5097 237.055 48.7793C237.055 44.8467 233.747 43.4984 229.113 43.4984C228.446 43.4984 227.779 43.5359 227.12 43.6183V54.3823ZM362.73 177.892C362.639 176.26 362.886 174.627 363.455 173.096C364.025 171.564 364.906 170.167 366.041 168.992C367.177 167.817 368.543 166.889 370.054 166.266C371.566 165.644 373.189 165.34 374.823 165.375C378.08 165.173 381.317 165.997 384.081 167.731V160.828C380.971 159.58 377.638 158.979 374.288 159.064C363.104 159.064 353.529 166.124 353.529 177.944C353.529 189.978 362.355 196.719 373.861 196.719C377.085 196.77 380.292 196.245 383.332 195.169L386.595 187.304C383.261 189.631 379.262 190.814 375.198 190.674C367.33 190.674 362.73 185.644 362.73 177.892ZM399.569 190.409V179.442H410.752V174.098H399.569V165.371C400.801 165.319 402.086 165.319 403.371 165.319C406.346 165.199 409.328 165.431 412.25 166.012V160.019H391.33V195.862H413.483L416.21 189.173C412.236 190.143 408.155 190.611 404.064 190.566C402.566 190.566 401.067 190.51 399.569 190.405V190.409ZM554.645 175.483C556.155 174.98 557.458 173.997 558.357 172.683C559.255 171.37 559.699 169.799 559.62 168.21C559.62 161.468 552.985 159.012 547.261 159.012C544.416 159.009 541.593 159.497 538.914 160.453L537.846 167.034C540.335 165.841 543.059 165.219 545.819 165.214C548.437 165.214 551.487 165.963 551.487 169.173C551.487 173.345 546.512 173.345 543.514 173.345C542.769 173.345 542.02 173.345 541.27 173.292V179.547C542.778 179.353 544.298 179.266 545.819 179.285C549.243 179.285 553.682 180.244 553.682 184.525C553.682 189.498 548.655 190.727 544.638 190.727C541.291 190.723 537.96 190.257 534.74 189.341L537.737 196.184C539.954 196.659 542.215 196.893 544.481 196.88C552.236 196.88 562.243 193.832 562.243 184.416C562.243 179.337 559.407 176.663 554.645 175.483ZM340.697 181.798L322.609 160.027H314.959V195.862H322.182V172.274L338.236 191.585C341.12 195.116 343.638 196.023 347.92 197.042V160.027H340.697V181.798ZM444.118 190.356C448.557 185.218 457.118 175.697 457.118 168.693C457.118 161.791 450.966 158.955 444.919 158.955C441.44 158.942 438.002 159.71 434.86 161.203L433.575 168.21C436.389 166.257 439.725 165.195 443.151 165.161C445.987 165.161 448.823 166.39 448.823 169.656C448.762 171.067 448.358 172.443 447.647 173.663C446.199 176.227 444.535 178.661 442.671 180.94C438.767 186.179 434.531 191.163 429.99 195.862H457.867L460.115 189.659C456.856 190.308 453.539 190.612 450.217 190.566C448.182 190.566 446.148 190.461 444.118 190.356ZM499.576 177.892C499.576 188.588 492.244 196.88 481.331 196.88C470.361 196.88 463.03 188.588 463.03 177.892C463.03 167.195 470.361 158.903 481.331 158.903C492.244 158.903 499.576 167.195 499.576 177.892ZM490.319 177.892C490.319 172.274 488.071 165.214 481.331 165.214C474.64 165.214 472.287 172.33 472.287 177.892C472.287 183.51 474.535 190.513 481.331 190.513C488.071 190.513 490.319 183.51 490.319 177.892ZM218.799 195.858H227.09V179.439H237.31V174.098H227.09V165.371C228.109 165.319 229.177 165.319 230.196 165.319C233.17 165.251 236.145 165.483 239.075 166.012V160.019H218.799V195.858ZM514.678 190.352C519.118 185.214 527.678 175.693 527.678 168.689C527.678 161.787 521.523 158.952 515.48 158.952C512.001 158.938 508.563 159.706 505.421 161.199L504.136 168.206C506.95 166.253 510.286 165.191 513.711 165.158C516.548 165.158 519.384 166.386 519.384 169.652C519.323 171.063 518.919 172.439 518.207 173.659C516.76 176.223 515.095 178.658 513.232 180.937C509.327 186.176 505.091 191.16 500.55 195.858H528.428L530.672 189.656C527.413 190.306 524.096 190.609 520.774 190.562C518.743 190.562 516.709 190.457 514.678 190.352ZM295.961 159.97L310.947 195.858H301.794L297.838 185.749H285.1L281.196 195.862H264.655L252.405 179.495V195.862H244.162V159.97C247.09 159.596 250.042 159.435 252.993 159.487C256.683 159.487 261.392 159.809 264.603 161.787C266.114 162.657 267.376 163.901 268.266 165.4C269.157 166.899 269.646 168.602 269.687 170.345C269.846 172.578 269.149 174.788 267.738 176.527C266.327 178.266 264.308 179.403 262.089 179.708L273.722 194.525L287.992 159.97H295.961ZM261.07 170.615C261.07 166.547 257.698 165.105 254.117 165.105C253.529 165.105 252.993 165.105 252.405 165.158V176.124C252.993 176.124 253.529 176.176 254.117 176.176C257.702 176.176 261.07 174.731 261.07 170.615ZM295.537 179.974L291.36 169.435L287.295 179.974H295.537Z" fill="white"/>
    <path d="M73.7349 150.85C71.7611 165.314 72.0523 179.997 74.5981 194.371C77.6304 209.558 83.7928 219.636 91.0885 221.331C97.5586 222.832 105.774 218.255 113.981 208.962C118.384 193.542 121.607 173.976 123.6 150.846L73.7349 150.85Z" fill="white"/>
    <path d="M123.027 157.104C124.727 139.868 125.71 120.52 125.924 99.247C126.194 83.7707 125.894 67.9756 125.203 53.3547C109.52 56.2174 87.5424 86.3632 77.4807 129.682C75.3696 138.708 73.9035 147.873 73.0935 157.108L123.027 157.104ZM59.8381 124.223C65.9366 98.6655 76.1935 75.5993 88.7846 59.1513C99.9346 44.5942 112.165 36.2652 124.089 34.9033C123.55 27.4647 122.832 20.0401 121.934 12.6362C82.2057 24.6045 60.5286 38.884 60.5286 38.884C60.5286 38.884 59.0162 70.5756 59.1551 88.8019C59.1438 101.648 59.3877 113.425 59.8381 124.223Z" fill="white"/>
    <path d="M167.915 0C159.923 0.981117 152.058 2.81495 144.456 5.47015C183.824 169.387 107.909 236.507 107.909 236.507C234.429 181.082 167.915 0 167.915 0ZM52.0055 220.149C40.8142 207.509 31.1767 189.309 24.8717 168.892C18.563 148.475 16.2512 128.008 18.3679 111.264C19.9704 98.5716 24.0498 88.7118 30.1784 82.3524C30.5987 73.108 31.2818 64.6589 31.946 57.3991L32.1524 55.163C21.1982 62.2324 10.8281 70.1679 1.14183 78.8933C0.281109 87.9097 -0.0934772 96.966 0.0196974 106.023C0.106015 124.058 2.72182 141.988 7.79581 159.295C12.9828 176.8 21.7154 193.052 33.451 207.04C50.418 226.843 68.0044 234.065 72.5604 235.689C64.6011 232.164 57.5658 226.846 52.0055 220.149Z" fill="white"/>
    <path d="M73.7349 150.85C71.7611 165.314 72.0523 179.997 74.5981 194.371C77.6304 209.558 83.7928 219.636 91.0885 221.331C97.5586 222.832 105.774 218.255 113.981 208.962C118.384 193.542 121.607 173.976 123.6 150.846L73.7349 150.85Z" fill="url(#paint0_radial_250_696)"/>
    <path d="M123.026 157.104C124.726 139.868 125.709 120.52 125.923 99.2467C126.194 83.7705 125.893 67.9753 125.203 53.3545C109.519 56.2171 87.542 86.363 77.4803 129.682C75.3692 138.708 73.9031 147.873 73.0931 157.107L123.026 157.104Z" fill="url(#paint1_radial_250_696)"/>
    <path d="M167.916 0C159.923 0.981117 152.058 2.81495 144.456 5.47015C183.824 169.387 107.91 236.507 107.91 236.507C234.429 181.082 167.916 0 167.916 0Z" fill="url(#paint2_radial_250_696)"/>
    <path d="M52.0055 220.149C40.8142 207.509 31.1767 189.309 24.8717 168.892C18.563 148.475 16.2512 128.008 18.3679 111.264C19.9704 98.5716 24.0498 88.7119 30.1784 82.3525C30.5987 73.108 31.2818 64.6589 31.946 57.3992L32.1524 55.1631C21.1982 62.2325 10.8281 70.168 1.14183 78.8933C0.281109 87.9098 -0.0934772 96.966 0.0196974 106.023C0.106015 124.058 2.72182 141.988 7.79581 159.295C12.9828 176.8 21.7154 193.052 33.451 207.04C50.418 226.843 68.0043 234.065 72.5604 235.689C64.6011 232.164 57.5658 226.846 52.0055 220.149Z" fill="url(#paint3_radial_250_696)"/>
    <path d="M59.8381 124.223C65.9366 98.6655 76.1935 75.5993 88.7846 59.1513C99.9346 44.5942 112.165 36.2652 124.089 34.9033C123.55 27.4647 122.832 20.0401 121.934 12.6362C82.2057 24.6045 60.5286 38.884 60.5286 38.884C60.5286 38.884 59.0162 70.5756 59.1551 88.8019C59.1438 101.648 59.3877 113.425 59.8381 124.223Z" fill="url(#paint4_radial_250_696)"/>
    <path style="mix-blend-mode:multiply" opacity="0.5" d="M107.909 236.507C107.909 236.507 183.828 169.387 144.456 5.47015C152.057 2.81516 159.92 0.981324 167.912 0C167.912 0 234.429 181.082 107.909 236.507ZM113.978 208.961C121.36 183.126 125.458 145.713 125.924 99.2469C126.17 83.9457 125.93 68.6405 125.203 53.3546C109.519 56.2173 87.5421 86.3631 77.4805 129.682C72.0012 153.258 70.9804 176.23 74.602 194.371C77.6344 209.558 83.7967 219.635 91.0887 221.331C97.5588 222.832 105.774 218.255 113.978 208.961ZM59.8379 124.223C65.9327 98.6654 76.1895 75.5992 88.7844 59.1512C99.9306 44.5941 112.165 36.2651 124.088 34.9032C123.549 27.4645 122.83 20.0399 121.93 12.6361C82.2055 24.6044 60.5284 38.8839 60.5284 38.8839C60.5284 38.8839 59.016 70.5755 59.1548 88.8018C59.1398 101.648 59.3838 113.425 59.8379 124.223ZM52.0055 220.149C40.8142 207.509 31.1766 189.309 24.8717 168.892C18.563 148.475 16.2511 128.008 18.3678 111.264C19.9703 98.5716 24.0498 88.7118 30.1783 82.3562C30.5987 73.108 31.2817 64.6589 31.946 57.3953L32.1524 55.163C21.1981 62.2324 10.8281 70.1679 1.14177 78.8933C0.281239 87.9097 -0.0933466 96.966 0.0196394 106.023C0.104983 124.058 2.72256 141.991 7.79575 159.299C12.9834 176.802 21.7159 193.053 33.4509 207.04C50.418 226.843 68.0043 234.065 72.5604 235.689C64.6013 232.164 57.5662 226.845 52.0055 220.149Z" fill="url(#paint5_linear_250_696)"/>
    <path d="M99.5403 229.724C76.7599 226.925 73.401 202.752 72.1738 187.52C70.9597 164.86 73.5655 142.158 79.8823 120.362C83.0303 109.077 87.3013 98.1361 92.6311 87.7024C98.1863 76.3426 105.085 65.6902 113.178 55.9733C125.728 40.9548 143.026 41.7989 153.147 52.9831C152.93 51.1897 152.697 49.3814 152.446 47.5617C147.969 41.5489 141.543 37.2752 134.266 35.4696C119.292 31.9917 103.139 40.4033 88.7806 59.1511C75.9755 75.8767 65.5873 99.4456 59.5338 125.513C53.4766 151.588 52.4107 177.318 56.5315 197.972C61.1551 221.128 71.9448 235.794 86.9191 239.272C88.7243 239.685 90.567 239.929 92.4209 240C97.7698 239.906 103.043 238.716 107.913 236.503C111.257 233.327 114.329 229.875 117.097 226.186C111.746 229.138 105.617 230.371 99.5403 229.724Z" fill="url(#paint6_radial_250_696)"/>
    <path d="M47.7683 82.0336C43.1221 85.414 37.8605 92.7638 36.2354 105.614C34.7603 120.089 35.727 134.709 39.0952 148.865C36.5114 137.303 35.8106 125.401 37.0198 113.616C38.4159 102.549 42.2214 94.7673 46.9539 93.3078C47.601 93.1117 48.2743 93.0156 48.9504 93.0227C51.7877 93.0227 55.3229 94.5309 59.1847 97.4648C59.1622 94.6322 59.1509 91.747 59.1547 88.8019C59.1359 86.3482 59.1472 83.6469 59.181 80.8105V80.833C54.8651 79.5574 50.917 79.745 47.7683 82.0336Z" fill="#FF00D2"/>
    <path d="M36.2358 105.614C37.8571 92.7637 43.1225 85.4139 47.7686 82.0335C50.9174 79.7449 54.8655 79.5573 59.1776 80.833C59.2001 79.3022 59.2226 77.7339 59.2527 76.1432C53.561 73.8887 47.2772 73.6086 41.4074 75.3478C28.9889 79.1822 20.8075 91.9383 18.3681 111.264C16.2551 128.008 18.5632 148.474 24.8682 168.892C31.1769 189.306 40.8182 207.509 52.0057 220.149C58.9111 227.942 66.1093 233.262 73.2099 235.944C74.1106 236.297 75.1614 236.601 76.1972 236.957L76.2273 236.965L76.7902 237.156C81.7891 238.953 87.047 239.91 92.3537 239.996C90.5237 239.924 88.7044 239.682 86.9194 239.272C71.9451 235.794 61.1554 221.128 56.5355 197.972C56.2098 196.343 55.9195 194.707 55.6648 193.065C50.2674 183.679 45.9611 173.707 42.8298 163.343C41.3569 158.579 40.1108 153.747 39.0956 148.865C35.7273 134.709 34.7606 120.089 36.2358 105.614Z" fill="url(#paint7_radial_250_696)"/>
    <path d="M153.148 52.9832C143.026 41.799 125.729 40.9548 113.179 55.9734C105.085 65.6903 98.1867 76.3428 92.6314 87.7025C103.575 66.5798 116.823 53.6623 126.96 53.1483C128.01 53.0882 129.069 53.1745 130.097 53.4109C137.389 55.103 143.551 65.1804 146.584 80.3715C150.205 98.5115 149.185 121.484 143.705 145.057C140.394 159.683 135.276 173.841 128.468 187.205C124.528 195.009 119.664 202.316 113.982 208.961L113.757 209.209L113.745 209.224L113.547 209.445L113.475 209.52L112.916 210.136L112.766 210.297L112.642 210.428L112.481 210.605L112.364 210.728L112.102 211.002L112.019 211.092L111.783 211.332L111.741 211.378L111.13 211.997L111.118 212.008C110.383 212.747 109.647 213.441 108.915 214.098C102.46 219.883 96.223 222.52 91.0889 221.331C83.7969 219.635 77.6309 209.558 74.6022 194.37C70.9806 176.23 72.0014 153.254 77.4807 129.682C78.2163 126.504 79.0194 123.394 79.8826 120.362C73.5658 142.158 70.96 164.86 72.1741 187.52C73.4013 202.752 76.7639 226.925 99.5406 229.728C105.617 230.376 111.746 229.141 117.097 226.19C120.452 221.841 123.557 217.306 126.397 212.604L126.457 212.503L126.689 212.117L126.727 212.06C143.172 184.713 163.007 133.4 153.148 52.9832Z" fill="url(#paint8_linear_250_696)"/>
    <defs>
        <radialGradient id="paint0_radial_250_696" cx="0" cy="0" r="1" gradientUnits="userSpaceOnUse" gradientTransform="translate(104.592 153.956) rotate(19.7945) scale(41.3474 83.5319)">
            <stop offset="0.63" stop-color="white" stop-opacity="0"/>
            <stop offset="0.688" stop-color="#EBECFF" stop-opacity="0.238"/>
            <stop offset="0.75" stop-color="#D8DBFF" stop-opacity="0.467"/>
            <stop offset="0.81" stop-color="#C8CCFF" stop-opacity="0.658"/>
            <stop offset="0.867" stop-color="#BBC0FF" stop-opacity="0.806"/>
            <stop offset="0.919" stop-color="#B2B8FF" stop-opacity="0.913"/>
            <stop offset="0.965" stop-color="#ADB3FF" stop-opacity="0.977"/>
            <stop offset="1" stop-color="#ABB1FF"/>
        </radialGradient>
        <radialGradient id="paint1_radial_250_696" cx="0" cy="0" r="1" gradientUnits="userSpaceOnUse" gradientTransform="translate(109.966 159.226) rotate(15.0957) scale(48.319 119.735)">
            <stop offset="0.65" stop-color="white" stop-opacity="0"/>
            <stop offset="0.705" stop-color="#EBECFF" stop-opacity="0.238"/>
            <stop offset="0.763" stop-color="#D8DBFF" stop-opacity="0.467"/>
            <stop offset="0.82" stop-color="#C8CCFF" stop-opacity="0.658"/>
            <stop offset="0.874" stop-color="#BBC0FF" stop-opacity="0.806"/>
            <stop offset="0.923" stop-color="#B2B8FF" stop-opacity="0.913"/>
            <stop offset="0.967" stop-color="#ADB3FF" stop-opacity="0.977"/>
            <stop offset="1" stop-color="#ABB1FF"/>
        </radialGradient>
        <radialGradient id="paint2_radial_250_696" cx="0" cy="0" r="1" gradientUnits="userSpaceOnUse" gradientTransform="translate(124.443 141.429) rotate(10.7968) scale(45.1539 116.947)">
            <stop offset="0.2" stop-color="#ABB1FF"/>
            <stop offset="0.381" stop-color="#ACB2FF" stop-opacity="0.99"/>
            <stop offset="0.49" stop-color="#AFB4FF" stop-opacity="0.957"/>
            <stop offset="0.58" stop-color="#B3B9FF" stop-opacity="0.901"/>
            <stop offset="0.659" stop-color="#BABFFF" stop-opacity="0.821"/>
            <stop offset="0.732" stop-color="#C3C7FF" stop-opacity="0.718"/>
            <stop offset="0.8" stop-color="#CDD1FF" stop-opacity="0.591"/>
            <stop offset="0.864" stop-color="#DADDFF" stop-opacity="0.44"/>
            <stop offset="0.925" stop-color="#E9EAFF" stop-opacity="0.265"/>
            <stop offset="0.981" stop-color="#F9F9FF" stop-opacity="0.072"/>
            <stop offset="1" stop-color="white" stop-opacity="0"/>
        </radialGradient>
        <radialGradient id="paint3_radial_250_696" cx="0" cy="0" r="1" gradientUnits="userSpaceOnUse" gradientTransform="translate(43.0247 156.841) rotate(-14.5455) scale(28.2595 78.5695)">
            <stop offset="0.42" stop-color="#ABB1FF"/>
            <stop offset="0.514" stop-color="#ACB2FF" stop-opacity="0.987"/>
            <stop offset="0.59" stop-color="#AFB5FF" stop-opacity="0.948"/>
            <stop offset="0.659" stop-color="#B5BAFF" stop-opacity="0.882"/>
            <stop offset="0.725" stop-color="#BDC2FF" stop-opacity="0.788"/>
            <stop offset="0.787" stop-color="#C7CBFF" stop-opacity="0.668"/>
            <stop offset="0.848" stop-color="#D3D7FF" stop-opacity="0.519"/>
            <stop offset="0.907" stop-color="#E2E4FF" stop-opacity="0.343"/>
            <stop offset="0.964" stop-color="#F3F4FF" stop-opacity="0.145"/>
            <stop offset="1" stop-color="white" stop-opacity="0"/>
        </radialGradient>
        <radialGradient id="paint4_radial_250_696" cx="0" cy="0" r="1" gradientUnits="userSpaceOnUse" gradientTransform="translate(99.6756 119.421) rotate(14.3544) scale(45.656 72.0805)">
            <stop offset="0.28" stop-color="#ABB1FF"/>
            <stop offset="0.443" stop-color="#ACB2FF" stop-opacity="0.99"/>
            <stop offset="0.541" stop-color="#AFB4FF" stop-opacity="0.957"/>
            <stop offset="0.622" stop-color="#B3B9FF" stop-opacity="0.901"/>
            <stop offset="0.694" stop-color="#BABFFF" stop-opacity="0.821"/>
            <stop offset="0.759" stop-color="#C3C7FF" stop-opacity="0.718"/>
            <stop offset="0.82" stop-color="#CDD1FF" stop-opacity="0.591"/>
            <stop offset="0.877" stop-color="#DADDFF" stop-opacity="0.44"/>
            <stop offset="0.932" stop-color="#E9EAFF" stop-opacity="0.265"/>
            <stop offset="0.983" stop-color="#F9F9FF" stop-opacity="0.072"/>
            <stop offset="1" stop-color="white" stop-opacity="0"/>
        </radialGradient>
        <linearGradient id="paint5_linear_250_696" x1="73.2434" y1="24.3868" x2="128.932" y2="230.839" gradientUnits="userSpaceOnUse">
            <stop stop-color="#58595B" stop-opacity="0"/>
            <stop offset="1" stop-color="#616DFF" stop-opacity="0.55"/>
        </linearGradient>
        <radialGradient id="paint6_radial_250_696" cx="0" cy="0" r="1" gradientUnits="userSpaceOnUse" gradientTransform="translate(98.1817 48.2858) rotate(-43.6914) scale(23.4583 11.6352)">
            <stop stop-color="#FF8366"/>
            <stop offset="1" stop-color="#FF3000"/>
        </radialGradient>
        <radialGradient id="paint7_radial_250_696" cx="0" cy="0" r="1" gradientUnits="userSpaceOnUse" gradientTransform="translate(23.0255 92.2572) rotate(115.707) scale(20.2218 11.1443)">
            <stop stop-color="#FF8366"/>
            <stop offset="1" stop-color="#FF3000"/>
        </radialGradient>
        <linearGradient id="paint8_linear_250_696" x1="113.783" y1="229.926" x2="113.783" y2="44.6354" gradientUnits="userSpaceOnUse">
            <stop stop-color="#DC0A0A"/>
            <stop offset="1" stop-color="#FF00D2"/>
        </linearGradient>
    </defs>
</svg>
